{"glyphs":{"0":{"ha":794,"x_min":68,"x_max":726,"o":"m 726 497 q 708 282 726 376 q 651 122 690 188 q 548 21 611 56 q 396 -14 485 -14 q 212 47 285 -14 q 103 223 139 108 q 68 497 68 338 q 101 772 68 658 q 206 947 133 886 q 396 1007 278 1007 q 581 947 507 1007 q 690 772 654 886 q 726 497 726 658 m 190 497 q 210 271 190 361 q 276 135 231 181 q 396 90 321 90 q 516 135 471 90 q 582 270 561 179 q 603 497 603 361 q 582 723 603 633 q 516 858 561 813 q 396 903 471 903 q 276 858 321 903 q 210 723 231 813 q 190 497 190 633 z "},"1":{"ha":794,"x_min":124,"x_max":493,"o":"m 493 0 l 374 0 l 374 693 q 374 761 374 733 q 376 813 375 789 q 379 864 378 838 q 339 826 357 842 q 293 788 321 811 l 188 701 l 124 783 l 392 992 l 493 992 l 493 0 z "},"2":{"ha":794,"x_min":67,"x_max":722,"o":"m 722 0 l 67 0 l 67 101 l 326 364 q 453 497 401 439 q 531 612 504 556 q 557 735 557 668 q 508 859 557 817 q 382 901 460 901 q 255 876 310 901 q 143 807 200 851 l 78 889 q 163 949 117 922 q 265 990 210 975 q 382 1006 319 1006 q 542 974 475 1006 q 645 883 608 942 q 682 742 682 824 q 650 596 682 664 q 561 462 618 528 q 428 321 504 396 l 221 117 l 221 111 l 722 111 l 722 0 z "},"3":{"ha":794,"x_min":63,"x_max":715,"o":"m 685 760 q 660 644 685 693 q 588 565 635 596 q 479 522 542 535 l 479 517 q 657 442 599 503 q 715 282 715 381 q 675 128 715 196 q 551 24 635 61 q 335 -14 467 -14 q 190 -2 257 -14 q 63 40 124 10 l 63 154 q 197 106 125 124 q 336 89 269 89 q 528 141 469 89 q 588 285 588 193 q 555 385 588 347 q 460 442 522 424 q 310 460 397 460 l 214 460 l 214 564 l 311 564 q 448 588 393 564 q 531 653 503 611 q 560 751 560 696 q 511 863 560 824 q 379 903 463 903 q 283 892 326 903 q 203 863 240 882 q 129 819 167 844 l 68 903 q 199 975 121 944 q 378 1006 278 1006 q 609 936 533 1006 q 685 760 685 867 z "},"4":{"ha":794,"x_min":29,"x_max":767,"o":"m 767 225 l 622 225 l 622 0 l 504 0 l 504 225 l 29 225 l 29 329 l 496 997 l 622 997 l 622 335 l 767 335 l 767 225 m 504 647 q 505 713 504 683 q 507 769 506 743 q 509 820 508 796 q 511 867 510 844 l 506 867 q 478 810 494 840 q 446 758 461 779 l 149 335 l 504 335 l 504 647 z "},"5":{"ha":794,"x_min":88,"x_max":715,"o":"m 382 608 q 558 574 483 608 q 674 474 633 539 q 715 317 715 410 q 671 140 715 214 q 544 26 626 65 q 344 -14 461 -14 q 201 0 268 -14 q 88 40 133 14 l 88 156 q 209 108 138 125 q 346 90 281 90 q 474 113 419 90 q 560 184 529 136 q 590 304 590 232 q 531 453 590 401 q 342 506 471 506 q 253 499 303 506 q 172 485 203 492 l 111 524 l 149 992 l 646 992 l 646 881 l 253 881 l 229 593 q 293 603 253 597 q 382 608 333 608 z "},"6":{"ha":794,"x_min":76,"x_max":729,"o":"m 76 424 q 88 593 76 510 q 129 751 100 676 q 210 883 158 825 q 340 973 261 940 q 531 1006 418 1006 q 595 1003 560 1006 q 653 993 631 1000 l 653 889 q 597 901 628 897 q 533 906 565 906 q 374 874 438 906 q 273 786 310 842 q 219 658 236 731 q 199 504 203 586 l 207 504 q 260 564 228 538 q 337 606 292 590 q 442 621 382 621 q 592 585 528 621 q 693 483 657 550 q 729 319 729 415 q 690 142 729 217 q 581 26 651 67 q 414 -14 511 -14 q 282 13 343 -14 q 174 93 221 39 q 102 230 128 147 q 76 424 76 313 m 413 89 q 554 145 500 89 q 608 319 608 201 q 560 469 608 414 q 417 525 513 525 q 303 498 351 525 q 227 429 254 471 q 200 343 200 388 q 213 253 200 297 q 253 171 226 208 q 320 111 281 133 q 413 89 360 89 z "},"7":{"ha":794,"x_min":61,"x_max":726,"o":"m 189 0 l 596 881 l 61 881 l 61 992 l 726 992 l 726 897 l 324 0 l 189 0 z "},"8":{"ha":794,"x_min":68,"x_max":725,"o":"m 396 1006 q 550 978 483 1006 q 655 899 617 951 q 693 768 693 846 q 667 664 693 708 q 599 585 642 619 q 504 525 556 551 q 615 459 565 496 q 695 374 665 422 q 725 257 725 325 q 685 113 725 174 q 572 19 644 53 q 400 -14 499 -14 q 219 18 293 -14 q 106 109 144 50 q 68 253 68 168 q 97 371 68 321 q 172 457 125 421 q 274 518 219 493 q 185 581 225 546 q 123 663 146 617 q 100 769 100 708 q 139 898 100 846 q 244 978 178 950 q 396 1006 311 1006 m 188 251 q 239 131 188 179 q 397 83 290 83 q 552 131 499 83 q 606 256 606 179 q 580 341 606 304 q 508 407 554 378 q 397 460 461 436 l 375 468 q 272 411 314 442 q 209 342 231 381 q 188 251 188 303 m 394 907 q 269 870 318 907 q 219 764 219 833 q 244 678 219 713 q 310 619 268 643 q 401 572 351 594 q 488 618 450 593 q 549 678 526 643 q 572 764 572 714 q 524 870 572 833 q 394 907 475 907 z "},"9":{"ha":794,"x_min":69,"x_max":722,"o":"m 722 568 q 710 399 722 483 q 669 241 699 315 q 589 109 640 167 q 458 19 538 51 q 267 -14 379 -14 q 202 -10 239 -14 q 142 0 165 -7 l 142 104 q 200 91 167 96 q 264 86 233 86 q 424 118 361 86 q 525 205 488 150 q 579 333 563 260 q 599 486 596 406 l 590 486 q 538 428 569 454 q 460 386 506 401 q 354 371 415 371 q 205 406 269 371 q 105 508 140 442 q 69 671 69 575 q 109 850 69 775 q 219 965 149 925 q 386 1006 290 1006 q 518 978 457 1006 q 625 897 579 951 q 697 761 671 843 q 722 568 722 679 m 386 903 q 245 846 300 903 q 190 672 190 789 q 237 522 190 576 q 381 467 283 467 q 496 494 447 467 q 572 563 544 521 q 599 649 599 604 q 585 738 599 693 q 546 821 572 783 q 479 881 519 858 q 386 903 439 903 z "},"\u0000":{"ha":0,"x_min":0,"x_max":0,"o":""},"\r":{"ha":361,"x_min":0,"x_max":0,"o":""}," ":{"ha":361,"x_min":0,"x_max":0,"o":""}," ":{"ha":361,"x_min":0,"x_max":0,"o":""},"-":{"ha":447,"x_min":56,"x_max":392,"o":"m 56 318 l 56 426 l 392 426 l 392 318 l 56 318 z "},"ሙ":{"ha":1524,"x_min":97,"x_max":1503,"o":"m 360 -14 q 209 38 267 -14 q 124 189 151 89 q 97 433 97 289 q 121 660 97 558 q 190 837 144 763 q 302 951 235 911 q 457 992 369 992 l 958 992 q 1168 881 1101 992 q 1235 551 1235 771 q 1166 217 1235 333 q 958 101 1097 101 l 768 101 l 768 894 l 614 894 l 614 143 q 548 62 585 97 q 465 6 511 26 q 360 -14 418 -14 m 365 88 q 433 104 404 88 q 488 157 463 121 l 488 894 l 468 894 q 363 866 408 894 q 285 781 317 838 q 237 638 253 724 q 221 438 221 553 q 238 238 221 315 q 288 124 256 161 q 365 88 321 88 m 894 201 l 940 201 q 1024 226 990 201 q 1076 296 1057 250 q 1104 407 1096 342 q 1113 553 1113 472 q 1103 690 1113 628 q 1076 799 1094 753 q 1025 869 1057 844 q 947 894 993 894 l 894 894 l 894 201 m 1469 363 q 1395 400 1426 363 q 1353 476 1364 438 l 1158 476 l 1158 578 l 1353 578 q 1395 653 1364 617 q 1469 690 1426 690 l 1503 690 l 1467 526 l 1503 363 l 1469 363 z "},"ኑ":{"ha":731,"x_min":83,"x_max":710,"o":"m 682 272 q 608 303 640 272 q 560 386 575 335 l 365 386 l 365 488 l 663 488 l 710 272 l 682 272 m 317 0 l 317 642 q 144 703 206 646 q 83 885 83 760 l 83 990 l 210 990 l 210 896 q 244 775 210 806 q 351 744 279 744 l 443 744 l 443 0 l 317 0 z "},"ኂ":{"ha":935,"x_min":21,"x_max":914,"o":"m 881 -114 q 806 -76 838 -114 q 764 0 775 -39 l 569 0 l 569 101 l 764 101 q 806 177 775 140 q 881 214 838 214 l 914 214 l 878 50 l 914 -114 l 881 -114 m 504 0 l 504 642 q 332 703 393 646 q 271 885 271 760 l 271 990 l 397 990 l 397 896 q 432 775 397 806 q 539 744 467 744 l 631 744 l 631 0 l 504 0 m 21 668 l 68 883 l 365 883 l 365 782 l 171 782 q 124 699 157 731 q 49 668 90 668 l 21 668 z "},"ፒ":{"ha":835,"x_min":21,"x_max":814,"o":"m 721 -114 q 647 -76 678 -114 q 604 0 615 -39 l 410 0 l 410 101 l 604 101 q 647 177 615 140 q 721 214 678 214 l 754 214 l 718 50 l 754 -114 l 721 -114 m 354 0 l 354 992 l 481 992 l 481 0 l 354 0 m 21 776 l 68 992 l 767 992 l 814 776 l 786 776 q 712 808 744 776 q 664 890 679 839 l 171 890 q 124 808 157 839 q 49 776 90 776 l 21 776 z "},"ጲ":{"ha":997,"x_min":49,"x_max":976,"o":"m 943 -114 q 869 -76 900 -114 q 826 0 838 -39 l 632 0 l 632 101 l 826 101 q 869 177 838 140 q 943 214 900 214 l 976 214 l 940 50 l 976 -114 l 943 -114 m 49 0 q 64 149 49 82 q 115 273 79 215 q 210 385 151 331 q 357 497 269 440 q 442 563 410 532 q 490 626 475 593 q 506 699 506 658 q 474 788 506 753 q 381 824 442 824 q 288 788 322 824 q 254 693 254 751 q 276 610 254 646 q 340 551 299 575 q 436 513 381 528 l 351 444 q 240 496 289 464 q 162 576 190 528 q 133 692 133 625 q 203 858 133 794 q 383 922 272 922 q 566 859 503 922 q 629 706 629 796 q 608 602 629 649 q 542 514 586 556 q 432 428 499 472 q 308 334 358 379 q 228 240 258 289 q 186 133 199 192 q 174 0 174 75 l 49 0 m 592 0 l 592 15 q 559 197 592 128 q 465 306 526 267 q 315 367 403 346 l 385 446 q 565 372 492 418 q 678 247 639 326 q 717 38 717 168 l 717 0 l 592 0 m 319 890 l 319 1056 l 446 1056 l 446 890 l 319 890 z "},"ጪ":{"ha":1526,"x_min":125,"x_max":1506,"o":"m 614 0 l 614 367 l 800 367 q 956 322 903 367 q 1010 194 1010 276 q 950 54 1010 108 q 753 0 890 0 l 614 0 m 740 92 l 757 92 q 856 119 826 92 q 886 190 886 147 q 865 251 886 229 q 778 272 843 272 l 740 272 l 740 92 m 125 0 l 125 367 l 311 367 q 467 322 414 367 q 521 194 521 276 q 461 54 521 108 q 264 0 401 0 l 125 0 m 251 92 l 268 92 q 367 119 338 92 q 397 190 397 147 q 376 251 397 229 q 289 272 354 272 l 251 272 l 251 92 m 1478 -114 q 1403 -83 1436 -114 q 1356 0 1371 -51 l 1161 0 l 1161 101 l 1458 101 l 1506 -114 l 1478 -114 m 125 0 l 125 539 q 175 783 125 682 q 328 938 225 883 q 589 992 432 992 l 740 992 l 740 928 q 821 972 769 951 q 946 992 872 992 q 1072 968 1019 992 q 1160 899 1125 944 q 1213 788 1196 853 q 1229 640 1229 724 l 1229 0 l 1103 0 l 1103 601 q 1088 751 1103 689 q 1030 847 1072 814 q 906 881 988 881 q 810 865 854 881 q 740 826 765 849 l 740 0 l 614 0 l 614 881 q 600 881 607 881 q 586 881 593 881 q 392 839 465 881 q 285 718 318 797 q 251 525 251 639 l 251 0 l 125 0 z "},"ሾ":{"ha":858,"x_min":63,"x_max":797,"o":"m 797 858 l 764 858 q 690 896 721 858 q 647 972 658 933 l 213 972 q 172 896 203 933 q 96 858 140 858 l 63 858 l 99 1022 l 63 1186 l 96 1186 q 172 1149 140 1186 q 213 1074 203 1113 l 647 1074 q 690 1149 658 1113 q 764 1186 721 1186 l 797 1186 l 761 1022 l 797 858 m 488 831 l 361 831 l 361 1056 l 488 1056 l 488 831 m 251 0 l 125 0 l 125 499 q 156 689 125 610 q 254 810 188 768 q 426 851 321 851 q 599 808 532 851 q 700 685 667 764 q 733 501 733 607 l 733 333 l 607 333 l 607 490 q 569 672 607 604 q 426 740 531 740 q 292 676 332 740 q 251 492 251 611 l 251 0 z "},"ሀ":{"ha":858,"x_min":125,"x_max":733,"o":"m 426 -14 q 254 27 321 -14 q 156 147 188 68 q 125 339 125 225 l 125 992 l 251 992 l 251 346 q 292 163 251 228 q 426 97 332 97 q 535 128 496 97 q 591 216 575 160 q 607 347 607 272 l 607 992 l 733 992 l 733 336 q 700 152 733 231 q 599 30 667 74 q 426 -14 532 -14 z "},"ሁ":{"ha":1035,"x_min":125,"x_max":1014,"o":"m 986 349 q 912 380 944 349 q 864 463 879 411 l 669 463 l 669 564 l 967 564 l 1014 349 l 986 349 m 426 -14 q 254 27 321 -14 q 156 147 188 68 q 125 339 125 225 l 125 992 l 251 992 l 251 346 q 292 163 251 228 q 426 97 332 97 q 535 128 496 97 q 591 216 575 160 q 607 347 607 272 l 607 992 l 733 992 l 733 336 q 700 152 733 231 q 599 30 667 74 q 426 -14 532 -14 z "},"ሂ":{"ha":706,"x_min":74,"x_max":685,"o":"m 186 0 l 186 76 l 351 483 q 149 560 225 493 q 74 776 74 628 l 74 992 l 199 992 l 199 788 q 253 634 199 678 q 394 588 308 590 l 554 992 l 682 992 l 283 0 l 186 0 m 260 0 l 260 101 l 453 101 l 453 0 l 260 0 m 651 -114 q 577 -76 608 -114 q 535 0 546 -39 l 340 0 l 340 101 l 535 101 q 577 177 546 140 q 651 214 608 214 l 685 214 l 649 50 l 685 -114 l 651 -114 z "},"ሃ":{"ha":717,"x_min":74,"x_max":682,"o":"m 154 0 l 351 483 q 149 560 225 493 q 74 776 74 628 l 74 992 l 199 992 l 199 788 q 253 634 199 678 q 394 588 308 590 l 554 992 l 682 992 l 283 0 l 154 0 z "},"ሄ":{"ha":733,"x_min":74,"x_max":708,"o":"m 182 0 l 182 88 l 351 483 q 149 560 225 493 q 74 776 74 628 l 74 992 l 199 992 l 199 788 q 253 634 199 678 q 394 588 308 590 l 554 992 l 682 992 l 283 0 l 182 0 m 299 92 l 456 92 q 557 119 529 92 q 585 190 585 147 q 560 251 585 229 q 481 272 536 272 l 353 272 l 299 92 m 199 0 l 315 367 l 503 367 q 657 322 606 367 q 708 194 708 276 q 645 54 708 108 q 451 0 582 0 l 199 0 z "},"ሆ":{"ha":1075,"x_min":125,"x_max":1050,"o":"m 426 -14 q 254 27 321 -14 q 156 147 188 68 q 125 339 125 225 l 125 992 l 251 992 l 251 346 q 292 163 251 228 q 426 97 332 97 q 535 128 496 97 q 591 216 575 160 q 607 347 607 272 l 607 954 l 733 954 l 733 336 q 700 152 733 231 q 599 30 667 74 q 426 -14 532 -14 m 692 639 l 607 954 q 712 990 651 974 q 844 1006 772 1006 q 999 960 947 1006 q 1050 828 1050 915 q 992 691 1050 743 q 808 639 935 639 l 692 639 m 733 733 l 790 733 q 894 756 861 733 q 926 826 926 778 q 903 888 926 867 q 829 910 879 910 q 776 905 800 910 q 733 893 751 900 l 733 733 z "},"ሇ":{"ha":1250,"x_min":21,"x_max":1225,"o":"m 21 306 l 57 469 l 21 633 l 54 633 q 130 597 99 633 q 171 521 161 560 l 365 521 l 365 419 l 171 419 q 130 343 161 381 q 54 306 99 306 l 21 306 m 601 -14 q 429 27 496 -14 q 331 147 363 68 q 300 339 300 225 l 300 992 l 426 992 l 426 346 q 467 163 426 228 q 601 97 507 97 q 710 128 671 97 q 766 216 750 160 q 782 347 782 272 l 782 954 l 908 954 l 908 336 q 875 152 908 231 q 774 30 842 74 q 601 -14 707 -14 m 867 639 l 782 954 q 887 990 826 974 q 1019 1006 947 1006 q 1174 960 1122 1006 q 1225 828 1225 915 q 1167 691 1225 743 q 983 639 1110 639 l 867 639 m 908 733 l 965 733 q 1069 756 1036 733 q 1101 826 1101 778 q 1078 888 1101 867 q 1004 910 1054 910 q 951 905 975 910 q 908 893 926 900 l 908 733 z "},"ለ":{"ha":819,"x_min":60,"x_max":785,"o":"m 60 0 q 106 335 79 199 q 172 561 132 472 q 269 701 211 650 q 410 776 328 751 l 343 992 l 478 992 l 785 0 l 653 0 l 443 675 q 349 626 390 663 q 275 514 307 589 q 220 315 243 439 q 182 0 197 190 l 60 0 z "},"ሉ":{"ha":926,"x_min":60,"x_max":906,"o":"m 878 283 q 803 315 836 283 q 756 397 771 346 l 561 397 l 561 499 l 858 499 l 906 283 l 878 283 m 60 0 q 106 335 79 199 q 172 561 132 472 q 269 701 211 650 q 410 776 328 751 l 343 992 l 478 992 l 785 0 l 653 0 l 443 675 q 349 626 390 663 q 275 514 307 589 q 220 315 243 439 q 182 0 197 190 l 60 0 z "},"ሊ":{"ha":1046,"x_min":60,"x_max":1025,"o":"m 992 -114 q 917 -76 949 -114 q 875 0 886 -39 l 681 0 l 681 101 l 875 101 q 917 177 886 140 q 992 214 949 214 l 1025 214 l 989 50 l 1025 -114 l 992 -114 m 60 0 q 106 335 79 199 q 172 561 132 472 q 269 701 211 650 q 410 776 328 751 l 343 992 l 478 992 l 785 0 l 653 0 l 443 675 q 349 626 390 663 q 275 514 307 589 q 220 315 243 439 q 182 0 197 190 l 60 0 z "},"ላ":{"ha":790,"x_min":60,"x_max":756,"o":"m 624 0 l 414 675 q 313 619 357 661 q 235 490 268 578 q 179 246 203 401 l 60 246 q 106 467 79 375 q 172 619 133 558 q 261 718 210 681 q 381 776 313 756 l 314 992 l 449 992 l 756 0 l 624 0 z "},"ሌ":{"ha":1072,"x_min":60,"x_max":1047,"o":"m 60 0 q 106 335 79 199 q 172 561 132 472 q 269 701 211 650 q 410 776 328 751 l 343 992 l 478 992 l 764 67 l 785 0 l 653 0 l 443 675 q 349 626 390 663 q 275 514 307 589 q 220 315 243 439 q 182 0 197 190 l 60 0 m 686 92 l 794 92 q 896 119 868 92 q 924 190 924 147 q 899 251 924 229 q 819 272 875 272 l 632 272 l 686 92 m 686 0 l 571 367 l 826 367 q 994 322 942 367 q 1047 194 1047 276 q 984 54 1047 108 q 790 0 921 0 l 686 0 z "},"ል":{"ha":922,"x_min":60,"x_max":897,"o":"m 60 0 q 108 337 79 199 q 179 564 136 475 q 283 705 222 653 q 425 782 343 757 l 335 992 l 469 992 l 897 0 l 765 0 l 467 681 q 373 630 418 667 q 293 529 328 593 q 236 367 258 465 l 339 367 q 477 320 426 367 q 528 194 528 274 q 464 51 528 101 q 285 0 400 0 l 60 0 m 196 92 l 261 92 q 369 115 333 92 q 404 190 404 139 q 378 251 404 231 q 299 272 351 272 l 219 272 q 210 212 215 242 q 202 152 206 182 q 196 92 199 122 z "},"ሎ":{"ha":1207,"x_min":60,"x_max":1172,"o":"m 946 314 q 772 366 824 314 q 719 494 719 418 q 721 515 719 506 q 724 533 722 524 l 578 533 l 578 635 l 786 635 q 854 669 814 657 q 946 681 894 681 q 1117 631 1061 681 q 1172 499 1172 581 q 1115 368 1172 422 q 946 314 1057 314 m 946 407 q 1024 431 999 407 q 1049 497 1049 454 q 1023 563 1049 539 q 946 586 997 586 q 869 563 894 586 q 843 497 843 539 q 869 431 843 454 q 946 407 894 407 m 60 0 q 106 335 79 199 q 172 561 132 472 q 269 701 211 650 q 410 776 328 751 l 343 992 l 478 992 l 785 0 l 653 0 l 443 675 q 349 626 390 663 q 275 514 307 589 q 220 315 243 439 q 182 0 197 190 l 60 0 z "},"ሏ":{"ha":954,"x_min":60,"x_max":933,"o":"m 140 -114 l 188 101 l 886 101 l 933 -114 l 906 -114 q 831 -83 864 -114 q 783 0 799 -51 l 290 0 q 243 -83 276 -51 q 168 -114 210 -114 l 140 -114 m 624 0 l 414 675 q 313 619 357 661 q 235 490 268 578 q 179 246 203 401 l 60 246 q 106 467 79 375 q 172 619 133 558 q 261 718 210 681 q 381 776 313 756 l 314 992 l 449 992 l 756 0 l 624 0 z "},"ሐ":{"ha":1051,"x_min":103,"x_max":949,"o":"m 103 0 l 103 257 q 201 509 103 421 q 463 603 300 597 l 463 992 l 589 992 l 589 603 q 852 509 756 597 q 949 257 949 421 l 949 0 l 822 0 l 822 242 q 761 425 822 365 q 589 488 700 485 l 589 0 l 463 0 l 463 488 q 292 425 354 485 q 229 243 229 365 l 229 0 l 103 0 z "},"ሑ":{"ha":1204,"x_min":103,"x_max":1183,"o":"m 1156 188 q 1081 219 1114 188 q 1033 301 1049 250 l 839 301 l 839 403 l 1136 403 l 1183 188 l 1156 188 m 103 0 l 103 257 q 201 509 103 421 q 463 603 300 597 l 463 992 l 589 992 l 589 603 q 852 509 756 597 q 949 257 949 421 l 949 0 l 822 0 l 822 242 q 761 425 822 365 q 589 488 700 485 l 589 0 l 463 0 l 463 488 q 292 425 354 485 q 229 243 229 365 l 229 0 l 103 0 z "},"ሒ":{"ha":1229,"x_min":103,"x_max":1208,"o":"m 1175 -114 q 1101 -76 1132 -114 q 1058 0 1069 -39 l 864 0 l 864 101 l 1058 101 q 1101 177 1069 140 q 1175 214 1132 214 l 1208 214 l 1172 50 l 1208 -114 l 1175 -114 m 103 0 l 103 257 q 201 509 103 421 q 463 603 300 597 l 463 992 l 589 992 l 589 603 q 852 509 756 597 q 949 257 949 421 l 949 0 l 822 0 l 822 242 q 761 425 822 365 q 589 488 700 485 l 589 0 l 463 0 l 463 488 q 292 425 354 485 q 229 243 229 365 l 229 0 l 103 0 z "},"ሓ":{"ha":1051,"x_min":103,"x_max":949,"o":"m 822 0 l 822 256 q 761 439 822 379 q 589 501 700 499 l 589 217 l 463 217 l 463 501 q 292 439 354 499 q 229 257 229 379 l 229 217 l 103 217 l 103 271 q 201 523 103 435 q 463 617 300 611 l 463 992 l 589 992 l 589 617 q 852 523 756 611 q 949 271 949 435 l 949 0 l 822 0 z "},"ሔ":{"ha":1290,"x_min":103,"x_max":1265,"o":"m 822 0 l 822 367 l 1060 367 q 1214 322 1163 367 q 1265 194 1265 276 q 1202 54 1265 108 q 1008 0 1139 0 l 822 0 m 949 92 l 1013 92 q 1114 119 1086 92 q 1142 190 1142 147 q 1117 251 1142 229 q 1038 272 1093 272 l 949 272 l 949 92 m 103 0 l 103 257 q 201 509 103 421 q 463 603 300 597 l 463 992 l 589 992 l 589 603 q 852 509 756 597 q 949 257 949 421 l 949 0 l 822 0 l 822 242 q 761 425 822 365 q 589 488 700 485 l 589 0 l 463 0 l 463 488 q 292 425 354 485 q 229 243 229 365 l 229 0 l 103 0 z "},"ሕ":{"ha":1051,"x_min":103,"x_max":949,"o":"m 192 1106 l 219 1106 q 294 1075 261 1106 q 342 992 328 1044 l 536 992 l 536 890 l 239 890 l 192 1106 m 103 0 l 103 257 q 201 509 103 421 q 463 603 300 597 l 463 992 l 589 992 l 589 603 q 852 509 756 597 q 949 257 949 421 l 949 0 l 822 0 l 822 242 q 761 425 822 365 q 589 488 700 485 l 589 0 l 463 0 l 463 488 q 292 425 354 485 q 229 243 229 365 l 229 0 l 103 0 z "},"ሖ":{"ha":1051,"x_min":103,"x_max":949,"o":"m 229 0 l 103 0 l 103 271 q 199 523 103 435 q 463 617 296 611 l 463 992 l 589 992 l 589 617 q 850 523 751 611 q 949 271 949 435 l 949 217 l 822 217 l 822 257 q 760 439 822 379 q 589 501 697 499 l 589 217 l 463 217 l 463 501 q 290 439 351 499 q 229 256 229 379 l 229 0 z "},"ሗ":{"ha":1243,"x_min":103,"x_max":1222,"o":"m 533 -114 l 581 101 l 1175 101 l 1222 -114 l 1194 -114 q 1120 -83 1153 -114 q 1072 0 1088 -51 l 683 0 q 636 -83 669 -51 q 561 -114 603 -114 l 533 -114 m 822 0 l 822 256 q 761 439 822 379 q 589 501 700 499 l 589 217 l 463 217 l 463 501 q 292 439 354 499 q 229 257 229 379 l 229 217 l 103 217 l 103 271 q 201 523 103 435 q 463 617 300 611 l 463 992 l 589 992 l 589 617 q 852 523 756 611 q 949 271 949 435 l 949 0 l 822 0 z "},"መ":{"ha":1332,"x_min":97,"x_max":1235,"o":"m 360 -14 q 209 38 267 -14 q 124 189 151 89 q 97 433 97 289 q 121 660 97 558 q 190 837 144 763 q 302 951 235 911 q 457 992 369 992 l 958 992 q 1168 881 1101 992 q 1235 551 1235 771 q 1166 217 1235 333 q 958 101 1097 101 l 768 101 l 768 894 l 614 894 l 614 143 q 548 62 585 97 q 465 6 511 26 q 360 -14 418 -14 m 365 88 q 433 104 404 88 q 488 157 463 121 l 488 894 l 468 894 q 363 866 408 894 q 285 781 317 838 q 237 638 253 724 q 221 438 221 553 q 238 238 221 315 q 288 124 256 161 q 365 88 321 88 m 894 201 l 940 201 q 1024 226 990 201 q 1076 296 1057 250 q 1104 407 1096 342 q 1113 553 1113 472 q 1103 690 1113 628 q 1076 799 1094 753 q 1025 869 1057 844 q 947 894 993 894 l 894 894 l 894 201 z "},"ሚ":{"ha":1332,"x_min":53,"x_max":1311,"o":"m 800 0 l 800 88 l 971 503 l 897 503 q 748 551 800 503 q 696 692 696 599 q 702 794 696 740 q 719 900 708 847 l 569 900 l 569 500 q 457 420 522 451 q 310 389 392 389 q 122 460 192 389 q 53 661 53 531 q 94 838 53 764 q 212 951 135 911 q 396 992 289 992 l 946 992 q 1126 943 1065 992 q 1186 796 1186 894 q 1164 671 1186 743 q 1114 533 1142 599 l 893 0 l 800 0 m 871 0 l 871 101 l 1014 101 l 1014 0 l 871 0 m 317 488 q 390 500 361 488 q 443 532 419 513 l 443 900 l 404 900 q 238 838 299 900 q 176 661 176 776 q 215 532 176 576 q 317 488 253 488 m 968 594 l 1008 594 l 1039 671 q 1058 728 1050 697 q 1065 790 1065 760 q 1031 872 1065 843 q 935 900 996 900 l 842 900 q 824 793 829 839 q 818 706 818 747 q 851 620 818 646 q 968 594 883 594 m 1278 -114 q 1203 -76 1235 -114 q 1161 0 1172 -39 l 967 0 l 967 101 l 1161 101 q 1203 177 1172 140 q 1278 214 1235 214 l 1311 214 l 1275 50 l 1311 -114 l 1278 -114 z "},"ማ":{"ha":1239,"x_min":53,"x_max":1186,"o":"m 764 0 l 971 503 l 897 503 q 748 551 800 503 q 696 692 696 599 q 702 794 696 740 q 719 900 708 847 l 569 900 l 569 500 q 457 420 522 451 q 310 389 392 389 q 122 460 192 389 q 53 661 53 531 q 94 838 53 764 q 212 951 135 911 q 396 992 289 992 l 946 992 q 1126 943 1065 992 q 1186 796 1186 894 q 1164 671 1186 743 q 1114 533 1142 599 l 893 0 l 764 0 m 317 488 q 390 500 361 488 q 443 532 419 513 l 443 900 l 404 900 q 238 838 299 900 q 176 661 176 776 q 215 532 176 576 q 317 488 253 488 m 968 594 l 1008 594 l 1039 671 q 1058 728 1050 697 q 1065 790 1065 760 q 1031 872 1065 843 q 935 900 996 900 l 842 900 q 824 793 829 839 q 818 706 818 747 q 851 620 818 646 q 968 594 883 594 z "},"ሜ":{"ha":1328,"x_min":53,"x_max":1303,"o":"m 800 0 l 800 89 l 971 503 l 897 503 q 748 551 800 503 q 696 692 696 599 q 702 794 696 740 q 719 900 708 847 l 569 900 l 569 500 q 457 420 522 451 q 310 389 392 389 q 122 460 192 389 q 53 661 53 531 q 94 838 53 764 q 212 951 135 911 q 396 992 289 992 l 946 992 q 1126 943 1065 992 q 1186 796 1186 894 q 1164 671 1186 743 q 1114 533 1142 599 l 893 0 l 800 0 m 317 488 q 390 500 361 488 q 443 532 419 513 l 443 900 l 404 900 q 238 838 299 900 q 176 661 176 776 q 215 532 176 576 q 317 488 253 488 m 913 92 l 1050 92 q 1151 119 1124 92 q 1179 190 1179 147 q 1155 251 1179 229 q 1075 272 1131 272 l 986 272 l 913 92 m 832 0 l 978 367 l 1097 367 q 1251 322 1200 367 q 1303 194 1303 276 q 1240 54 1303 108 q 1046 0 1176 0 l 832 0 m 968 594 l 1008 594 l 1039 671 q 1058 728 1050 697 q 1065 790 1065 760 q 1031 872 1065 843 q 935 900 996 900 l 842 900 q 824 793 829 839 q 818 706 818 747 q 851 620 818 646 q 968 594 883 594 z "},"ም":{"ha":1211,"x_min":53,"x_max":1178,"o":"m 310 389 q 122 460 192 389 q 53 661 53 531 q 92 838 53 764 q 208 951 132 911 q 392 992 285 992 l 926 992 q 1065 963 1008 992 q 1149 882 1121 933 q 1178 761 1178 831 q 1152 629 1178 688 q 1073 538 1126 571 q 935 504 1019 504 l 710 504 l 710 900 l 569 900 l 569 500 q 457 420 522 451 q 310 389 392 389 m 243 0 l 444 500 l 569 500 l 372 0 l 243 0 m 317 488 q 390 500 361 488 q 443 532 419 513 l 443 900 l 404 900 q 238 838 299 900 q 176 661 176 776 q 215 532 176 576 q 317 488 253 488 m 836 596 l 911 596 q 998 619 967 596 q 1042 679 1029 643 q 1054 754 1054 715 q 1042 822 1054 789 q 1003 878 1031 856 q 924 900 975 900 l 836 900 l 836 596 z "},"ሞ":{"ha":1211,"x_min":53,"x_max":1178,"o":"m 310 389 q 122 460 192 389 q 53 661 53 531 q 92 838 53 764 q 208 951 132 911 q 392 992 285 992 l 926 992 q 1065 963 1008 992 q 1149 882 1121 933 q 1178 761 1178 831 q 1152 629 1178 688 q 1073 538 1126 571 q 935 504 1019 504 l 710 504 l 710 900 l 569 900 l 569 500 q 457 420 522 451 q 310 389 392 389 m 443 0 l 443 500 l 569 500 l 569 0 l 443 0 m 317 488 q 390 500 361 488 q 443 532 419 513 l 443 900 l 404 900 q 238 838 299 900 q 176 661 176 776 q 215 532 176 576 q 317 488 253 488 m 836 596 l 911 596 q 998 619 967 596 q 1042 679 1029 643 q 1054 754 1054 715 q 1042 822 1054 789 q 1003 878 1031 856 q 924 900 975 900 l 836 900 l 836 596 z "},"ሟ":{"ha":1239,"x_min":53,"x_max":1186,"o":"m 496 -114 l 543 101 l 1138 101 l 1185 -114 l 1157 -114 q 1083 -83 1115 -114 q 1035 0 1050 -51 l 646 0 q 599 -83 632 -51 q 524 -114 565 -114 l 496 -114 m 764 0 l 971 503 l 897 503 q 748 551 800 503 q 696 692 696 599 q 702 794 696 740 q 719 900 708 847 l 569 900 l 569 500 q 457 420 522 451 q 310 389 392 389 q 122 460 192 389 q 53 661 53 531 q 94 838 53 764 q 212 951 135 911 q 396 992 289 992 l 946 992 q 1126 943 1065 992 q 1186 796 1186 894 q 1164 671 1186 743 q 1114 533 1142 599 l 893 0 l 764 0 m 317 488 q 390 500 361 488 q 443 532 419 513 l 443 900 l 404 900 q 238 838 299 900 q 176 661 176 776 q 215 532 176 576 q 317 488 253 488 m 968 594 l 1008 594 l 1039 671 q 1058 728 1050 697 q 1065 790 1065 760 q 1031 872 1065 843 q 935 900 996 900 l 842 900 q 824 793 829 839 q 818 706 818 747 q 851 620 818 646 q 968 594 883 594 z "},"ሠ":{"ha":1158,"x_min":125,"x_max":1033,"o":"m 376 -14 q 231 25 286 -14 q 150 133 175 64 q 125 292 125 203 l 125 992 l 250 992 l 250 300 q 279 153 250 208 q 388 97 308 97 q 465 125 438 97 q 505 200 493 153 q 517 303 517 247 l 517 992 l 642 992 l 642 435 q 655 329 642 374 q 698 260 668 285 q 778 236 728 236 q 858 263 829 236 q 897 335 886 290 q 908 433 908 379 l 908 992 l 1033 992 l 1033 429 q 1019 315 1033 369 q 974 217 1004 260 q 894 150 943 175 q 775 125 844 125 q 685 140 725 125 q 615 183 644 156 q 569 79 600 124 q 491 10 539 35 q 376 -14 443 -14 z "},"ሡ":{"ha":1335,"x_min":125,"x_max":1314,"o":"m 1281 390 q 1206 428 1238 390 q 1164 504 1175 465 l 969 504 l 969 606 l 1164 606 q 1206 681 1175 644 q 1281 718 1238 718 l 1314 718 l 1278 554 l 1314 390 l 1281 390 m 376 -14 q 231 25 286 -14 q 150 133 175 64 q 125 292 125 203 l 125 992 l 250 992 l 250 300 q 279 153 250 208 q 388 97 308 97 q 465 125 438 97 q 505 200 493 153 q 517 303 517 247 l 517 992 l 642 992 l 642 435 q 655 329 642 374 q 698 260 668 285 q 778 236 728 236 q 858 263 829 236 q 897 335 886 290 q 908 433 908 379 l 908 992 l 1033 992 l 1033 429 q 1019 315 1033 369 q 974 217 1004 260 q 894 150 943 175 q 775 125 844 125 q 685 140 725 125 q 615 183 644 156 q 569 79 600 124 q 491 10 539 35 q 376 -14 443 -14 z "},"ሢ":{"ha":1176,"x_min":125,"x_max":1156,"o":"m 638 0 l 638 88 l 833 561 l 1010 674 l 731 0 l 638 0 m 708 0 l 708 101 l 851 101 l 851 0 l 708 0 m 376 375 q 231 414 286 375 q 150 522 175 453 q 125 681 125 592 l 125 992 l 250 992 l 250 689 q 279 542 250 597 q 388 486 308 486 q 465 514 438 486 q 505 589 493 542 q 517 692 517 636 l 517 992 l 642 992 l 642 824 q 672 678 642 732 q 778 625 701 625 q 858 652 829 625 q 897 724 886 679 q 908 822 908 768 l 908 992 l 1033 992 l 1033 818 q 1019 703 1033 758 q 974 606 1004 649 q 894 539 943 564 q 775 514 844 514 q 685 529 725 514 q 615 572 644 544 q 569 468 600 513 q 491 399 539 424 q 376 375 443 375 m 1122 -114 q 1048 -76 1079 -114 q 1006 0 1017 -39 l 811 0 l 811 101 l 1006 101 q 1048 177 1017 140 q 1122 214 1079 214 l 1156 214 l 1119 50 l 1156 -114 l 1122 -114 z "},"ሣ":{"ha":1158,"x_min":125,"x_max":1033,"o":"m 615 0 l 885 674 l 1010 674 l 744 0 l 615 0 m 376 375 q 231 414 286 375 q 150 522 175 453 q 125 681 125 592 l 125 992 l 250 992 l 250 689 q 279 542 250 597 q 388 486 308 486 q 465 514 438 486 q 505 589 493 542 q 517 692 517 636 l 517 992 l 642 992 l 642 824 q 672 678 642 732 q 778 625 701 625 q 858 652 829 625 q 897 724 886 679 q 908 822 908 768 l 908 992 l 1033 992 l 1033 818 q 1019 703 1033 758 q 974 606 1004 649 q 894 539 943 564 q 775 514 844 514 q 685 529 725 514 q 615 572 644 544 q 569 468 600 513 q 491 399 539 424 q 376 375 443 375 z "},"ሤ":{"ha":1190,"x_min":125,"x_max":1165,"o":"m 639 0 l 639 88 l 838 553 l 1010 674 l 740 0 l 639 0 m 756 92 l 913 92 q 1014 119 986 92 q 1042 190 1042 147 q 1017 251 1042 229 q 938 272 993 272 l 810 272 l 756 92 m 656 0 l 772 367 l 960 367 q 1114 322 1063 367 q 1165 194 1165 276 q 1102 54 1165 108 q 908 0 1039 0 l 656 0 m 376 375 q 231 414 286 375 q 150 522 175 453 q 125 681 125 592 l 125 992 l 250 992 l 250 689 q 279 542 250 597 q 388 486 308 486 q 465 514 438 486 q 505 589 493 542 q 517 692 517 636 l 517 992 l 642 992 l 642 824 q 672 678 642 732 q 778 625 701 625 q 858 652 829 625 q 897 724 886 679 q 908 822 908 768 l 908 992 l 1033 992 l 1033 818 q 1019 703 1033 758 q 974 606 1004 649 q 894 539 943 564 q 775 514 844 514 q 685 529 725 514 q 615 572 644 544 q 569 468 600 513 q 491 399 539 424 q 376 375 443 375 z "},"ሥ":{"ha":1299,"x_min":56,"x_max":1174,"o":"m 56 0 l 304 619 l 369 472 l 185 0 l 56 0 m 517 375 q 371 414 426 375 q 290 522 315 453 q 265 681 265 592 l 265 992 l 390 992 l 390 689 q 419 542 390 597 q 528 486 449 486 q 606 514 578 486 q 645 589 633 542 q 657 692 657 636 l 657 992 l 782 992 l 782 824 q 812 678 782 732 q 918 625 842 625 q 998 652 969 625 q 1038 724 1026 679 q 1049 822 1049 768 l 1049 992 l 1174 992 l 1174 818 q 1159 703 1174 758 q 1114 606 1144 649 q 1034 539 1083 564 q 915 514 985 514 q 825 529 865 514 q 756 572 785 544 q 710 468 740 513 q 631 399 679 424 q 517 375 583 375 z "},"ሦ":{"ha":1158,"x_min":125,"x_max":1033,"o":"m 260 0 l 472 511 l 633 603 l 389 0 l 260 0 m 376 375 q 231 414 286 375 q 150 522 175 453 q 125 681 125 592 l 125 992 l 250 992 l 250 689 q 279 542 250 597 q 388 486 308 486 q 465 514 438 486 q 505 589 493 542 q 517 692 517 636 l 517 992 l 642 992 l 642 824 q 672 678 642 732 q 778 625 701 625 q 858 652 829 625 q 897 724 886 679 q 908 822 908 768 l 908 992 l 1033 992 l 1033 818 q 1019 703 1033 758 q 974 606 1004 649 q 894 539 943 564 q 775 514 844 514 q 685 529 725 514 q 615 572 644 544 q 569 468 600 513 q 491 399 539 424 q 376 375 443 375 z "},"ሧ":{"ha":1158,"x_min":125,"x_max":1033,"o":"m 325 -114 l 372 101 l 967 101 l 1014 -114 l 986 -114 q 912 -83 944 -114 q 864 0 879 -51 l 475 0 q 428 -83 461 -51 q 353 -114 394 -114 l 325 -114 m 615 0 l 885 674 l 1010 674 l 744 0 l 615 0 m 376 375 q 231 414 286 375 q 150 522 175 453 q 125 681 125 592 l 125 992 l 250 992 l 250 689 q 279 542 250 597 q 388 486 308 486 q 465 514 438 486 q 505 589 493 542 q 517 692 517 636 l 517 992 l 642 992 l 642 824 q 672 678 642 732 q 778 625 701 625 q 858 652 829 625 q 897 724 886 679 q 908 822 908 768 l 908 992 l 1033 992 l 1033 818 q 1019 703 1033 758 q 974 606 1004 649 q 894 539 943 564 q 775 514 844 514 q 685 529 725 514 q 615 572 644 544 q 569 468 600 513 q 491 399 539 424 q 376 375 443 375 z "},"ረ":{"ha":744,"x_min":69,"x_max":724,"o":"m 389 0 q 148 72 226 0 q 69 268 69 143 q 87 381 69 331 q 138 476 104 431 q 224 572 172 522 q 344 686 276 622 q 415 761 386 725 q 463 833 444 797 q 489 908 481 869 q 497 992 497 947 l 624 992 q 597 840 624 908 q 524 713 571 771 q 414 597 476 654 q 290 474 336 526 q 222 376 243 422 q 201 275 201 331 q 218 187 201 226 q 276 124 235 147 q 389 101 317 101 l 389 0 m 690 -114 q 616 -76 647 -114 q 574 0 585 -39 l 379 0 l 379 101 l 574 101 q 616 177 585 140 q 690 214 647 214 l 724 214 l 688 50 l 724 -114 l 690 -114 z "},"ሩ":{"ha":854,"x_min":69,"x_max":833,"o":"m 440 0 l 440 261 l 319 261 q 174 287 229 261 q 94 358 119 313 q 69 465 69 404 q 94 572 69 526 q 168 657 118 618 q 292 735 218 696 q 390 794 350 765 q 452 852 429 822 q 485 916 475 882 q 496 992 496 950 l 624 992 q 597 854 624 914 q 514 747 569 794 q 374 654 458 700 q 272 595 311 621 q 215 542 233 569 q 196 476 196 515 q 228 390 196 417 q 333 363 261 363 l 651 363 l 711 261 l 567 261 l 567 0 l 440 0 m 806 147 q 731 178 764 147 q 683 261 699 210 l 489 261 l 489 363 l 786 363 l 833 147 l 806 147 z "},"ሪ":{"ha":797,"x_min":69,"x_max":728,"o":"m 389 0 l 389 101 q 550 161 500 101 q 600 336 600 221 l 600 369 l 728 369 l 728 335 q 647 90 728 179 q 389 0 567 0 m 389 0 q 148 72 226 0 q 69 268 69 143 q 87 381 69 331 q 138 476 104 431 q 224 572 172 522 q 344 686 276 622 q 415 761 386 725 q 463 833 444 797 q 489 908 481 869 q 497 992 497 947 l 624 992 q 597 840 624 908 q 524 713 571 771 q 414 597 476 654 q 290 474 336 526 q 222 376 243 422 q 201 275 201 331 q 218 187 201 226 q 276 124 235 147 q 389 101 317 101 l 389 0 z "},"ራ":{"ha":922,"x_min":69,"x_max":901,"o":"m 389 0 l 389 101 l 400 101 q 432 244 408 182 q 497 347 456 306 q 597 410 538 389 q 736 432 656 432 l 854 432 l 901 217 l 876 217 q 798 248 829 217 q 751 331 767 279 q 622 299 671 331 q 549 196 574 268 q 519 0 525 124 l 389 0 m 389 0 q 148 72 226 0 q 69 268 69 143 q 87 381 69 331 q 138 476 104 431 q 224 572 172 522 q 344 686 276 622 q 415 761 386 725 q 463 833 444 797 q 489 908 481 869 q 497 992 497 947 l 624 992 q 597 840 624 908 q 524 713 571 771 q 414 597 476 654 q 290 474 336 526 q 222 376 243 422 q 201 275 201 331 q 218 187 201 226 q 276 124 235 147 q 389 101 317 101 l 389 0 z "},"ሬ":{"ha":846,"x_min":69,"x_max":811,"o":"m 389 0 l 389 101 l 478 101 l 606 56 l 606 0 l 389 0 m 389 0 q 148 72 226 0 q 69 268 69 143 q 87 381 69 331 q 138 476 104 431 q 224 572 172 522 q 344 686 276 622 q 415 761 386 725 q 463 833 444 797 q 489 908 481 869 q 497 992 497 947 l 624 992 q 597 840 624 908 q 524 713 571 771 q 414 597 476 654 q 290 474 336 526 q 222 376 243 422 q 201 275 201 331 q 218 187 201 226 q 276 124 235 147 q 389 101 317 101 l 389 0 m 585 0 q 410 52 463 0 q 358 181 358 104 q 416 314 358 261 q 585 367 474 367 q 756 317 700 367 q 811 185 811 267 q 753 54 811 108 q 585 0 696 0 m 585 93 q 663 117 638 93 q 688 183 688 140 q 662 249 688 225 q 585 272 636 272 q 508 249 533 272 q 482 183 482 225 q 508 117 482 140 q 585 93 533 93 z "},"ር":{"ha":708,"x_min":97,"x_max":688,"o":"m 647 -114 q 568 -76 599 -114 q 526 0 538 -39 l 438 0 q 240 33 315 0 q 131 136 165 67 q 97 313 97 206 l 97 435 q 121 684 97 579 q 195 857 144 789 q 324 958 246 925 q 510 992 401 992 l 640 992 l 688 776 l 660 776 q 581 812 613 776 q 538 890 550 847 l 503 890 q 351 850 414 890 q 256 708 289 810 q 224 422 224 607 l 224 319 q 245 194 224 243 q 315 124 267 146 q 442 101 363 101 l 526 101 q 569 177 538 140 q 647 214 600 214 l 676 214 l 640 50 l 676 -114 l 647 -114 z "},"ሮ":{"ha":843,"x_min":97,"x_max":808,"o":"m 647 -114 q 568 -76 599 -114 q 526 0 538 -39 l 438 0 q 240 33 315 0 q 131 136 165 67 q 97 313 97 206 l 97 435 q 121 684 97 579 q 195 857 144 789 q 324 958 246 925 q 510 992 401 992 l 585 992 l 503 890 q 351 850 414 890 q 256 708 289 810 q 224 422 224 607 l 224 319 q 245 194 224 243 q 315 124 267 146 q 442 101 363 101 l 526 101 q 569 177 538 140 q 647 214 600 214 l 676 214 l 640 50 l 676 -114 l 647 -114 m 582 625 q 408 677 460 625 q 356 806 356 729 q 413 939 356 886 q 582 992 471 992 q 753 942 697 992 q 808 810 808 892 q 751 679 808 733 q 582 625 693 625 m 582 718 q 660 742 635 718 q 685 808 685 765 q 659 874 685 850 q 582 897 633 897 q 505 874 531 897 q 479 808 479 850 q 505 742 479 765 q 582 718 531 718 z "},"ሯ":{"ha":922,"x_min":69,"x_max":901,"o":"m 882 1107 l 835 892 l 240 892 l 193 1107 l 221 1107 q 296 1076 263 1107 q 343 993 329 1046 l 732 993 q 780 1076 747 1046 q 854 1107 813 1107 l 882 1107 m 389 0 l 389 101 l 400 101 q 432 244 408 182 q 497 347 456 306 q 597 410 538 389 q 736 432 656 432 l 854 432 l 901 217 l 876 217 q 798 248 829 217 q 751 331 767 279 q 622 299 671 331 q 549 196 574 268 q 519 0 525 124 l 389 0 m 389 0 q 148 72 226 0 q 69 268 69 143 q 87 381 69 331 q 138 476 104 431 q 224 572 172 522 q 344 686 276 622 q 415 761 386 725 q 463 833 444 797 q 489 908 481 869 q 497 992 497 947 l 624 992 q 597 840 624 908 q 524 713 571 771 q 414 597 476 654 q 290 474 336 526 q 222 376 243 422 q 201 275 201 331 q 218 187 201 226 q 276 124 235 147 q 389 101 317 101 l 389 0 z "},"ሰ":{"ha":858,"x_min":125,"x_max":733,"o":"m 367 831 l 367 1056 l 493 1056 l 493 831 l 367 831 m 125 0 l 125 501 q 158 685 125 607 q 260 808 192 764 q 432 851 328 851 q 663 760 592 851 q 733 499 733 669 l 733 0 l 607 0 l 607 492 q 567 676 607 611 q 432 740 526 740 q 290 672 328 740 q 251 490 251 604 l 251 0 l 125 0 z "},"ሱ":{"ha":994,"x_min":125,"x_max":974,"o":"m 940 265 q 866 303 897 265 q 824 379 835 340 l 629 379 l 629 481 l 824 481 q 866 556 835 519 q 940 593 897 593 l 974 593 l 938 429 l 974 265 l 940 265 m 367 831 l 367 1056 l 493 1056 l 493 831 l 367 831 m 125 0 l 125 501 q 158 685 125 607 q 260 808 192 764 q 432 851 328 851 q 663 760 592 851 q 733 499 733 669 l 733 0 l 607 0 l 607 492 q 567 676 607 611 q 432 740 526 740 q 290 672 328 740 q 251 490 251 604 l 251 0 l 125 0 z "},"ሲ":{"ha":1033,"x_min":125,"x_max":1013,"o":"m 979 -114 q 905 -76 936 -114 q 863 0 874 -39 l 668 0 l 668 101 l 863 101 q 905 177 874 140 q 979 214 936 214 l 1013 214 l 976 50 l 1013 -114 l 979 -114 m 367 831 l 367 1056 l 493 1056 l 493 831 l 367 831 m 125 0 l 125 501 q 158 685 125 607 q 260 808 192 764 q 432 851 328 851 q 663 760 592 851 q 733 499 733 669 l 733 0 l 607 0 l 607 492 q 567 676 607 611 q 432 740 526 740 q 290 672 328 740 q 251 490 251 604 l 251 0 l 125 0 z "},"ሳ":{"ha":858,"x_min":125,"x_max":733,"o":"m 371 831 l 371 1056 l 497 1056 l 497 831 l 371 831 m 607 0 l 607 492 q 567 676 607 611 q 432 740 526 740 q 290 672 328 740 q 251 490 251 604 l 251 333 l 125 333 l 125 501 q 158 685 125 607 q 260 808 192 764 q 432 851 328 851 q 605 810 539 851 q 702 689 671 768 q 733 499 733 610 l 733 0 l 607 0 z "},"ሴ":{"ha":1075,"x_min":125,"x_max":1050,"o":"m 607 0 l 607 367 l 844 367 q 999 320 947 367 q 1050 183 1050 274 q 994 53 1050 106 q 807 0 938 0 l 607 0 m 733 92 l 797 92 q 899 116 871 92 q 926 183 926 140 q 902 250 926 228 q 822 272 878 272 l 733 272 l 733 92 m 367 831 l 367 1056 l 493 1056 l 493 831 l 367 831 m 125 0 l 125 501 q 158 685 125 607 q 260 808 192 764 q 432 851 328 851 q 663 760 592 851 q 733 499 733 669 l 733 0 l 607 0 l 607 492 q 567 676 607 611 q 432 740 526 740 q 290 672 328 740 q 251 490 251 604 l 251 0 l 125 0 z "},"ስ":{"ha":858,"x_min":125,"x_max":733,"o":"m 365 831 l 254 1056 l 389 1056 l 500 831 l 365 831 m 125 0 l 125 501 q 158 685 125 607 q 260 808 192 764 q 432 851 328 851 q 663 760 592 851 q 733 499 733 669 l 733 0 l 607 0 l 607 492 q 567 676 607 611 q 432 740 526 740 q 290 672 328 740 q 251 490 251 604 l 251 0 l 125 0 z "},"ሶ":{"ha":858,"x_min":125,"x_max":733,"o":"m 488 831 l 361 831 l 361 1056 l 488 1056 l 488 831 m 251 0 l 125 0 l 125 499 q 156 689 125 610 q 254 810 188 768 q 426 851 321 851 q 599 808 532 851 q 700 685 667 764 q 733 501 733 607 l 733 333 l 607 333 l 607 490 q 569 672 607 604 q 426 740 531 740 q 292 676 332 740 q 251 492 251 611 l 251 0 z "},"ሷ":{"ha":968,"x_min":21,"x_max":947,"o":"m 21 -114 l 68 101 l 900 101 l 947 -114 l 919 -114 q 845 -83 878 -114 q 797 0 813 -51 l 171 0 q 124 -83 157 -51 q 49 -114 90 -114 l 21 -114 m 371 831 l 371 1056 l 497 1056 l 497 831 l 371 831 m 607 0 l 607 492 q 567 676 607 611 q 432 740 526 740 q 290 672 328 740 q 251 490 251 604 l 251 333 l 125 333 l 125 501 q 158 685 125 607 q 260 808 192 764 q 432 851 328 851 q 605 810 539 851 q 702 689 671 768 q 733 499 733 610 l 733 0 l 607 0 z "},"ሸ":{"ha":858,"x_min":61,"x_max":796,"o":"m 61 858 l 97 1022 l 61 1186 l 94 1186 q 170 1149 139 1186 q 211 1074 201 1113 l 646 1074 q 688 1149 657 1113 q 763 1186 719 1186 l 796 1186 l 760 1022 l 796 858 l 763 858 q 688 896 719 858 q 646 972 657 933 l 211 972 q 170 896 201 933 q 94 858 139 858 l 61 858 m 367 831 l 367 1056 l 493 1056 l 493 831 l 367 831 m 125 0 l 125 501 q 158 685 125 607 q 260 808 192 764 q 432 851 328 851 q 663 760 592 851 q 733 499 733 669 l 733 0 l 607 0 l 607 492 q 567 676 607 611 q 432 740 526 740 q 290 672 328 740 q 251 490 251 604 l 251 0 l 125 0 z "},"ሹ":{"ha":1032,"x_min":61,"x_max":1011,"o":"m 978 236 q 903 274 935 236 q 861 350 872 311 l 667 350 l 667 451 l 861 451 q 903 527 872 490 q 978 564 935 564 l 1011 564 l 975 400 l 1011 236 l 978 236 m 367 831 l 367 1056 l 493 1056 l 493 831 l 367 831 m 125 0 l 125 501 q 158 685 125 607 q 260 808 192 764 q 432 851 328 851 q 663 760 592 851 q 733 499 733 669 l 733 0 l 607 0 l 607 492 q 567 676 607 611 q 432 740 526 740 q 290 672 328 740 q 251 490 251 604 l 251 0 l 125 0 m 61 858 l 97 1022 l 61 1186 l 94 1186 q 170 1149 139 1186 q 211 1074 201 1113 l 646 1074 q 688 1149 657 1113 q 763 1186 719 1186 l 796 1186 l 760 1022 l 796 858 l 763 858 q 688 896 719 858 q 646 972 657 933 l 211 972 q 170 896 201 933 q 94 858 139 858 l 61 858 z "},"ሺ":{"ha":1022,"x_min":61,"x_max":1001,"o":"m 968 -114 q 894 -76 925 -114 q 851 0 863 -39 l 657 0 l 657 101 l 851 101 q 894 177 863 140 q 968 214 925 214 l 1001 214 l 965 50 l 1001 -114 l 968 -114 m 367 831 l 367 1056 l 493 1056 l 493 831 l 367 831 m 125 0 l 125 501 q 158 685 125 607 q 260 808 192 764 q 432 851 328 851 q 663 760 592 851 q 733 499 733 669 l 733 0 l 607 0 l 607 492 q 567 676 607 611 q 432 740 526 740 q 290 672 328 740 q 251 490 251 604 l 251 0 l 125 0 m 61 858 l 97 1022 l 61 1186 l 94 1186 q 170 1149 139 1186 q 211 1074 201 1113 l 646 1074 q 688 1149 657 1113 q 763 1186 719 1186 l 796 1186 l 760 1022 l 796 858 l 763 858 q 688 896 719 858 q 646 972 657 933 l 211 972 q 170 896 201 933 q 94 858 139 858 l 61 858 z "},"ሻ":{"ha":858,"x_min":61,"x_max":796,"o":"m 61 858 l 97 1022 l 61 1186 l 94 1186 q 170 1149 139 1186 q 211 1074 201 1113 l 646 1074 q 688 1149 657 1113 q 763 1186 719 1186 l 796 1186 l 760 1022 l 796 858 l 763 858 q 688 896 719 858 q 646 972 657 933 l 211 972 q 170 896 201 933 q 94 858 139 858 l 61 858 m 371 831 l 371 1056 l 497 1056 l 497 831 l 371 831 m 607 0 l 607 492 q 567 676 607 611 q 432 740 526 740 q 290 672 328 740 q 251 490 251 604 l 251 333 l 125 333 l 125 501 q 158 685 125 607 q 260 808 192 764 q 432 851 328 851 q 605 810 539 851 q 702 689 671 768 q 733 499 733 610 l 733 0 l 607 0 z "},"ሼ":{"ha":1075,"x_min":61,"x_max":1050,"o":"m 607 0 l 607 367 l 844 367 q 999 320 947 367 q 1050 183 1050 274 q 994 53 1050 106 q 807 0 938 0 l 607 0 m 733 92 l 797 92 q 899 116 871 92 q 926 183 926 140 q 902 250 926 228 q 822 272 878 272 l 733 272 l 733 92 m 367 831 l 367 1056 l 493 1056 l 493 831 l 367 831 m 125 0 l 125 501 q 158 685 125 607 q 260 808 192 764 q 432 851 328 851 q 663 760 592 851 q 733 499 733 669 l 733 0 l 607 0 l 607 492 q 567 676 607 611 q 432 740 526 740 q 290 672 328 740 q 251 490 251 604 l 251 0 l 125 0 m 61 858 l 97 1022 l 61 1186 l 94 1186 q 170 1149 139 1186 q 211 1074 201 1113 l 646 1074 q 688 1149 657 1113 q 763 1186 719 1186 l 796 1186 l 760 1022 l 796 858 l 763 858 q 688 896 719 858 q 646 972 657 933 l 211 972 q 170 896 201 933 q 94 858 139 858 l 61 858 z "},"ሽ":{"ha":881,"x_min":21,"x_max":756,"o":"m 21 858 l 57 1022 l 21 1186 l 54 1186 q 130 1149 99 1186 q 171 1074 161 1113 l 606 1074 q 648 1149 617 1113 q 722 1186 679 1186 l 756 1186 l 719 1022 l 756 858 l 722 858 q 648 896 679 858 q 606 972 617 933 l 171 972 q 130 896 161 933 q 54 858 99 858 l 21 858 m 365 831 l 254 1056 l 389 1056 l 500 831 l 365 831 m 125 0 l 125 501 q 158 685 125 607 q 260 808 192 764 q 432 851 328 851 q 663 760 592 851 q 733 499 733 669 l 733 0 l 607 0 l 607 492 q 567 676 607 611 q 432 740 526 740 q 290 672 328 740 q 251 490 251 604 l 251 0 l 125 0 z "},"ሿ":{"ha":968,"x_min":21,"x_max":947,"o":"m 65 858 l 101 1022 l 65 1186 l 99 1186 q 174 1149 143 1186 q 215 1074 206 1113 l 650 1074 q 692 1149 661 1113 q 767 1186 724 1186 l 800 1186 l 764 1022 l 800 858 l 767 858 q 692 896 724 858 q 650 972 661 933 l 215 972 q 174 896 206 933 q 99 858 143 858 l 65 858 m 371 831 l 371 1056 l 497 1056 l 497 831 l 371 831 m 607 0 l 607 492 q 567 676 607 611 q 432 740 526 740 q 290 672 328 740 q 251 490 251 604 l 251 333 l 125 333 l 125 501 q 158 685 125 607 q 260 808 192 764 q 432 851 328 851 q 605 810 539 851 q 702 689 671 768 q 733 499 733 610 l 733 0 l 607 0 m 21 -114 l 68 101 l 900 101 l 947 -114 l 919 -114 q 845 -83 878 -114 q 797 0 813 -51 l 171 0 q 124 -83 157 -51 q 49 -114 90 -114 l 21 -114 z "},"ቀ":{"ha":904,"x_min":56,"x_max":849,"o":"m 418 315 q 239 336 310 315 q 128 392 168 357 q 72 469 88 426 q 56 556 56 513 q 85 672 56 618 q 194 760 115 726 q 418 793 274 793 l 486 793 q 709 760 631 793 q 818 672 788 726 q 849 556 849 618 q 832 472 849 514 q 776 394 815 429 q 665 337 736 358 q 486 315 594 315 l 418 315 m 418 419 l 486 419 q 633 438 582 419 q 703 487 683 456 q 722 556 722 518 q 704 622 722 592 q 635 670 686 651 q 486 689 585 689 l 418 689 q 266 670 317 689 q 199 621 215 651 q 182 556 182 590 q 201 485 182 517 q 271 437 219 454 q 418 419 322 419 m 389 0 l 389 992 l 515 992 l 515 0 l 389 0 z "},"ቁ":{"ha":904,"x_min":56,"x_max":849,"o":"m 418 364 q 239 385 310 364 q 128 440 168 406 q 72 518 88 475 q 56 604 56 561 q 85 721 56 667 q 194 808 115 775 q 418 842 274 842 l 486 842 q 709 808 631 842 q 818 721 788 775 q 849 604 849 667 q 832 520 849 563 q 776 442 815 478 q 665 385 736 407 q 486 364 594 364 l 418 364 m 418 468 l 486 468 q 633 486 582 468 q 703 535 683 504 q 722 604 722 567 q 704 670 722 640 q 635 719 686 700 q 486 738 585 738 l 418 738 q 266 719 317 738 q 199 669 215 700 q 182 604 182 639 q 201 534 182 565 q 271 485 219 503 q 418 468 322 468 m 389 0 l 389 992 l 515 992 l 515 0 l 389 0 m 742 29 q 667 67 699 29 q 625 143 636 104 l 431 143 l 431 244 l 625 244 q 667 320 636 283 q 742 357 699 357 l 775 357 l 739 193 l 775 29 l 742 29 z "},"ቂ":{"ha":904,"x_min":56,"x_max":849,"o":"m 772 -114 q 698 -76 729 -114 q 656 0 667 -39 l 461 0 l 461 101 l 656 101 q 698 177 667 140 q 772 214 729 214 l 806 214 l 769 50 l 806 -114 l 772 -114 m 418 317 q 239 338 310 317 q 128 393 168 358 q 72 471 88 428 q 56 557 56 514 q 85 674 56 619 q 194 761 115 728 q 418 794 274 794 l 486 794 q 709 761 631 794 q 818 674 788 728 q 849 557 849 619 q 832 473 849 515 q 776 395 815 431 q 665 338 736 360 q 486 317 594 317 l 418 317 m 418 421 l 486 421 q 633 439 582 421 q 703 488 683 457 q 722 557 722 519 q 704 623 722 593 q 635 672 686 653 q 486 690 585 690 l 418 690 q 266 672 317 690 q 199 622 215 653 q 182 557 182 592 q 201 487 182 518 q 271 438 219 456 q 418 421 322 421 m 389 0 l 389 992 l 515 992 l 515 0 l 389 0 z "},"ቃ":{"ha":889,"x_min":21,"x_max":833,"o":"m 21 -114 l 68 101 l 185 101 q 301 122 258 101 q 361 190 343 142 q 379 321 379 239 l 379 992 l 506 992 l 506 311 q 473 142 506 211 q 374 36 440 72 q 207 0 308 0 l 171 0 q 125 -81 158 -49 q 49 -114 92 -114 l 21 -114 m 403 315 q 224 336 294 315 q 113 392 153 357 q 56 469 72 426 q 40 556 40 513 q 70 672 40 618 q 179 760 100 726 q 403 793 258 793 l 471 793 q 694 760 615 793 q 803 672 772 726 q 833 556 833 618 q 817 472 833 514 q 760 394 800 429 q 650 337 721 358 q 471 315 579 315 l 403 315 m 403 419 l 471 419 q 617 438 567 419 q 688 487 668 456 q 707 556 707 518 q 689 622 707 592 q 620 670 671 651 q 471 689 569 689 l 403 689 q 251 670 301 689 q 183 621 200 651 q 167 556 167 590 q 185 485 167 517 q 256 437 204 454 q 403 419 307 419 z "},"ቄ":{"ha":904,"x_min":56,"x_max":849,"o":"m 422 408 q 240 427 311 408 q 128 477 168 446 q 72 547 88 508 q 56 628 56 586 q 72 708 56 669 q 128 779 88 747 q 240 829 168 811 q 422 847 311 847 l 482 847 q 708 817 629 847 q 818 736 788 786 q 849 628 849 686 q 833 550 849 589 q 776 479 817 511 q 664 428 735 447 q 482 408 593 408 l 422 408 m 422 513 l 482 513 q 630 527 578 513 q 702 567 682 542 q 722 628 722 593 q 703 685 722 660 q 632 727 683 711 q 482 743 581 743 l 422 743 q 269 727 321 743 q 200 685 218 711 q 182 628 182 660 q 202 566 182 592 q 274 526 222 540 q 422 513 326 513 m 393 0 l 393 992 l 519 992 l 519 0 l 393 0 m 393 0 l 393 321 l 614 321 q 768 281 717 321 q 819 171 819 242 q 756 47 819 94 q 563 0 693 0 l 393 0 m 519 92 l 567 92 q 668 113 640 92 q 696 167 696 133 q 672 213 696 196 q 592 229 647 229 l 519 229 l 519 92 z "},"ቅ":{"ha":904,"x_min":56,"x_max":849,"o":"m 389 951 l 389 1074 l 515 1074 l 515 951 l 389 951 m 93 1188 l 121 1188 q 196 1157 163 1188 q 243 1074 229 1126 l 438 1074 l 438 972 l 140 972 l 93 1188 m 418 315 q 239 336 310 315 q 128 392 168 357 q 72 469 88 426 q 56 556 56 513 q 85 672 56 618 q 194 760 115 726 q 418 793 274 793 l 486 793 q 709 760 631 793 q 818 672 788 726 q 849 556 849 618 q 832 472 849 514 q 776 394 815 429 q 665 337 736 358 q 486 315 594 315 l 418 315 m 418 419 l 486 419 q 633 438 582 419 q 703 487 683 456 q 722 556 722 518 q 704 622 722 592 q 635 670 686 651 q 486 689 585 689 l 418 689 q 266 670 317 689 q 199 621 215 651 q 182 556 182 590 q 201 485 182 517 q 271 437 219 454 q 418 419 322 419 m 389 0 l 389 992 l 515 992 l 515 0 l 389 0 z "},"ቆ":{"ha":904,"x_min":56,"x_max":849,"o":"m 389 0 l 389 638 q 395 680 389 660 q 414 718 401 700 q 342 746 378 725 q 283 803 307 767 q 260 893 260 840 q 314 1026 260 978 q 454 1074 368 1074 q 595 1028 544 1074 q 646 908 646 982 q 629 822 646 858 q 589 760 613 786 q 544 713 565 735 q 523 681 531 699 q 515 640 515 663 l 515 0 l 389 0 m 474 797 q 512 851 501 824 q 522 904 522 878 q 505 959 522 939 q 453 979 488 979 q 403 957 424 979 q 383 900 383 935 q 404 839 383 865 q 474 797 425 813 m 418 146 q 239 167 310 146 q 128 222 168 188 q 72 300 88 257 q 56 386 56 343 q 85 503 56 449 q 194 590 115 557 q 418 624 274 624 l 486 624 q 709 590 631 624 q 818 503 788 557 q 849 386 849 449 q 832 302 849 344 q 776 224 815 260 q 665 167 736 189 q 486 146 594 146 l 418 146 m 418 250 l 486 250 q 633 268 582 250 q 703 317 683 286 q 722 386 722 349 q 704 452 722 422 q 635 501 686 482 q 486 519 585 519 l 418 519 q 266 501 317 519 q 199 451 215 482 q 182 386 182 421 q 201 316 182 347 q 271 267 219 285 q 418 250 322 250 z "},"ቇ":{"ha":904,"x_min":56,"x_max":849,"o":"m 388 0 l 388 671 q 392 714 388 694 q 410 751 397 733 q 331 779 365 760 q 277 831 296 799 q 258 907 258 863 q 313 1026 258 983 q 453 1069 367 1069 q 594 1028 543 1069 q 646 915 646 986 q 633 843 646 872 q 598 792 621 814 q 543 747 575 771 q 520 722 526 735 q 514 674 514 710 l 514 0 l 388 0 m 472 832 q 511 869 500 851 q 522 908 522 888 q 503 958 522 940 q 451 975 483 975 q 401 958 421 975 q 382 907 382 940 q 403 857 382 876 q 472 832 424 838 m 422 224 q 240 242 311 224 q 128 292 168 261 q 72 363 88 324 q 56 443 56 401 q 72 524 56 485 q 128 594 88 563 q 240 644 168 626 q 422 663 311 663 l 482 663 q 708 632 629 663 q 818 551 788 601 q 849 443 849 501 q 833 365 849 404 q 776 294 817 326 q 664 243 735 263 q 482 224 593 224 l 422 224 m 422 328 l 482 328 q 630 342 578 328 q 702 383 682 357 q 722 443 722 408 q 703 501 722 475 q 632 542 683 526 q 482 558 581 558 l 422 558 q 269 542 321 558 q 200 501 218 526 q 182 443 182 475 q 202 381 182 407 q 274 342 222 356 q 422 328 326 328 m 89 -114 l 125 50 l 89 214 l 122 214 q 198 177 167 214 q 239 101 229 140 l 433 101 l 433 0 l 239 0 q 198 -76 229 -39 q 122 -114 167 -114 l 89 -114 z "},"ቈ":{"ha":1083,"x_min":56,"x_max":1049,"o":"m 389 0 l 389 992 l 515 992 l 515 0 l 389 0 m 422 406 q 240 424 311 406 q 128 474 168 443 q 72 544 88 506 q 56 625 56 583 q 72 706 56 667 q 128 776 88 744 q 240 826 168 808 q 422 844 311 844 l 482 844 q 708 814 629 844 q 818 733 788 783 q 849 625 849 683 q 833 547 849 586 q 776 476 817 508 q 664 425 735 444 q 482 406 593 406 l 422 406 m 422 510 l 482 510 q 630 524 578 510 q 702 565 682 539 q 722 625 722 590 q 703 683 722 657 q 632 724 683 708 q 482 740 581 740 l 422 740 q 269 724 321 740 q 200 683 218 708 q 182 625 182 657 q 202 563 182 589 q 274 524 222 538 q 422 510 326 510 m 822 -14 q 648 38 700 -14 q 596 167 596 90 q 597 187 596 178 q 600 206 599 196 l 454 206 l 454 307 l 663 307 q 731 341 690 329 q 822 353 771 353 q 993 303 938 353 q 1049 171 1049 253 q 991 40 1049 94 q 822 -14 933 -14 m 822 79 q 900 103 875 79 q 925 169 925 126 q 899 235 925 211 q 822 258 874 258 q 745 235 771 258 q 719 169 719 211 q 745 103 719 126 q 822 79 771 79 z "},"ቊ":{"ha":1322,"x_min":56,"x_max":1301,"o":"m 1274 269 q 1199 301 1232 269 q 1151 383 1167 332 l 957 383 l 957 485 l 1254 485 l 1301 269 l 1274 269 m 758 493 l 758 594 l 1007 594 l 1007 493 l 758 493 m 957 383 l 957 715 l 1081 715 l 1081 383 l 957 383 m 418 315 q 239 336 310 315 q 128 392 168 357 q 72 469 88 426 q 56 556 56 513 q 85 672 56 618 q 194 760 115 726 q 418 793 274 793 l 486 793 q 709 760 631 793 q 818 672 788 726 q 849 556 849 618 q 832 472 849 514 q 776 394 815 429 q 665 337 736 358 q 486 315 594 315 l 418 315 m 418 419 l 486 419 q 633 438 582 419 q 703 487 683 456 q 722 556 722 518 q 704 622 722 592 q 635 670 686 651 q 486 689 585 689 l 418 689 q 266 670 317 689 q 199 621 215 651 q 182 556 182 590 q 201 485 182 517 q 271 437 219 454 q 418 419 322 419 m 389 0 l 389 992 l 515 992 l 515 0 l 389 0 z "},"ቋ":{"ha":904,"x_min":56,"x_max":849,"o":"m 306 175 l 306 276 l 800 276 l 800 175 l 306 175 m 676 0 l 676 276 l 800 276 l 800 0 l 676 0 m 418 381 q 239 401 310 381 q 128 457 168 422 q 72 535 88 492 q 56 621 56 578 q 85 738 56 683 q 194 825 115 792 q 418 858 274 858 l 486 858 q 709 825 631 858 q 818 738 788 792 q 849 621 849 683 q 832 537 849 579 q 776 459 815 494 q 665 402 736 424 q 486 381 594 381 l 418 381 m 418 485 l 486 485 q 633 503 582 485 q 703 552 683 521 q 722 621 722 583 q 704 687 722 657 q 635 735 686 717 q 486 754 585 754 l 418 754 q 266 735 317 754 q 199 686 215 717 q 182 621 182 656 q 201 551 182 582 q 271 502 219 519 q 418 485 322 485 m 65 61 l 113 276 l 410 276 l 410 175 l 215 175 q 168 92 201 124 q 93 61 135 61 l 65 61 m 389 213 l 389 990 l 515 990 l 515 213 l 389 213 z "},"ቌ":{"ha":904,"x_min":56,"x_max":849,"o":"m 422 408 q 240 427 311 408 q 128 477 168 446 q 72 547 88 508 q 56 628 56 586 q 72 708 56 669 q 128 779 88 747 q 240 829 168 811 q 422 847 311 847 l 482 847 q 708 817 629 847 q 818 736 788 786 q 849 628 849 686 q 833 550 849 589 q 776 479 817 511 q 664 428 735 447 q 482 408 593 408 l 422 408 m 422 513 l 482 513 q 630 527 578 513 q 702 567 682 542 q 722 628 722 593 q 703 685 722 660 q 632 727 683 711 q 482 743 581 743 l 422 743 q 269 727 321 743 q 200 685 218 711 q 182 628 182 660 q 202 566 182 592 q 274 526 222 540 q 422 513 326 513 m 389 0 l 389 992 l 515 992 l 515 0 l 389 0 m 389 0 l 389 321 l 610 321 q 764 281 713 321 q 815 171 815 242 q 752 47 815 94 q 558 0 689 0 l 389 0 m 515 92 l 563 92 q 664 113 636 92 q 692 167 692 133 q 667 213 692 196 q 588 229 643 229 l 515 229 l 515 92 m 69 -114 l 117 101 l 414 101 l 414 0 l 219 0 q 172 -83 206 -51 q 97 -114 139 -114 l 69 -114 z "},"ቍ":{"ha":1307,"x_min":56,"x_max":1286,"o":"m 964 503 l 964 825 l 1081 825 l 1081 503 l 964 503 m 758 503 l 758 604 l 1007 604 l 1007 503 l 758 503 m 1258 389 q 1184 420 1217 389 q 1136 503 1151 451 l 942 503 l 942 604 l 1239 604 l 1286 389 l 1258 389 m 418 315 q 239 336 310 315 q 128 392 168 357 q 72 469 88 426 q 56 556 56 513 q 85 672 56 618 q 194 760 115 726 q 418 793 274 793 l 486 793 q 709 760 631 793 q 818 672 788 726 q 849 556 849 618 q 832 472 849 514 q 776 394 815 429 q 665 337 736 358 q 486 315 594 315 l 418 315 m 418 419 l 486 419 q 633 438 582 419 q 703 487 683 456 q 722 556 722 518 q 704 622 722 592 q 635 670 686 651 q 486 689 585 689 l 418 689 q 266 670 317 689 q 199 621 215 651 q 182 556 182 590 q 201 485 182 517 q 271 437 219 454 q 418 419 322 419 m 389 0 l 389 992 l 515 992 l 515 0 l 389 0 z "},"ቐ":{"ha":904,"x_min":56,"x_max":849,"o":"m 389 967 l 389 1064 l 515 1064 l 515 967 l 389 967 m 85 858 l 121 1022 l 85 1186 l 118 1186 q 194 1149 163 1186 q 235 1074 225 1113 l 669 1074 q 712 1149 681 1113 q 786 1186 743 1186 l 819 1186 l 783 1022 l 819 858 l 786 858 q 712 896 743 858 q 669 972 681 933 l 235 972 q 194 896 225 933 q 118 858 163 858 l 85 858 m 418 315 q 239 336 310 315 q 128 392 168 357 q 72 469 88 426 q 56 556 56 513 q 85 672 56 618 q 194 760 115 726 q 418 793 274 793 l 486 793 q 709 760 631 793 q 818 672 788 726 q 849 556 849 618 q 832 472 849 514 q 776 394 815 429 q 665 337 736 358 q 486 315 594 315 l 418 315 m 418 419 l 486 419 q 633 438 582 419 q 703 487 683 456 q 722 556 722 518 q 704 622 722 592 q 635 670 686 651 q 486 689 585 689 l 418 689 q 266 670 317 689 q 199 621 215 651 q 182 556 182 590 q 201 485 182 517 q 271 437 219 454 q 418 419 322 419 m 389 0 l 389 992 l 515 992 l 515 0 l 389 0 z "},"ቑ":{"ha":904,"x_min":56,"x_max":849,"o":"m 389 939 l 389 1064 l 515 1064 l 515 939 l 389 939 m 75 858 l 111 1022 l 75 1186 l 108 1186 q 184 1149 153 1186 q 225 1074 215 1113 l 660 1074 q 702 1149 671 1113 q 776 1186 733 1186 l 810 1186 l 774 1022 l 810 858 l 776 858 q 702 896 733 858 q 660 972 671 933 l 225 972 q 184 896 215 933 q 108 858 153 858 l 75 858 m 418 364 q 239 385 310 364 q 128 440 168 406 q 72 518 88 475 q 56 604 56 561 q 85 721 56 667 q 194 808 115 775 q 418 842 274 842 l 486 842 q 709 808 631 842 q 818 721 788 775 q 849 604 849 667 q 832 520 849 563 q 776 442 815 478 q 665 385 736 407 q 486 364 594 364 l 418 364 m 418 468 l 486 468 q 633 486 582 468 q 703 535 683 504 q 722 604 722 567 q 704 670 722 640 q 635 719 686 700 q 486 738 585 738 l 418 738 q 266 719 317 738 q 199 669 215 700 q 182 604 182 639 q 201 534 182 565 q 271 485 219 503 q 418 468 322 468 m 389 0 l 389 992 l 515 992 l 515 0 l 389 0 m 742 29 q 667 67 699 29 q 625 143 636 104 l 431 143 l 431 244 l 625 244 q 667 320 636 283 q 742 357 699 357 l 775 357 l 739 193 l 775 29 l 742 29 z "},"ቒ":{"ha":904,"x_min":56,"x_max":849,"o":"m 779 -114 q 705 -76 736 -114 q 663 0 674 -39 l 468 0 l 468 101 l 663 101 q 705 177 674 140 q 779 214 736 214 l 813 214 l 776 50 l 813 -114 l 779 -114 m 418 315 q 239 336 310 315 q 128 392 168 357 q 72 469 88 426 q 56 556 56 513 q 85 672 56 618 q 194 760 115 726 q 418 793 274 793 l 486 793 q 709 760 631 793 q 818 672 788 726 q 849 556 849 618 q 832 472 849 514 q 776 394 815 429 q 665 337 736 358 q 486 315 594 315 l 418 315 m 418 419 l 486 419 q 633 438 582 419 q 703 487 683 456 q 722 556 722 518 q 704 622 722 592 q 635 670 686 651 q 486 689 585 689 l 418 689 q 266 670 317 689 q 199 621 215 651 q 182 556 182 590 q 201 485 182 517 q 271 437 219 454 q 418 419 322 419 m 389 0 l 389 992 l 515 992 l 515 0 l 389 0 m 389 967 l 389 1064 l 515 1064 l 515 967 l 389 967 m 85 858 l 121 1022 l 85 1186 l 118 1186 q 194 1149 163 1186 q 235 1074 225 1113 l 669 1074 q 712 1149 681 1113 q 786 1186 743 1186 l 819 1186 l 783 1022 l 819 858 l 786 858 q 712 896 743 858 q 669 972 681 933 l 235 972 q 194 896 225 933 q 118 858 163 858 l 85 858 z "},"ቓ":{"ha":924,"x_min":56,"x_max":868,"o":"m 414 939 l 414 1064 l 540 1064 l 540 939 l 414 939 m 103 858 l 139 1022 l 103 1186 l 136 1186 q 212 1149 181 1186 q 253 1074 243 1113 l 688 1074 q 730 1149 699 1113 q 804 1186 761 1186 l 838 1186 l 801 1022 l 838 858 l 804 858 q 730 896 761 858 q 688 972 699 933 l 253 972 q 212 896 243 933 q 136 858 181 858 l 103 858 m 56 -114 l 103 101 l 219 101 q 335 122 293 101 q 396 190 378 142 q 414 321 414 239 l 414 992 l 540 992 l 540 311 q 508 142 540 211 q 409 36 475 72 q 242 0 343 0 l 206 0 q 160 -81 193 -49 q 83 -114 126 -114 l 56 -114 m 438 315 q 258 336 329 315 q 147 392 188 357 q 91 469 107 426 q 75 556 75 513 q 105 672 75 618 q 214 760 135 726 q 438 793 293 793 l 506 793 q 728 760 650 793 q 838 672 807 726 q 868 556 868 618 q 851 472 868 514 q 795 394 835 429 q 685 337 756 358 q 506 315 614 315 l 438 315 m 438 419 l 506 419 q 652 438 601 419 q 722 487 703 456 q 742 556 742 518 q 724 622 742 592 q 655 670 706 651 q 506 689 604 689 l 438 689 q 285 670 336 689 q 218 621 235 651 q 201 556 201 590 q 220 485 201 517 q 290 437 239 454 q 438 419 342 419 z "},"ቔ":{"ha":904,"x_min":56,"x_max":849,"o":"m 393 967 l 393 1064 l 519 1064 l 519 967 l 393 967 m 83 890 l 119 1054 l 83 1218 l 117 1218 q 192 1181 161 1218 q 233 1106 224 1144 l 668 1106 q 710 1181 679 1144 q 785 1218 742 1218 l 818 1218 l 782 1054 l 818 890 l 785 890 q 710 928 742 890 q 668 1004 679 965 l 233 1004 q 192 928 224 965 q 117 890 161 890 l 83 890 m 422 408 q 240 427 311 408 q 128 477 168 446 q 72 547 88 508 q 56 628 56 586 q 72 708 56 669 q 128 779 88 747 q 240 829 168 811 q 422 847 311 847 l 482 847 q 708 817 629 847 q 818 736 788 786 q 849 628 849 686 q 833 550 849 589 q 776 479 817 511 q 664 428 735 447 q 482 408 593 408 l 422 408 m 422 513 l 482 513 q 630 527 578 513 q 702 567 682 542 q 722 628 722 593 q 703 685 722 660 q 632 727 683 711 q 482 743 581 743 l 422 743 q 269 727 321 743 q 200 685 218 711 q 182 628 182 660 q 202 566 182 592 q 274 526 222 540 q 422 513 326 513 m 393 0 l 393 992 l 519 992 l 519 0 l 393 0 m 393 0 l 393 321 l 614 321 q 768 281 717 321 q 819 171 819 242 q 756 47 819 94 q 563 0 693 0 l 393 0 m 519 92 l 567 92 q 668 113 640 92 q 696 167 696 133 q 672 213 696 196 q 592 229 647 229 l 519 229 l 519 92 z "},"ቕ":{"ha":1039,"x_min":21,"x_max":983,"o":"m 529 0 l 529 722 q 357 783 418 726 q 296 965 296 840 l 296 1001 l 422 1001 l 422 976 q 457 856 422 886 q 564 825 492 825 l 656 825 l 656 0 l 529 0 m 557 211 q 374 230 446 211 q 263 280 303 249 q 206 350 222 311 q 190 431 190 389 q 206 511 190 472 q 263 582 222 550 q 374 632 303 614 q 557 650 446 650 l 617 650 q 843 619 764 650 q 953 539 922 589 q 983 431 983 489 q 967 353 983 392 q 910 282 951 314 q 799 231 869 250 q 617 211 728 211 l 557 211 m 557 315 l 617 315 q 765 330 713 315 q 837 370 817 344 q 857 431 857 396 q 838 488 857 463 q 767 530 818 514 q 617 546 715 546 l 557 546 q 404 530 456 546 q 335 488 353 514 q 317 431 317 463 q 337 369 317 394 q 409 329 357 343 q 557 315 461 315 m 21 858 l 57 1022 l 21 1186 l 54 1186 q 130 1149 99 1186 q 171 1074 161 1113 l 563 1074 q 605 1149 574 1113 q 679 1186 636 1186 l 713 1186 l 676 1022 l 713 858 l 679 858 q 605 896 636 858 q 563 972 574 933 l 171 972 q 130 896 161 933 q 54 858 99 858 l 21 858 z "},"ቖ":{"ha":886,"x_min":21,"x_max":865,"o":"m 379 0 l 379 638 q 385 680 379 660 q 404 718 392 700 q 333 746 368 725 q 274 803 297 767 q 250 893 250 840 q 304 1026 250 978 q 444 1074 358 1074 q 585 1028 535 1074 q 636 908 636 982 q 619 822 636 858 q 579 760 603 786 q 535 713 556 735 q 513 681 521 699 q 506 640 506 663 l 506 0 l 379 0 m 464 797 q 502 851 492 824 q 513 904 513 878 q 495 959 513 939 q 443 979 478 979 q 394 957 414 979 q 374 900 374 935 q 394 839 374 865 q 464 797 415 813 m 408 164 q 229 185 300 164 q 118 240 158 206 q 62 318 78 275 q 46 404 46 361 q 76 521 46 467 q 185 608 106 575 q 408 642 264 642 l 476 642 q 699 608 621 642 q 808 521 778 575 q 839 404 839 467 q 822 320 839 363 q 766 242 806 278 q 656 185 726 207 q 476 164 585 164 l 408 164 m 408 268 l 476 268 q 623 286 572 268 q 693 335 674 304 q 713 404 713 367 q 694 470 713 440 q 626 519 676 500 q 476 538 575 538 l 408 538 q 256 519 307 538 q 189 469 206 500 q 172 404 172 439 q 191 334 172 365 q 261 285 210 303 q 408 268 313 268 m 21 867 l 57 1031 l 21 1194 l 54 1194 q 130 1158 99 1194 q 171 1082 161 1121 l 715 1082 q 758 1158 726 1121 q 832 1194 789 1194 l 865 1194 l 829 1031 l 865 867 l 832 867 q 758 904 789 867 q 715 981 726 942 l 171 981 q 130 904 161 942 q 54 867 99 867 l 21 867 z "},"ቘ":{"ha":997,"x_min":56,"x_max":963,"o":"m 389 967 l 389 1064 l 515 1064 l 515 967 l 389 967 m 389 0 l 389 992 l 515 992 l 515 0 l 389 0 m 763 -1 q 647 20 690 -1 q 583 78 603 42 q 563 161 563 115 q 563 177 563 169 q 565 192 564 185 l 449 192 l 449 307 l 654 307 q 705 323 678 318 q 763 328 732 328 q 913 283 864 328 q 963 165 963 239 q 940 81 963 119 q 872 21 917 43 q 763 -1 828 -1 m 763 90 q 826 111 806 90 q 847 165 847 132 q 826 218 847 197 q 763 239 806 239 q 699 218 721 239 q 678 165 678 197 q 699 111 678 132 q 763 90 719 90 m 422 408 q 240 427 311 408 q 128 477 168 446 q 72 547 88 508 q 56 628 56 586 q 72 708 56 669 q 128 779 88 747 q 240 829 168 811 q 422 847 311 847 l 482 847 q 708 817 629 847 q 818 736 788 786 q 849 628 849 686 q 833 550 849 589 q 776 479 817 511 q 664 428 735 447 q 482 408 593 408 l 422 408 m 422 513 l 482 513 q 630 527 578 513 q 702 567 682 542 q 722 628 722 593 q 703 685 722 660 q 632 727 683 711 q 482 743 581 743 l 422 743 q 269 727 321 743 q 200 685 218 711 q 182 628 182 660 q 202 566 182 592 q 274 526 222 540 q 422 513 326 513 m 71 890 l 107 1054 l 71 1218 l 104 1218 q 180 1181 149 1218 q 221 1106 211 1144 l 656 1106 q 698 1181 667 1144 q 772 1218 729 1218 l 806 1218 l 769 1054 l 806 890 l 772 890 q 698 928 729 890 q 656 1004 667 965 l 221 1004 q 180 928 211 965 q 104 890 149 890 l 71 890 z "},"ቚ":{"ha":1322,"x_min":56,"x_max":1301,"o":"m 1274 269 q 1199 301 1232 269 q 1151 383 1167 332 l 957 383 l 957 485 l 1254 485 l 1301 269 l 1274 269 m 758 493 l 758 594 l 1007 594 l 1007 493 l 758 493 m 957 383 l 957 715 l 1081 715 l 1081 383 l 957 383 m 418 315 q 239 336 310 315 q 128 392 168 357 q 72 469 88 426 q 56 556 56 513 q 85 672 56 618 q 194 760 115 726 q 418 793 274 793 l 486 793 q 709 760 631 793 q 818 672 788 726 q 849 556 849 618 q 832 472 849 514 q 776 394 815 429 q 665 337 736 358 q 486 315 594 315 l 418 315 m 418 419 l 486 419 q 633 438 582 419 q 703 487 683 456 q 722 556 722 518 q 704 622 722 592 q 635 670 686 651 q 486 689 585 689 l 418 689 q 266 670 317 689 q 199 621 215 651 q 182 556 182 590 q 201 485 182 517 q 271 437 219 454 q 418 419 322 419 m 389 0 l 389 992 l 515 992 l 515 0 l 389 0 m 389 967 l 389 1064 l 515 1064 l 515 967 l 389 967 m 85 858 l 121 1022 l 85 1186 l 118 1186 q 194 1149 163 1186 q 235 1074 225 1113 l 669 1074 q 712 1149 681 1113 q 786 1186 743 1186 l 819 1186 l 783 1022 l 819 858 l 786 858 q 712 896 743 858 q 669 972 681 933 l 235 972 q 194 896 225 933 q 118 858 163 858 l 85 858 z "},"ቛ":{"ha":904,"x_min":56,"x_max":849,"o":"m 299 176 l 299 276 l 786 276 l 786 176 l 299 176 m 663 0 l 663 276 l 786 276 l 786 0 l 663 0 m 422 404 q 240 423 311 404 q 128 473 168 442 q 72 543 88 504 q 56 624 56 582 q 72 704 56 665 q 128 775 88 743 q 240 825 168 807 q 422 843 311 843 l 482 843 q 708 813 629 843 q 818 732 788 782 q 849 624 849 682 q 833 546 849 585 q 776 475 817 507 q 664 424 735 443 q 482 404 593 404 l 422 404 m 422 508 l 482 508 q 630 523 578 508 q 702 563 682 538 q 722 624 722 589 q 703 681 722 656 q 632 723 683 707 q 482 739 581 739 l 422 739 q 269 723 321 739 q 200 681 218 707 q 182 624 182 656 q 202 562 182 588 q 274 522 222 536 q 422 508 326 508 m 78 858 l 114 1022 l 78 1186 l 111 1186 q 187 1149 156 1186 q 228 1074 218 1113 l 663 1074 q 705 1149 674 1113 q 779 1186 736 1186 l 813 1186 l 776 1022 l 813 858 l 779 858 q 705 896 736 858 q 663 972 674 933 l 228 972 q 187 896 218 933 q 111 858 156 858 l 78 858 m 393 183 l 393 1058 l 519 1058 l 519 183 l 393 183 m 58 63 l 106 278 l 403 278 l 403 176 l 208 176 q 161 94 194 125 q 86 63 128 63 l 58 63 z "},"ቜ":{"ha":904,"x_min":56,"x_max":849,"o":"m 63 -114 l 110 101 l 407 101 l 407 0 l 213 0 q 165 -83 199 -51 q 90 -114 132 -114 l 63 -114 m 422 408 q 240 427 311 408 q 128 477 168 446 q 72 547 88 508 q 56 628 56 586 q 72 708 56 669 q 128 779 88 747 q 240 829 168 811 q 422 847 311 847 l 482 847 q 708 817 629 847 q 818 736 788 786 q 849 628 849 686 q 833 550 849 589 q 776 479 817 511 q 664 428 735 447 q 482 408 593 408 l 422 408 m 422 513 l 482 513 q 630 527 578 513 q 702 567 682 542 q 722 628 722 593 q 703 685 722 660 q 632 727 683 711 q 482 743 581 743 l 422 743 q 269 727 321 743 q 200 685 218 711 q 182 628 182 660 q 202 566 182 592 q 274 526 222 540 q 422 513 326 513 m 393 0 l 393 992 l 519 992 l 519 0 l 393 0 m 393 0 l 393 321 l 614 321 q 768 281 717 321 q 819 171 819 242 q 756 47 819 94 q 563 0 693 0 l 393 0 m 519 92 l 567 92 q 668 113 640 92 q 696 167 696 133 q 672 213 696 196 q 592 229 647 229 l 519 229 l 519 92 m 393 967 l 393 1064 l 519 1064 l 519 967 l 393 967 m 83 890 l 119 1054 l 83 1218 l 117 1218 q 192 1181 161 1218 q 233 1106 224 1144 l 668 1106 q 710 1181 679 1144 q 785 1218 742 1218 l 818 1218 l 782 1054 l 818 890 l 785 890 q 710 928 742 890 q 668 1004 679 965 l 233 1004 q 192 928 224 965 q 117 890 161 890 l 83 890 z "},"ቝ":{"ha":1307,"x_min":56,"x_max":1286,"o":"m 964 503 l 964 825 l 1081 825 l 1081 503 l 964 503 m 758 503 l 758 604 l 1007 604 l 1007 503 l 758 503 m 1258 389 q 1184 420 1217 389 q 1136 503 1151 451 l 942 503 l 942 604 l 1239 604 l 1286 389 l 1258 389 m 418 315 q 239 336 310 315 q 128 392 168 357 q 72 469 88 426 q 56 556 56 513 q 85 672 56 618 q 194 760 115 726 q 418 793 274 793 l 486 793 q 709 760 631 793 q 818 672 788 726 q 849 556 849 618 q 832 472 849 514 q 776 394 815 429 q 665 337 736 358 q 486 315 594 315 l 418 315 m 418 419 l 486 419 q 633 438 582 419 q 703 487 683 456 q 722 556 722 518 q 704 622 722 592 q 635 670 686 651 q 486 689 585 689 l 418 689 q 266 670 317 689 q 199 621 215 651 q 182 556 182 590 q 201 485 182 517 q 271 437 219 454 q 418 419 322 419 m 389 0 l 389 992 l 515 992 l 515 0 l 389 0 m 389 967 l 389 1064 l 515 1064 l 515 967 l 389 967 m 85 858 l 121 1022 l 85 1186 l 118 1186 q 194 1149 163 1186 q 235 1074 225 1113 l 669 1074 q 712 1149 681 1113 q 786 1186 743 1186 l 819 1186 l 783 1022 l 819 858 l 786 858 q 712 896 743 858 q 669 972 681 933 l 235 972 q 194 896 225 933 q 118 858 163 858 l 85 858 z "},"በ":{"ha":858,"x_min":125,"x_max":733,"o":"m 432 1006 q 605 965 539 1006 q 702 845 671 924 q 733 653 733 767 l 733 0 l 607 0 l 607 646 q 567 830 607 765 q 432 894 526 894 q 323 863 363 894 q 267 776 283 832 q 251 644 251 721 l 251 0 l 125 0 l 125 656 q 158 840 125 761 q 260 962 192 918 q 432 1006 328 1006 z "},"ቡ":{"ha":1028,"x_min":125,"x_max":1007,"o":"m 974 272 q 899 310 931 272 q 857 386 868 347 l 663 386 l 663 488 l 857 488 q 899 563 868 526 q 974 600 931 600 l 1007 600 l 971 436 l 1007 272 l 974 272 m 432 1006 q 605 965 539 1006 q 702 845 671 924 q 733 653 733 767 l 733 0 l 607 0 l 607 646 q 567 830 607 765 q 432 894 526 894 q 323 863 363 894 q 267 776 283 832 q 251 644 251 721 l 251 0 l 125 0 l 125 656 q 158 840 125 761 q 260 962 192 918 q 432 1006 328 1006 z "},"ቢ":{"ha":1025,"x_min":125,"x_max":1004,"o":"m 971 -114 q 897 -76 928 -114 q 854 0 865 -39 l 660 0 l 660 101 l 854 101 q 897 177 865 140 q 971 214 928 214 l 1004 214 l 968 50 l 1004 -114 l 971 -114 m 432 1006 q 605 965 539 1006 q 702 845 671 924 q 733 653 733 767 l 733 0 l 607 0 l 607 646 q 567 830 607 765 q 432 894 526 894 q 323 863 363 894 q 267 776 283 832 q 251 644 251 721 l 251 0 l 125 0 l 125 656 q 158 840 125 761 q 260 962 192 918 q 432 1006 328 1006 z "},"ባ":{"ha":847,"x_min":114,"x_max":722,"o":"m 596 0 l 596 646 q 556 830 596 765 q 421 894 515 894 q 278 826 317 894 q 240 644 240 758 l 240 333 l 114 333 l 114 656 q 147 840 114 761 q 249 962 181 918 q 421 1006 317 1006 q 651 915 581 1006 q 722 653 722 824 l 722 0 l 596 0 z "},"ቤ":{"ha":1075,"x_min":125,"x_max":1050,"o":"m 607 0 l 607 367 l 844 367 q 999 320 947 367 q 1050 183 1050 274 q 994 53 1050 106 q 807 0 938 0 l 607 0 m 733 92 l 797 92 q 899 116 871 92 q 926 183 926 140 q 902 250 926 228 q 822 272 878 272 l 733 272 l 733 92 m 432 1006 q 605 965 539 1006 q 702 845 671 924 q 733 653 733 767 l 733 0 l 607 0 l 607 646 q 567 830 607 765 q 432 894 526 894 q 323 863 363 894 q 267 776 283 832 q 251 644 251 721 l 251 0 l 125 0 l 125 656 q 158 840 125 761 q 260 962 192 918 q 432 1006 328 1006 z "},"ብ":{"ha":1031,"x_min":21,"x_max":906,"o":"m 21 272 l 68 488 l 365 488 l 365 386 l 171 386 q 124 303 157 335 q 49 272 90 272 l 21 272 m 604 1006 q 777 965 711 1006 q 874 845 843 924 q 906 653 906 767 l 906 0 l 779 0 l 779 646 q 739 830 779 765 q 604 894 699 894 q 495 863 535 894 q 440 776 456 832 q 424 644 424 721 l 424 0 l 297 0 l 297 656 q 331 840 297 761 q 432 962 364 918 q 604 1006 500 1006 z "},"ቦ":{"ha":847,"x_min":125,"x_max":733,"o":"m 251 0 l 125 0 l 125 653 q 196 915 125 824 q 426 1006 267 1006 q 599 962 532 1006 q 700 840 667 918 q 733 656 733 761 l 733 333 l 607 333 l 607 644 q 569 826 607 758 q 426 894 531 894 q 292 830 332 894 q 251 646 251 765 l 251 0 z "},"ቧ":{"ha":968,"x_min":21,"x_max":947,"o":"m 21 -114 l 68 101 l 900 101 l 947 -114 l 919 -114 q 845 -83 878 -114 q 797 0 813 -51 l 171 0 q 124 -83 157 -51 q 49 -114 90 -114 l 21 -114 m 624 0 l 624 646 q 583 830 624 765 q 449 894 543 894 q 306 826 344 894 q 268 644 268 758 l 268 333 l 142 333 l 142 656 q 175 840 142 761 q 276 962 208 918 q 449 1006 344 1006 q 679 915 608 1006 q 750 653 750 824 l 750 0 l 624 0 z "},"ቨ":{"ha":858,"x_min":83,"x_max":775,"o":"m 125 0 l 125 501 q 158 685 125 607 q 260 808 192 764 q 432 851 328 851 q 663 760 592 851 q 733 499 733 669 l 733 0 l 607 0 l 607 492 q 567 676 607 611 q 432 740 526 740 q 290 672 328 740 q 251 490 251 604 l 251 0 l 125 0 m 83 858 l 119 1022 l 83 1186 l 117 1186 q 192 1149 161 1186 q 233 1074 224 1113 l 625 1074 q 667 1149 636 1113 q 742 1186 699 1186 l 775 1186 l 739 1022 l 775 858 l 742 858 q 667 896 699 858 q 625 972 636 933 l 233 972 q 192 896 224 933 q 117 858 161 858 l 83 858 z "},"ቩ":{"ha":1068,"x_min":83,"x_max":1047,"o":"m 1014 196 q 940 233 971 196 q 897 310 908 271 l 703 310 l 703 411 l 897 411 q 940 487 908 450 q 1014 524 971 524 l 1047 524 l 1011 360 l 1047 196 l 1014 196 m 125 0 l 125 501 q 158 685 125 607 q 260 808 192 764 q 432 851 328 851 q 663 760 592 851 q 733 499 733 669 l 733 0 l 607 0 l 607 492 q 567 676 607 611 q 432 740 526 740 q 290 672 328 740 q 251 490 251 604 l 251 0 l 125 0 m 83 858 l 119 1022 l 83 1186 l 117 1186 q 192 1149 161 1186 q 233 1074 224 1113 l 625 1074 q 667 1149 636 1113 q 742 1186 699 1186 l 775 1186 l 739 1022 l 775 858 l 742 858 q 667 896 699 858 q 625 972 636 933 l 233 972 q 192 896 224 933 q 117 858 161 858 l 83 858 z "},"ቪ":{"ha":1022,"x_min":83,"x_max":1001,"o":"m 968 -114 q 894 -76 925 -114 q 851 0 863 -39 l 657 0 l 657 101 l 851 101 q 894 177 863 140 q 968 214 925 214 l 1001 214 l 965 50 l 1001 -114 l 968 -114 m 125 0 l 125 501 q 158 685 125 607 q 260 808 192 764 q 432 851 328 851 q 663 760 592 851 q 733 499 733 669 l 733 0 l 607 0 l 607 492 q 567 676 607 611 q 432 740 526 740 q 290 672 328 740 q 251 490 251 604 l 251 0 l 125 0 m 83 858 l 119 1022 l 83 1186 l 117 1186 q 192 1149 161 1186 q 233 1074 224 1113 l 625 1074 q 667 1149 636 1113 q 742 1186 699 1186 l 775 1186 l 739 1022 l 775 858 l 742 858 q 667 896 699 858 q 625 972 636 933 l 233 972 q 192 896 224 933 q 117 858 161 858 l 83 858 z "},"ቫ":{"ha":844,"x_min":82,"x_max":774,"o":"m 593 0 l 593 492 q 553 676 593 611 q 418 740 513 740 q 276 672 314 740 q 238 490 238 604 l 238 333 l 111 333 l 111 501 q 144 685 111 607 q 246 808 178 764 q 418 851 314 851 q 591 810 525 851 q 688 689 657 768 q 719 499 719 610 l 719 0 l 593 0 m 82 858 l 118 1022 l 82 1186 l 115 1186 q 191 1149 160 1186 q 232 1074 222 1113 l 624 1074 q 666 1149 635 1113 q 740 1186 697 1186 l 774 1186 l 738 1022 l 774 858 l 740 858 q 666 896 697 858 q 624 972 635 933 l 232 972 q 191 896 222 933 q 115 858 160 858 l 82 858 z "},"ቬ":{"ha":1075,"x_min":83,"x_max":1050,"o":"m 607 0 l 607 367 l 844 367 q 999 320 947 367 q 1050 183 1050 274 q 994 53 1050 106 q 807 0 938 0 l 607 0 m 733 92 l 797 92 q 899 116 871 92 q 926 183 926 140 q 902 250 926 228 q 822 272 878 272 l 733 272 l 733 92 m 125 0 l 125 501 q 158 685 125 607 q 260 808 192 764 q 432 851 328 851 q 663 760 592 851 q 733 499 733 669 l 733 0 l 607 0 l 607 492 q 567 676 607 611 q 432 740 526 740 q 290 672 328 740 q 251 490 251 604 l 251 0 l 125 0 m 83 858 l 119 1022 l 83 1186 l 117 1186 q 192 1149 161 1186 q 233 1074 224 1113 l 625 1074 q 667 1149 636 1113 q 742 1186 699 1186 l 775 1186 l 739 1022 l 775 858 l 742 858 q 667 896 699 858 q 625 972 636 933 l 233 972 q 192 896 224 933 q 117 858 161 858 l 83 858 z "},"ቭ":{"ha":1015,"x_min":21,"x_max":932,"o":"m 21 210 l 68 425 l 365 425 l 365 324 l 171 324 q 124 241 157 272 q 49 210 90 210 l 21 210 m 282 0 l 282 501 q 315 685 282 607 q 417 808 349 764 q 589 851 485 851 q 819 760 749 851 q 890 499 890 669 l 890 0 l 764 0 l 764 492 q 724 676 764 611 q 589 740 683 740 q 447 672 485 740 q 408 490 408 604 l 408 0 l 282 0 m 240 858 l 276 1022 l 240 1186 l 274 1186 q 349 1149 318 1186 q 390 1074 381 1113 l 782 1074 q 824 1149 793 1113 q 899 1186 856 1186 l 932 1186 l 896 1022 l 932 858 l 899 858 q 824 896 856 858 q 782 972 793 933 l 390 972 q 349 896 381 933 q 274 858 318 858 l 240 858 z "},"ቮ":{"ha":844,"x_min":76,"x_max":768,"o":"m 251 0 l 125 0 l 125 499 q 156 689 125 610 q 254 810 188 768 q 426 851 321 851 q 599 808 532 851 q 700 685 667 764 q 733 501 733 607 l 733 333 l 607 333 l 607 490 q 569 672 607 604 q 426 740 531 740 q 292 676 332 740 q 251 492 251 611 l 251 0 m 76 858 l 113 1022 l 76 1186 l 110 1186 q 185 1149 154 1186 q 226 1074 217 1113 l 618 1074 q 660 1149 629 1113 q 735 1186 692 1186 l 768 1186 l 732 1022 l 768 858 l 735 858 q 660 896 692 858 q 618 972 629 933 l 226 972 q 185 896 217 933 q 110 858 154 858 l 76 858 z "},"ቯ":{"ha":968,"x_min":21,"x_max":947,"o":"m 21 -114 l 68 101 l 900 101 l 947 -114 l 919 -114 q 845 -83 878 -114 q 797 0 813 -51 l 171 0 q 124 -83 157 -51 q 49 -114 90 -114 l 21 -114 m 593 0 l 593 492 q 553 676 593 611 q 418 740 513 740 q 276 672 314 740 q 238 490 238 604 l 238 333 l 111 333 l 111 501 q 144 685 111 607 q 246 808 178 764 q 418 851 314 851 q 591 810 525 851 q 688 689 657 768 q 719 499 719 610 l 719 0 l 593 0 m 82 858 l 118 1022 l 82 1186 l 115 1186 q 191 1149 160 1186 q 232 1074 222 1113 l 624 1074 q 666 1149 635 1113 q 740 1186 697 1186 l 774 1186 l 738 1022 l 774 858 l 740 858 q 666 896 697 858 q 624 972 635 933 l 232 972 q 191 896 222 933 q 115 858 160 858 l 82 858 z "},"ተ":{"ha":835,"x_min":21,"x_max":814,"o":"m 354 0 l 354 992 l 481 992 l 481 0 l 354 0 m 21 531 l 68 746 l 767 746 l 814 531 l 786 531 q 712 562 744 531 q 664 644 679 593 l 171 644 q 124 562 157 593 q 49 531 90 531 l 21 531 z "},"ቱ":{"ha":835,"x_min":21,"x_max":814,"o":"m 722 118 q 648 156 679 118 q 606 232 617 193 l 411 232 l 411 333 l 606 333 q 648 409 617 372 q 722 446 679 446 l 756 446 l 719 282 l 756 118 l 722 118 m 354 0 l 354 992 l 481 992 l 481 0 l 354 0 m 21 531 l 68 746 l 767 746 l 814 531 l 786 531 q 712 562 744 531 q 664 644 679 593 l 171 644 q 124 562 157 593 q 49 531 90 531 l 21 531 z "},"ቲ":{"ha":835,"x_min":21,"x_max":814,"o":"m 731 -114 q 656 -76 688 -114 q 614 0 625 -39 l 419 0 l 419 101 l 614 101 q 656 177 625 140 q 731 214 688 214 l 764 214 l 728 50 l 764 -114 l 731 -114 m 354 0 l 354 992 l 481 992 l 481 0 l 354 0 m 21 531 l 68 746 l 767 746 l 814 531 l 786 531 q 712 562 744 531 q 664 644 679 593 l 171 644 q 124 562 157 593 q 49 531 90 531 l 21 531 z "},"ታ":{"ha":858,"x_min":21,"x_max":838,"o":"m 21 -114 l 68 101 l 185 101 q 301 122 258 101 q 361 190 343 142 q 379 321 379 239 l 379 992 l 506 992 l 506 311 q 473 142 506 211 q 374 36 440 72 q 207 0 308 0 l 171 0 q 125 -81 158 -49 q 49 -114 92 -114 l 21 -114 m 44 529 l 92 744 l 790 744 l 838 529 l 810 529 q 735 560 768 529 q 688 643 703 592 l 194 643 q 147 560 181 592 q 72 529 114 529 l 44 529 z "},"ቴ":{"ha":839,"x_min":21,"x_max":814,"o":"m 354 0 l 354 367 l 592 367 q 746 320 694 367 q 797 183 797 274 q 741 53 797 106 q 554 0 685 0 l 354 0 m 481 92 l 544 92 q 646 116 618 92 q 674 183 674 140 q 649 250 674 228 q 569 272 625 272 l 481 272 l 481 92 m 354 0 l 354 992 l 481 992 l 481 0 l 354 0 m 21 531 l 68 746 l 767 746 l 814 531 l 786 531 q 712 562 744 531 q 664 644 679 593 l 171 644 q 124 562 157 593 q 49 531 90 531 l 21 531 z "},"ት":{"ha":835,"x_min":21,"x_max":814,"o":"m 364 0 l 364 768 q 192 829 253 772 q 131 1011 131 886 l 131 1117 l 257 1117 l 257 1022 q 292 901 257 932 q 399 871 326 871 l 490 871 l 490 0 l 364 0 m 21 456 l 68 671 l 767 671 l 814 456 l 786 456 q 712 487 744 456 q 664 569 679 518 l 171 569 q 124 487 157 518 q 49 456 90 456 l 21 456 z "},"ቶ":{"ha":835,"x_min":21,"x_max":814,"o":"m 363 0 l 363 638 q 369 680 363 660 q 388 718 375 700 q 316 746 351 725 q 257 803 281 767 q 233 893 233 840 q 288 1026 233 978 q 428 1074 342 1074 q 569 1028 518 1074 q 619 908 619 982 q 603 822 619 858 q 563 760 586 786 q 518 713 539 735 q 497 681 504 699 q 489 640 489 663 l 489 0 l 363 0 m 447 797 q 485 851 475 824 q 496 904 496 878 q 478 959 496 939 q 426 979 461 979 q 377 957 397 979 q 357 900 357 935 q 378 839 357 865 q 447 797 399 813 m 21 390 l 68 606 l 767 606 l 814 390 l 786 390 q 712 422 744 390 q 664 504 679 453 l 171 504 q 124 422 157 453 q 49 390 90 390 l 21 390 z "},"ቷ":{"ha":835,"x_min":21,"x_max":814,"o":"m 354 0 l 354 992 l 481 992 l 481 0 l 354 0 m 21 529 l 68 744 l 767 744 l 814 529 l 786 529 q 712 560 744 529 q 664 643 679 592 l 171 643 q 124 560 157 592 q 49 529 90 529 l 21 529 m 21 -114 l 68 101 l 767 101 l 814 -114 l 786 -114 q 712 -83 744 -114 q 664 0 679 -51 l 171 0 q 124 -83 157 -51 q 49 -114 90 -114 l 21 -114 z "},"ቸ":{"ha":854,"x_min":31,"x_max":824,"o":"m 364 0 l 364 1056 l 490 1056 l 490 0 l 364 0 m 60 858 l 96 1022 l 60 1186 l 93 1186 q 169 1149 138 1186 q 210 1074 200 1113 l 644 1074 q 687 1149 656 1113 q 761 1186 718 1186 l 794 1186 l 758 1022 l 794 858 l 761 858 q 687 896 718 858 q 644 972 656 933 l 210 972 q 169 896 200 933 q 93 858 138 858 l 60 858 m 31 529 l 78 744 l 776 744 l 824 529 l 796 529 q 722 560 754 529 q 674 643 689 592 l 181 643 q 133 560 167 592 q 58 529 100 529 l 31 529 z "},"ቹ":{"ha":854,"x_min":31,"x_max":824,"o":"m 747 125 q 673 163 704 125 q 631 239 642 200 l 436 239 l 436 340 l 631 340 q 673 416 642 379 q 747 453 704 453 l 781 453 l 744 289 l 781 125 l 747 125 m 364 0 l 364 1056 l 490 1056 l 490 0 l 364 0 m 60 858 l 96 1022 l 60 1186 l 93 1186 q 169 1149 138 1186 q 210 1074 200 1113 l 644 1074 q 687 1149 656 1113 q 761 1186 718 1186 l 794 1186 l 758 1022 l 794 858 l 761 858 q 687 896 718 858 q 644 972 656 933 l 210 972 q 169 896 200 933 q 93 858 138 858 l 60 858 m 31 529 l 78 744 l 776 744 l 824 529 l 796 529 q 722 560 754 529 q 674 643 689 592 l 181 643 q 133 560 167 592 q 58 529 100 529 l 31 529 z "},"ቺ":{"ha":854,"x_min":31,"x_max":824,"o":"m 726 -114 q 652 -76 683 -114 q 610 0 621 -39 l 415 0 l 415 101 l 610 101 q 652 177 621 140 q 726 214 683 214 l 760 214 l 724 50 l 760 -114 l 726 -114 m 364 0 l 364 1056 l 490 1056 l 490 0 l 364 0 m 60 858 l 96 1022 l 60 1186 l 93 1186 q 169 1149 138 1186 q 210 1074 200 1113 l 644 1074 q 687 1149 656 1113 q 761 1186 718 1186 l 794 1186 l 758 1022 l 794 858 l 761 858 q 687 896 718 858 q 644 972 656 933 l 210 972 q 169 896 200 933 q 93 858 138 858 l 60 858 m 31 529 l 78 744 l 776 744 l 824 529 l 796 529 q 722 560 754 529 q 674 643 689 592 l 181 643 q 133 560 167 592 q 58 529 100 529 l 31 529 z "},"ቻ":{"ha":860,"x_min":21,"x_max":839,"o":"m 379 910 l 379 1069 l 506 1069 l 506 910 l 379 910 m 21 -114 l 68 101 l 185 101 q 301 122 258 101 q 361 190 343 142 q 379 321 379 239 l 379 992 l 506 992 l 506 311 q 473 142 506 211 q 374 36 440 72 q 207 0 308 0 l 171 0 q 125 -81 158 -49 q 49 -114 92 -114 l 21 -114 m 46 528 l 93 743 l 792 743 l 839 528 l 811 528 q 737 559 769 528 q 689 642 704 590 l 196 642 q 149 559 182 590 q 74 528 115 528 l 46 528 m 75 858 l 111 1022 l 75 1186 l 108 1186 q 184 1149 153 1186 q 225 1074 215 1113 l 660 1074 q 702 1149 671 1113 q 776 1186 733 1186 l 810 1186 l 774 1022 l 810 858 l 776 858 q 702 896 733 858 q 660 972 671 933 l 225 972 q 184 896 215 933 q 108 858 153 858 l 75 858 z "},"ቼ":{"ha":835,"x_min":21,"x_max":814,"o":"m 354 896 l 354 1025 l 481 1025 l 481 896 l 354 896 m 354 0 l 354 992 l 481 992 l 481 0 l 354 0 m 354 0 l 354 367 l 592 367 q 746 320 694 367 q 797 183 797 274 q 741 53 797 106 q 554 0 685 0 l 354 0 m 481 92 l 544 92 q 646 116 618 92 q 674 183 674 140 q 649 250 674 228 q 569 272 625 272 l 481 272 l 481 92 m 50 858 l 86 1022 l 50 1186 l 83 1186 q 159 1149 128 1186 q 200 1074 190 1113 l 635 1074 q 677 1149 646 1113 q 751 1186 708 1186 l 785 1186 l 749 1022 l 785 858 l 751 858 q 677 896 708 858 q 635 972 646 933 l 200 972 q 159 896 190 933 q 83 858 128 858 l 50 858 m 21 507 l 68 722 l 767 722 l 814 507 l 786 507 q 712 538 744 507 q 664 621 679 569 l 171 621 q 124 538 157 569 q 49 507 90 507 l 21 507 z "},"ች":{"ha":1017,"x_min":21,"x_max":996,"o":"m 543 0 l 543 697 q 371 758 432 701 q 310 940 310 815 l 310 1074 l 436 1074 l 436 951 q 471 831 436 861 q 578 800 506 800 l 669 800 l 669 0 l 543 0 m 68 972 l 21 1186 l 54 1186 q 130 1149 99 1186 q 171 1074 161 1113 l 563 1074 q 605 1149 574 1113 q 679 1186 636 1186 l 713 1186 l 676 1022 l 713 858 l 679 858 q 605 896 636 858 q 563 972 574 933 l 68 972 m 203 433 l 250 649 l 949 649 l 996 433 l 968 433 q 894 465 926 433 q 846 547 861 496 l 353 547 q 306 465 339 496 q 231 433 272 433 l 203 433 z "},"ቾ":{"ha":881,"x_min":39,"x_max":842,"o":"m 342 1028 l 342 1090 l 536 1090 l 536 1028 l 342 1028 m 42 875 l 78 1039 l 42 1203 l 75 1203 q 151 1166 119 1203 q 192 1090 182 1129 l 386 1090 l 386 989 l 192 989 q 151 913 182 950 q 75 875 119 875 l 42 875 m 814 1204 l 842 1204 l 794 989 l 497 989 l 497 1090 l 692 1090 q 740 1174 707 1143 q 814 1204 772 1204 m 381 0 l 381 638 q 387 680 381 660 q 406 718 393 700 q 334 746 369 725 q 275 803 299 767 q 251 893 251 840 q 306 1026 251 978 q 446 1074 360 1074 q 587 1028 536 1074 q 638 908 638 982 q 621 822 638 858 q 581 760 604 786 q 536 713 557 735 q 515 681 522 699 q 507 640 507 663 l 507 0 l 381 0 m 465 797 q 503 851 493 824 q 514 904 514 878 q 497 959 514 939 q 444 979 479 979 q 395 957 415 979 q 375 900 375 935 q 396 839 375 865 q 465 797 417 813 m 39 390 l 86 606 l 785 606 l 832 390 l 804 390 q 730 422 763 390 q 682 504 697 453 l 189 504 q 142 422 175 453 q 67 390 108 390 l 39 390 z "},"ቿ":{"ha":844,"x_min":21,"x_max":824,"o":"m 21 -114 l 68 101 l 767 101 l 814 -114 l 786 -114 q 712 -83 744 -114 q 664 0 679 -51 l 171 0 q 124 -83 157 -51 q 49 -114 90 -114 l 21 -114 m 364 0 l 364 1056 l 490 1056 l 490 0 l 364 0 m 60 858 l 96 1022 l 60 1186 l 93 1186 q 169 1149 138 1186 q 210 1074 200 1113 l 644 1074 q 687 1149 656 1113 q 761 1186 718 1186 l 794 1186 l 758 1022 l 794 858 l 761 858 q 687 896 718 858 q 644 972 656 933 l 210 972 q 169 896 200 933 q 93 858 138 858 l 60 858 m 31 529 l 78 744 l 776 744 l 824 529 l 796 529 q 722 560 754 529 q 674 643 689 592 l 181 643 q 133 560 167 592 q 58 529 100 529 l 31 529 z "},"ኀ":{"ha":769,"x_min":21,"x_max":631,"o":"m 21 668 l 68 883 l 365 883 l 365 782 l 171 782 q 124 699 157 731 q 49 668 90 668 l 21 668 m 504 0 l 504 642 q 332 703 393 646 q 271 885 271 760 l 271 990 l 397 990 l 397 896 q 432 775 397 806 q 539 744 467 744 l 631 744 l 631 0 l 504 0 z "},"ኁ":{"ha":917,"x_min":21,"x_max":896,"o":"m 868 225 q 794 256 826 225 q 746 339 761 288 l 551 339 l 551 440 l 849 440 l 896 225 l 868 225 m 504 0 l 504 642 q 332 703 393 646 q 271 885 271 760 l 271 990 l 397 990 l 397 896 q 432 775 397 806 q 539 744 467 744 l 631 744 l 631 0 l 504 0 m 21 668 l 68 883 l 365 883 l 365 782 l 171 782 q 124 699 157 731 q 49 668 90 668 l 21 668 z "},"ኃ":{"ha":793,"x_min":21,"x_max":654,"o":"m 21 -114 l 68 101 l 296 101 q 439 120 389 101 q 508 187 489 139 q 528 321 528 235 l 528 488 l 654 488 l 654 311 q 620 142 654 211 q 512 36 586 72 q 318 0 438 0 l 169 0 q 142 -62 160 -36 q 99 -101 124 -87 q 43 -114 75 -114 l 21 -114 m 528 403 l 528 642 q 356 703 417 646 q 294 885 294 760 l 294 990 l 421 990 l 421 896 q 456 775 421 806 q 563 744 490 744 l 654 744 l 654 403 l 528 403 m 40 668 l 88 883 l 385 883 l 385 782 l 190 782 q 143 699 176 731 q 68 668 110 668 l 40 668 z "},"ኄ":{"ha":972,"x_min":21,"x_max":947,"o":"m 504 0 l 504 367 l 742 367 q 896 320 844 367 q 947 183 947 274 q 891 53 947 106 q 704 0 835 0 l 504 0 m 631 92 l 694 92 q 796 116 768 92 q 824 183 824 140 q 799 250 824 228 q 719 272 775 272 l 631 272 l 631 92 m 504 0 l 504 642 q 332 703 393 646 q 271 885 271 760 l 271 990 l 397 990 l 397 896 q 432 775 397 806 q 539 744 467 744 l 631 744 l 631 0 l 504 0 m 21 668 l 68 883 l 365 883 l 365 782 l 171 782 q 124 699 157 731 q 49 668 90 668 l 21 668 z "},"ኅ":{"ha":803,"x_min":39,"x_max":664,"o":"m 39 528 q 79 725 39 646 q 187 848 119 804 q 335 906 254 892 l 343 797 q 253 758 296 788 q 183 672 210 728 q 156 528 156 615 l 39 528 m 538 0 l 538 642 q 365 703 426 646 q 304 885 304 760 l 304 990 l 431 990 l 431 896 q 465 775 431 806 q 572 744 500 744 l 664 744 l 664 0 l 538 0 z "},"ኆ":{"ha":1004,"x_min":21,"x_max":969,"o":"m 21 428 l 68 643 l 365 643 l 365 542 l 171 542 q 124 459 157 490 q 49 428 90 428 l 21 428 m 536 0 l 536 376 l 258 376 l 258 435 q 283 684 258 579 q 360 857 307 789 q 497 958 413 925 q 699 992 581 992 l 740 992 l 529 874 q 458 797 489 847 q 408 669 426 747 q 386 483 390 592 l 663 483 l 663 0 l 536 0 m 743 625 q 569 677 621 625 q 517 806 517 729 q 574 939 517 886 q 743 992 632 992 q 914 942 858 992 q 969 810 969 892 q 912 679 969 733 q 743 625 854 625 m 743 718 q 821 742 796 718 q 846 808 846 765 q 820 874 846 850 q 743 897 794 897 q 666 874 692 897 q 640 808 640 850 q 666 742 640 765 q 743 718 692 718 z "},"ኇ":{"ha":1004,"x_min":21,"x_max":969,"o":"m 263 -114 l 299 50 l 263 214 l 296 214 q 372 177 340 214 q 413 101 403 140 l 607 101 l 607 0 l 413 0 q 372 -76 403 -39 q 296 -114 340 -114 l 263 -114 m 536 0 l 536 376 l 258 376 l 258 435 q 283 684 258 579 q 360 857 307 789 q 497 958 413 925 q 699 992 581 992 l 740 992 l 529 874 q 458 797 489 847 q 408 669 426 747 q 386 483 390 592 l 663 483 l 663 0 l 536 0 m 743 625 q 569 677 621 625 q 517 806 517 729 q 574 939 517 886 q 743 992 632 992 q 914 942 858 992 q 969 810 969 892 q 912 679 969 733 q 743 625 854 625 m 743 718 q 821 742 796 718 q 846 808 846 765 q 820 874 846 850 q 743 897 794 897 q 666 874 692 897 q 640 808 640 850 q 666 742 640 765 q 743 718 692 718 m 21 428 l 68 643 l 365 643 l 365 542 l 171 542 q 124 459 157 490 q 49 428 90 428 l 21 428 z "},"ኈ":{"ha":1121,"x_min":21,"x_max":1086,"o":"m 886 175 q 771 197 815 175 q 706 255 726 218 q 686 338 686 292 q 687 353 686 346 q 689 368 688 361 l 572 368 l 572 483 l 778 483 q 828 499 801 494 q 886 504 856 504 q 1037 460 988 504 q 1086 342 1086 415 q 1063 258 1086 296 q 996 198 1040 221 q 886 175 951 175 m 886 267 q 950 288 929 267 q 971 342 971 308 q 950 394 971 374 q 886 415 929 415 q 823 394 844 415 q 801 342 801 374 q 822 288 801 308 q 886 267 843 267 m 504 0 l 504 642 q 332 703 393 646 q 271 885 271 760 l 271 990 l 397 990 l 397 896 q 432 775 397 806 q 539 744 467 744 l 631 744 l 631 0 l 504 0 m 21 668 l 68 883 l 365 883 l 365 782 l 171 782 q 124 699 157 731 q 49 668 90 668 l 21 668 z "},"ኊ":{"ha":1135,"x_min":21,"x_max":1114,"o":"m 1086 165 q 1012 197 1044 165 q 964 279 979 228 l 769 279 l 769 381 l 1067 381 l 1114 165 l 1086 165 m 571 389 l 571 490 l 819 490 l 819 389 l 571 389 m 769 279 l 769 611 l 893 611 l 893 279 l 769 279 m 504 0 l 504 642 q 332 703 393 646 q 271 885 271 760 l 271 990 l 397 990 l 397 896 q 432 775 397 806 q 539 744 467 744 l 631 744 l 631 0 l 504 0 m 21 668 l 68 883 l 365 883 l 365 782 l 171 782 q 124 699 157 731 q 49 668 90 668 l 21 668 z "},"ኋ":{"ha":892,"x_min":21,"x_max":857,"o":"m 518 213 l 518 642 q 346 703 407 646 q 285 885 285 760 l 285 990 l 411 990 l 411 896 q 446 775 411 806 q 553 744 481 744 l 644 744 l 644 213 l 518 213 m 315 175 l 315 276 l 857 276 l 857 175 l 315 175 m 733 0 l 733 276 l 857 276 l 857 0 l 733 0 m 75 61 l 122 276 l 419 276 l 419 175 l 225 175 q 178 92 211 124 q 103 61 144 61 l 75 61 m 21 668 l 68 883 l 365 883 l 365 782 l 171 782 q 124 699 157 731 q 49 668 90 668 l 21 668 z "},"ኌ":{"ha":972,"x_min":21,"x_max":947,"o":"m 436 0 l 436 101 l 625 101 l 625 0 l 436 0 m 125 -114 l 172 101 l 469 101 l 469 0 l 275 0 q 228 -83 261 -51 q 153 -114 194 -114 l 125 -114 m 504 0 l 504 642 q 332 703 393 646 q 271 885 271 760 l 271 990 l 397 990 l 397 896 q 432 775 397 806 q 539 744 467 744 l 631 744 l 631 0 l 504 0 m 21 668 l 68 883 l 365 883 l 365 782 l 171 782 q 124 699 157 731 q 49 668 90 668 l 21 668 m 504 0 l 504 367 l 742 367 q 896 320 844 367 q 947 183 947 274 q 891 53 947 106 q 704 0 835 0 l 504 0 m 631 92 l 694 92 q 796 116 768 92 q 824 183 824 140 q 799 250 824 228 q 719 272 775 272 l 631 272 l 631 92 z "},"ኍ":{"ha":1089,"x_min":21,"x_max":1068,"o":"m 558 372 l 558 474 l 811 474 l 811 372 l 558 372 m 764 438 l 764 604 l 881 604 l 881 438 l 764 438 m 1040 258 q 966 290 999 258 q 918 372 933 321 l 724 372 l 724 474 l 1021 474 l 1068 258 l 1040 258 m 504 0 l 504 642 q 332 703 393 646 q 271 885 271 760 l 271 990 l 397 990 l 397 896 q 432 775 397 806 q 539 744 467 744 l 631 744 l 631 0 l 504 0 m 21 668 l 68 883 l 365 883 l 365 782 l 171 782 q 124 699 157 731 q 49 668 90 668 l 21 668 z "},"ነ":{"ha":582,"x_min":83,"x_max":443,"o":"m 317 0 l 317 642 q 144 703 206 646 q 83 885 83 760 l 83 990 l 210 990 l 210 896 q 244 775 210 806 q 351 744 279 744 l 443 744 l 443 0 l 317 0 z "},"ኒ":{"ha":732,"x_min":83,"x_max":711,"o":"m 678 -114 q 603 -76 635 -114 q 561 0 572 -39 l 367 0 l 367 101 l 561 101 q 603 177 572 140 q 678 214 635 214 l 711 214 l 675 50 l 711 -114 l 678 -114 m 317 0 l 317 642 q 144 703 206 646 q 83 885 83 760 l 83 990 l 210 990 l 210 896 q 244 775 210 806 q 351 744 279 744 l 443 744 l 443 0 l 317 0 z "},"ና":{"ha":710,"x_min":97,"x_max":689,"o":"m 97 376 l 97 435 q 121 684 97 579 q 195 857 144 789 q 324 958 246 925 q 510 992 401 992 l 642 992 l 689 776 l 661 776 q 590 804 622 776 q 539 890 557 832 l 504 890 q 352 850 415 890 q 256 708 289 810 q 224 422 224 607 l 224 410 l 97 376 m 342 0 l 342 376 l 97 376 l 153 469 l 468 469 l 468 0 l 342 0 z "},"ኔ":{"ha":644,"x_min":85,"x_max":619,"o":"m 117 0 l 117 89 l 338 635 q 148 697 211 639 q 85 885 85 754 l 85 990 l 211 990 l 211 896 q 246 775 211 806 q 353 744 281 744 l 515 744 l 217 0 l 117 0 m 229 92 l 367 92 q 468 119 440 92 q 496 190 496 147 q 472 251 496 229 q 392 272 447 272 l 303 272 l 229 92 m 149 0 l 294 367 l 414 367 q 568 322 517 367 q 619 194 619 276 q 556 54 619 108 q 363 0 493 0 l 149 0 z "},"ን":{"ha":678,"x_min":21,"x_max":644,"o":"m 213 0 l 465 560 l 322 560 l 322 733 q 306 828 322 794 q 261 876 290 863 q 192 890 232 890 l 171 890 q 122 806 154 836 q 46 776 90 776 l 21 776 l 68 992 l 206 992 q 344 963 290 992 q 423 878 397 935 q 449 738 449 822 l 449 668 l 644 668 l 351 0 l 213 0 z "},"ኖ":{"ha":843,"x_min":97,"x_max":808,"o":"m 375 0 l 375 376 l 97 376 l 97 435 q 122 684 97 579 q 199 857 146 789 q 335 958 251 925 q 538 992 419 992 l 579 992 l 368 874 q 297 797 328 847 q 247 669 265 747 q 225 483 229 592 l 501 483 l 501 0 l 375 0 m 582 625 q 408 677 460 625 q 356 806 356 729 q 413 939 356 886 q 582 992 471 992 q 753 942 697 992 q 808 810 808 892 q 751 679 808 733 q 582 625 693 625 m 582 718 q 660 742 635 718 q 685 808 685 765 q 659 874 685 850 q 582 897 633 897 q 505 874 531 897 q 479 808 479 850 q 505 742 479 765 q 582 718 531 718 z "},"ኗ":{"ha":835,"x_min":21,"x_max":814,"o":"m 21 -114 l 68 101 l 767 101 l 814 -114 l 786 -114 q 712 -83 744 -114 q 664 0 679 -51 l 171 0 q 124 -83 157 -51 q 49 -114 90 -114 l 21 -114 m 125 376 l 125 435 q 149 684 125 579 q 223 857 172 789 q 351 958 274 925 q 538 992 429 992 l 669 992 l 717 776 l 689 776 q 617 804 650 776 q 567 890 585 832 l 532 890 q 380 850 443 890 q 284 708 317 810 q 251 422 251 607 l 251 410 l 125 376 m 369 0 l 369 376 l 125 376 l 181 469 l 496 469 l 496 0 l 369 0 z "},"ኘ":{"ha":785,"x_min":21,"x_max":713,"o":"m 533 0 l 533 572 q 361 633 422 576 q 300 815 300 690 l 300 921 l 426 921 l 426 826 q 461 706 426 736 q 568 675 496 675 l 660 675 l 660 0 l 533 0 m 21 776 l 57 940 l 21 1104 l 54 1104 q 130 1067 99 1104 q 171 992 161 1031 l 563 992 q 605 1067 574 1031 q 679 1104 636 1104 l 713 1104 l 676 940 l 713 776 l 679 776 q 605 814 636 776 q 563 890 574 851 l 171 890 q 130 814 161 851 q 54 776 99 776 l 21 776 z "},"ኙ":{"ha":979,"x_min":21,"x_max":958,"o":"m 931 271 q 856 302 889 271 q 808 385 824 333 l 614 385 l 614 486 l 911 486 l 958 271 l 931 271 m 533 0 l 533 572 q 361 633 422 576 q 300 815 300 690 l 300 921 l 426 921 l 426 826 q 461 706 426 736 q 568 675 496 675 l 660 675 l 660 0 l 533 0 m 21 776 l 57 940 l 21 1104 l 54 1104 q 130 1067 99 1104 q 171 992 161 1031 l 563 992 q 605 1067 574 1031 q 679 1104 636 1104 l 713 1104 l 676 940 l 713 776 l 679 776 q 605 814 636 776 q 563 890 574 851 l 171 890 q 130 814 161 851 q 54 776 99 776 l 21 776 z "},"ኚ":{"ha":979,"x_min":21,"x_max":958,"o":"m 925 -114 q 851 -76 882 -114 q 808 0 819 -39 l 614 0 l 614 101 l 808 101 q 851 177 819 140 q 925 214 882 214 l 958 214 l 922 50 l 958 -114 l 925 -114 m 533 0 l 533 572 q 361 633 422 576 q 300 815 300 690 l 300 921 l 426 921 l 426 826 q 461 706 426 736 q 568 675 496 675 l 660 675 l 660 0 l 533 0 m 21 776 l 57 940 l 21 1104 l 54 1104 q 130 1067 99 1104 q 171 992 161 1031 l 563 992 q 605 1067 574 1031 q 679 1104 636 1104 l 713 1104 l 676 940 l 713 776 l 679 776 q 605 814 636 776 q 563 890 574 851 l 171 890 q 130 814 161 851 q 54 776 99 776 l 21 776 z "},"ኛ":{"ha":776,"x_min":21,"x_max":756,"o":"m 99 307 l 99 417 q 122 563 99 496 q 190 678 144 629 q 303 753 235 726 q 460 779 371 779 l 571 779 l 618 564 l 596 564 q 516 594 549 564 q 468 678 483 624 l 451 678 q 336 651 388 678 q 255 563 285 624 q 225 404 225 503 l 225 340 l 99 307 m 343 0 l 343 307 l 99 307 l 154 400 l 469 400 l 469 0 l 343 0 m 326 728 l 326 943 l 456 943 l 456 728 l 326 728 m 21 785 l 57 949 l 21 1113 l 54 1113 q 130 1076 99 1113 q 171 1000 161 1039 l 606 1000 q 648 1076 617 1039 q 722 1113 679 1113 l 756 1113 l 719 949 l 756 785 l 722 785 q 648 822 679 785 q 606 899 617 860 l 171 899 q 130 822 161 860 q 54 785 99 785 l 21 785 z "},"ኜ":{"ha":819,"x_min":21,"x_max":794,"o":"m 292 0 l 292 89 l 482 560 l 336 560 l 336 960 l 463 960 l 463 651 l 654 651 l 392 0 l 292 0 m 404 92 l 542 92 q 643 119 615 92 q 671 190 671 147 q 647 251 671 229 q 567 272 622 272 l 478 272 l 404 92 m 324 0 l 469 367 l 589 367 q 743 322 692 367 q 794 194 794 276 q 731 54 794 108 q 538 0 668 0 l 324 0 m 21 789 l 57 953 l 21 1117 l 54 1117 q 130 1080 99 1117 q 171 1004 161 1043 l 606 1004 q 648 1080 617 1043 q 722 1117 679 1117 l 756 1117 l 719 953 l 756 789 l 722 789 q 648 826 679 789 q 606 903 617 864 l 171 903 q 130 826 161 864 q 54 789 99 789 l 21 789 z "},"ኝ":{"ha":749,"x_min":21,"x_max":693,"o":"m 308 0 l 521 457 l 403 457 l 403 526 q 389 601 403 574 q 349 642 375 629 q 282 656 322 656 l 264 656 q 215 571 246 600 q 139 542 183 542 l 114 542 l 161 757 l 296 757 q 403 742 358 757 q 475 700 447 726 q 516 640 503 674 q 529 569 529 607 l 529 560 l 693 560 l 447 0 l 308 0 m 281 733 l 281 935 l 410 935 l 410 733 l 281 733 m 675 1106 l 628 890 l 68 890 l 21 1106 l 49 1106 q 124 1075 90 1106 q 171 992 157 1044 l 525 992 q 573 1075 540 1044 q 647 1106 606 1106 l 675 1106 z "},"ኞ":{"ha":936,"x_min":44,"x_max":901,"o":"m 381 0 l 381 292 l 103 292 l 103 388 q 123 534 103 465 q 190 654 143 603 q 317 735 238 706 q 515 764 397 764 l 664 764 l 515 667 q 346 632 408 667 q 256 537 283 597 q 229 399 229 476 l 507 399 l 507 0 l 381 0 m 675 397 q 501 449 553 397 q 449 578 449 501 q 506 711 449 658 q 675 764 564 764 q 846 714 790 764 q 901 582 901 664 q 844 451 901 506 q 675 397 786 397 m 353 714 l 353 960 l 479 960 l 479 714 l 353 714 m 675 490 q 753 514 728 490 q 778 581 778 538 q 752 646 778 622 q 675 669 726 669 q 598 646 624 669 q 572 581 572 622 q 598 514 572 538 q 675 490 624 490 m 44 786 l 81 950 l 44 1114 l 78 1114 q 153 1077 122 1114 q 194 1001 185 1040 l 629 1001 q 672 1077 640 1040 q 746 1114 703 1114 l 779 1114 l 743 950 l 779 786 l 746 786 q 672 824 703 786 q 629 900 640 861 l 194 900 q 153 824 185 861 q 78 786 122 786 l 44 786 z "},"ኟ":{"ha":835,"x_min":21,"x_max":814,"o":"m 21 -114 l 68 101 l 767 101 l 814 -114 l 786 -114 q 712 -83 744 -114 q 664 0 679 -51 l 171 0 q 124 -83 157 -51 q 49 -114 90 -114 l 21 -114 m 99 307 l 99 417 q 122 563 99 496 q 190 678 144 629 q 303 753 235 726 q 460 779 371 779 l 571 779 l 618 564 l 596 564 q 516 594 549 564 q 468 678 483 624 l 451 678 q 336 651 388 678 q 255 563 285 624 q 225 404 225 503 l 225 340 l 99 307 m 343 0 l 343 307 l 99 307 l 154 400 l 469 400 l 469 0 l 343 0 m 326 728 l 326 943 l 456 943 l 456 728 l 326 728 m 21 785 l 57 949 l 21 1113 l 54 1113 q 130 1076 99 1113 q 171 1000 161 1039 l 606 1000 q 648 1076 617 1039 q 722 1113 679 1113 l 756 1113 l 719 949 l 756 785 l 722 785 q 648 822 679 785 q 606 899 617 860 l 171 899 q 130 822 161 860 q 54 785 99 785 l 21 785 z "},"አ":{"ha":768,"x_min":76,"x_max":733,"o":"m 76 0 l 338 635 q 148 699 211 639 q 85 885 85 760 l 85 990 l 211 990 l 211 896 q 246 775 211 806 q 353 744 281 744 l 515 744 l 217 0 l 76 0 m 607 0 q 566 219 600 133 q 481 355 532 304 q 368 432 431 406 l 414 542 q 565 454 497 515 q 676 284 632 393 q 733 0 721 175 l 607 0 z "},"ኡ":{"ha":953,"x_min":76,"x_max":932,"o":"m 904 151 q 830 183 863 151 q 782 265 797 214 l 588 265 l 588 367 l 885 367 l 932 151 l 904 151 m 76 0 l 338 635 q 148 699 211 639 q 85 885 85 760 l 85 990 l 211 990 l 211 896 q 246 775 211 806 q 353 744 281 744 l 515 744 l 217 0 l 76 0 m 607 0 q 566 219 600 133 q 481 355 532 304 q 368 432 431 406 l 414 542 q 565 454 497 515 q 676 284 632 393 q 733 0 721 175 l 607 0 z "},"ኢ":{"ha":993,"x_min":76,"x_max":972,"o":"m 939 -114 q 865 -76 896 -114 q 822 0 833 -39 l 628 0 l 628 101 l 822 101 q 865 177 833 140 q 939 214 896 214 l 972 214 l 936 50 l 972 -114 l 939 -114 m 76 0 l 338 635 q 148 699 211 639 q 85 885 85 760 l 85 990 l 211 990 l 211 896 q 246 775 211 806 q 353 744 281 744 l 515 744 l 217 0 l 76 0 m 607 0 q 566 219 600 133 q 481 355 532 304 q 368 432 431 406 l 414 542 q 565 454 497 515 q 676 284 632 393 q 733 0 721 175 l 607 0 z "},"ኣ":{"ha":760,"x_min":76,"x_max":725,"o":"m 153 204 l 329 635 q 140 699 203 639 q 76 885 76 760 l 76 990 l 203 990 l 203 896 q 238 775 203 806 q 344 744 272 744 l 507 744 l 290 204 l 153 204 m 599 0 q 558 219 592 133 q 473 355 524 304 q 360 432 422 406 l 406 542 q 556 454 489 515 q 668 284 624 393 q 725 0 713 175 l 599 0 z "},"ኤ":{"ha":1031,"x_min":76,"x_max":1006,"o":"m 646 0 l 563 367 l 800 367 q 954 322 903 367 q 1006 194 1006 276 q 942 54 1006 108 q 749 0 879 0 l 646 0 m 689 92 l 753 92 q 854 119 826 92 q 882 190 882 147 q 858 251 882 229 q 778 272 833 272 l 647 272 l 689 92 m 76 0 l 338 635 q 148 699 211 639 q 85 885 85 760 l 85 990 l 211 990 l 211 896 q 246 775 211 806 q 353 744 281 744 l 515 744 l 217 0 l 76 0 m 607 0 q 566 219 600 133 q 481 355 532 304 q 368 432 431 406 l 414 542 q 565 454 497 515 q 676 284 632 393 q 733 0 721 175 l 607 0 z "},"እ":{"ha":768,"x_min":76,"x_max":733,"o":"m 76 0 l 317 583 l 178 583 l 243 736 q 132 803 171 751 q 93 964 93 854 l 93 992 l 219 992 l 219 968 q 238 874 219 904 q 288 836 256 844 q 364 828 321 828 l 417 828 l 354 683 l 492 683 l 432 535 q 573 446 510 507 q 678 276 636 385 q 733 0 719 168 l 607 0 q 568 211 600 128 q 489 345 536 294 q 386 424 442 396 l 217 0 l 76 0 z "},"ኦ":{"ha":739,"x_min":76,"x_max":704,"o":"m 76 0 l 338 635 q 148 699 211 639 q 85 885 85 760 l 85 990 l 211 990 l 211 896 q 246 775 211 806 q 353 744 281 744 l 515 744 l 217 0 l 76 0 m 575 192 q 490 347 544 292 q 368 432 435 403 l 414 542 q 589 430 513 510 q 704 192 665 350 l 575 192 z "},"ኧ":{"ha":861,"x_min":21,"x_max":826,"o":"m 169 0 l 426 625 l 313 625 l 313 954 l 439 954 l 439 717 l 599 717 l 525 536 q 665 447 601 507 q 770 278 728 386 q 826 0 813 171 l 700 0 q 660 213 692 131 q 583 345 629 296 q 481 425 536 394 l 308 0 l 169 0 m 21 776 l 57 940 l 21 1104 l 54 1104 q 130 1067 99 1104 q 171 992 161 1031 l 563 992 q 605 1067 574 1031 q 679 1104 636 1104 l 713 1104 l 676 940 l 713 776 l 679 776 q 605 814 636 776 q 563 890 574 851 l 171 890 q 130 814 161 851 q 54 776 99 776 l 21 776 z "},"ከ":{"ha":900,"x_min":69,"x_max":775,"o":"m 221 685 q 109 760 149 710 q 69 915 69 811 l 69 1056 l 196 1056 l 196 919 q 219 826 196 863 q 281 778 242 790 l 221 685 m 167 0 l 167 501 q 200 685 167 607 q 301 808 233 764 q 474 851 369 851 q 704 760 633 851 q 775 499 775 669 l 775 0 l 649 0 l 649 492 q 608 676 649 611 q 474 740 568 740 q 331 672 369 740 q 293 490 293 604 l 293 0 l 167 0 z "},"ኩ":{"ha":1071,"x_min":69,"x_max":1050,"o":"m 1017 278 q 942 315 974 278 q 900 392 911 353 l 706 392 l 706 493 l 900 493 q 942 569 911 532 q 1017 606 974 606 l 1050 606 l 1014 442 l 1050 278 l 1017 278 m 221 685 q 109 760 149 710 q 69 915 69 811 l 69 1056 l 196 1056 l 196 919 q 219 826 196 863 q 281 778 242 790 l 221 685 m 167 0 l 167 501 q 200 685 167 607 q 301 808 233 764 q 474 851 369 851 q 704 760 633 851 q 775 499 775 669 l 775 0 l 649 0 l 649 492 q 608 676 649 611 q 474 740 568 740 q 331 672 369 740 q 293 490 293 604 l 293 0 l 167 0 z "},"ኪ":{"ha":1071,"x_min":69,"x_max":1050,"o":"m 1017 -114 q 942 -76 974 -114 q 900 0 911 -39 l 706 0 l 706 101 l 900 101 q 942 177 911 140 q 1017 214 974 214 l 1050 214 l 1014 50 l 1050 -114 l 1017 -114 m 221 685 q 109 760 149 710 q 69 915 69 811 l 69 1056 l 196 1056 l 196 919 q 219 826 196 863 q 281 778 242 790 l 221 685 m 167 0 l 167 501 q 200 685 167 607 q 301 808 233 764 q 474 851 369 851 q 704 760 633 851 q 775 499 775 669 l 775 0 l 649 0 l 649 492 q 608 676 649 611 q 474 740 568 740 q 331 672 369 740 q 293 490 293 604 l 293 0 l 167 0 z "},"ካ":{"ha":888,"x_min":69,"x_max":763,"o":"m 221 685 q 109 760 149 710 q 69 915 69 811 l 69 1056 l 196 1056 l 196 919 q 219 826 196 863 q 281 778 242 790 l 221 685 m 636 0 l 636 492 q 596 676 636 611 q 461 740 556 740 q 319 672 357 740 q 281 490 281 604 l 281 333 l 154 333 l 154 501 q 188 685 154 607 q 289 808 221 764 q 461 851 357 851 q 634 810 568 851 q 731 689 700 768 q 763 499 763 610 l 763 0 l 636 0 z "},"ኬ":{"ha":1117,"x_min":69,"x_max":1092,"o":"m 649 0 l 649 367 l 886 367 q 1040 320 989 367 q 1092 183 1092 274 q 1035 53 1092 106 q 849 0 979 0 l 649 0 m 775 92 l 839 92 q 940 116 913 92 q 968 183 968 140 q 944 250 968 228 q 864 272 919 272 l 775 272 l 775 92 m 221 685 q 109 760 149 710 q 69 915 69 811 l 69 1056 l 196 1056 l 196 919 q 219 826 196 863 q 281 778 242 790 l 221 685 m 167 0 l 167 501 q 200 685 167 607 q 301 808 233 764 q 474 851 369 851 q 704 760 633 851 q 775 499 775 669 l 775 0 l 649 0 l 649 492 q 608 676 649 611 q 474 740 568 740 q 331 672 369 740 q 293 490 293 604 l 293 0 l 167 0 z "},"ክ":{"ha":900,"x_min":69,"x_max":775,"o":"m 649 0 l 649 492 q 608 676 649 611 q 474 740 568 740 q 331 672 369 740 q 293 490 293 604 l 293 471 l 167 471 l 167 501 q 200 685 167 607 q 301 808 233 764 q 474 851 369 851 q 704 760 633 851 q 775 499 775 669 l 775 0 l 649 0 m 167 0 l 167 263 q 194 392 167 338 q 281 476 222 446 q 436 506 340 506 l 436 394 q 345 378 376 394 q 303 330 314 361 q 293 253 293 299 l 293 0 l 167 0 m 221 685 q 109 760 149 710 q 69 915 69 811 l 69 1056 l 196 1056 l 196 919 q 219 826 196 863 q 281 778 242 790 l 221 685 z "},"ኮ":{"ha":900,"x_min":69,"x_max":789,"o":"m 221 685 q 109 760 149 710 q 69 915 69 811 l 69 1056 l 196 1056 l 196 919 q 219 826 196 863 q 281 778 242 790 l 221 685 m 307 0 l 181 0 l 181 499 q 212 689 181 610 q 310 810 243 768 q 482 851 376 851 q 655 808 588 851 q 756 685 722 764 q 789 501 789 607 l 789 333 l 663 333 l 663 490 q 624 672 663 604 q 482 740 586 740 q 347 676 388 740 q 307 492 307 611 l 307 0 z "},"ኯ":{"ha":1014,"x_min":21,"x_max":903,"o":"m 21 225 l 57 389 l 21 553 l 54 553 q 130 516 99 553 q 171 440 161 479 l 365 440 l 365 339 l 171 339 q 130 263 161 300 q 54 225 99 225 l 21 225 m 335 685 q 223 760 263 710 q 183 915 183 811 l 183 1056 l 310 1056 l 310 919 q 333 826 310 863 q 394 778 356 790 l 335 685 m 421 0 l 294 0 l 294 499 q 326 689 294 610 q 424 810 357 768 q 596 851 490 851 q 769 808 701 851 q 869 685 836 764 q 903 501 903 607 l 903 333 l 776 333 l 776 490 q 738 672 776 604 q 596 740 700 740 q 461 676 501 740 q 421 492 421 611 l 421 0 z "},"ኰ":{"ha":1357,"x_min":69,"x_max":1322,"o":"m 1096 269 q 922 322 974 269 q 869 450 869 374 q 871 470 869 461 q 874 489 872 479 l 728 489 l 728 590 l 936 590 q 1004 624 964 613 q 1096 636 1044 636 q 1267 586 1211 636 q 1322 454 1322 536 q 1265 324 1322 378 q 1096 269 1207 269 m 1096 363 q 1174 386 1149 363 q 1199 453 1199 410 q 1173 518 1199 494 q 1096 542 1147 542 q 1019 518 1044 542 q 993 453 993 494 q 1019 386 993 410 q 1096 363 1044 363 m 221 685 q 109 760 149 710 q 69 915 69 811 l 69 1056 l 196 1056 l 196 919 q 219 826 196 863 q 281 778 242 790 l 221 685 m 167 0 l 167 501 q 200 685 167 607 q 301 808 233 764 q 474 851 369 851 q 704 760 633 851 q 775 499 775 669 l 775 0 l 649 0 l 649 492 q 608 676 649 611 q 474 740 568 740 q 331 672 369 740 q 293 490 293 604 l 293 0 l 167 0 z "},"ኲ":{"ha":1251,"x_min":69,"x_max":1231,"o":"m 1203 201 q 1128 233 1161 201 q 1081 315 1096 264 l 886 315 l 886 417 l 1183 417 l 1231 201 l 1203 201 m 688 425 l 688 526 l 936 526 l 936 425 l 688 425 m 886 315 l 886 647 l 1010 647 l 1010 315 l 886 315 m 221 685 q 109 760 149 710 q 69 915 69 811 l 69 1056 l 196 1056 l 196 919 q 219 826 196 863 q 281 778 242 790 l 221 685 m 167 0 l 167 501 q 200 685 167 607 q 301 808 233 764 q 474 851 369 851 q 704 760 633 851 q 775 499 775 669 l 775 0 l 649 0 l 649 492 q 608 676 649 611 q 474 740 568 740 q 331 672 369 740 q 293 490 293 604 l 293 0 l 167 0 z "},"ኳ":{"ha":947,"x_min":69,"x_max":899,"o":"m 636 221 l 636 492 q 596 676 636 611 q 461 740 556 740 q 319 672 357 740 q 281 490 281 604 l 281 414 l 154 414 l 154 501 q 188 685 154 607 q 289 808 221 764 q 461 851 357 851 q 692 760 621 851 q 763 499 763 669 l 763 221 l 636 221 m 543 189 l 543 290 l 792 290 l 792 189 l 543 189 m 221 685 q 109 760 149 710 q 69 915 69 811 l 69 1056 l 196 1056 l 196 919 q 219 826 196 863 q 281 778 242 790 l 221 685 m 775 0 l 775 290 l 899 290 l 899 0 l 775 0 m 224 75 l 271 290 l 568 290 l 568 189 l 374 189 q 326 106 360 138 q 251 75 293 75 l 224 75 z "},"ኴ":{"ha":1104,"x_min":69,"x_max":1079,"o":"m 550 0 l 550 101 l 706 101 l 706 0 l 550 0 m 636 0 l 636 367 l 874 367 q 1028 320 976 367 q 1079 183 1079 274 q 1023 53 1079 106 q 836 0 967 0 l 636 0 m 763 92 l 826 92 q 928 116 900 92 q 956 183 956 140 q 931 250 956 228 q 851 272 907 272 l 763 272 l 763 92 m 243 -114 l 290 101 l 588 101 l 588 0 l 393 0 q 346 -83 379 -51 q 271 -114 313 -114 l 243 -114 m 221 685 q 109 760 149 710 q 69 915 69 811 l 69 1056 l 196 1056 l 196 919 q 219 826 196 863 q 281 778 242 790 l 221 685 m 636 0 l 636 492 q 596 676 636 611 q 461 740 556 740 q 319 672 357 740 q 281 490 281 604 l 281 333 l 154 333 l 154 501 q 188 685 154 607 q 289 808 221 764 q 461 851 357 851 q 634 810 568 851 q 731 689 700 768 q 763 499 763 610 l 763 0 l 636 0 z "},"ኵ":{"ha":1238,"x_min":69,"x_max":1217,"o":"m 894 511 l 894 833 l 1011 833 l 1011 511 l 894 511 m 689 511 l 689 613 l 938 613 l 938 511 l 689 511 m 1189 397 q 1115 428 1147 397 q 1067 511 1082 460 l 872 511 l 872 613 l 1169 613 l 1217 397 l 1189 397 m 221 685 q 109 760 149 710 q 69 915 69 811 l 69 1056 l 196 1056 l 196 919 q 219 826 196 863 q 281 778 242 790 l 221 685 m 167 0 l 167 501 q 200 685 167 607 q 301 808 233 764 q 474 851 369 851 q 704 760 633 851 q 775 499 775 669 l 775 0 l 649 0 l 649 492 q 608 676 649 611 q 474 740 568 740 q 331 672 369 740 q 293 490 293 604 l 293 0 l 167 0 z "},"ኸ":{"ha":1143,"x_min":21,"x_max":1018,"o":"m 410 0 l 410 424 q 443 608 410 529 q 544 730 476 686 q 717 774 613 774 q 947 683 876 774 q 1018 421 1018 592 l 1018 0 l 892 0 l 892 414 q 851 598 892 533 q 717 663 811 663 q 574 594 613 663 q 536 413 536 526 l 536 0 l 410 0 m 464 607 q 352 683 392 632 q 313 838 313 733 l 313 1006 l 439 1006 l 439 842 q 462 749 439 785 q 524 700 485 713 l 464 607 m 21 858 l 57 1022 l 21 1186 l 54 1186 q 130 1149 99 1186 q 171 1074 161 1113 l 563 1074 q 605 1149 574 1113 q 679 1186 636 1186 l 713 1186 l 676 1022 l 713 858 l 679 858 q 605 896 636 858 q 563 972 574 933 l 171 972 q 130 896 161 933 q 54 858 99 858 l 21 858 z "},"ኹ":{"ha":1317,"x_min":21,"x_max":1296,"o":"m 1268 213 q 1194 244 1226 213 q 1146 326 1161 275 l 951 326 l 951 428 l 1249 428 l 1296 213 l 1268 213 m 410 0 l 410 424 q 443 608 410 529 q 544 730 476 686 q 717 774 613 774 q 947 683 876 774 q 1018 421 1018 592 l 1018 0 l 892 0 l 892 414 q 851 598 892 533 q 717 663 811 663 q 574 594 613 663 q 536 413 536 526 l 536 0 l 410 0 m 464 607 q 352 683 392 632 q 313 838 313 733 l 313 1006 l 439 1006 l 439 842 q 462 749 439 785 q 524 700 485 713 l 464 607 m 21 858 l 57 1022 l 21 1186 l 54 1186 q 130 1149 99 1186 q 171 1074 161 1113 l 563 1074 q 605 1149 574 1113 q 679 1186 636 1186 l 713 1186 l 676 1022 l 713 858 l 679 858 q 605 896 636 858 q 563 972 574 933 l 171 972 q 130 896 161 933 q 54 858 99 858 l 21 858 z "},"ኺ":{"ha":1315,"x_min":21,"x_max":1294,"o":"m 1261 -114 q 1187 -76 1218 -114 q 1144 0 1156 -39 l 950 0 l 950 101 l 1144 101 q 1187 177 1156 140 q 1261 214 1218 214 l 1294 214 l 1258 50 l 1294 -114 l 1261 -114 m 410 0 l 410 424 q 443 608 410 529 q 544 730 476 686 q 717 774 613 774 q 947 683 876 774 q 1018 421 1018 592 l 1018 0 l 892 0 l 892 414 q 851 598 892 533 q 717 663 811 663 q 574 594 613 663 q 536 413 536 526 l 536 0 l 410 0 m 464 607 q 352 683 392 632 q 313 838 313 733 l 313 1006 l 439 1006 l 439 842 q 462 749 439 785 q 524 700 485 713 l 464 607 m 21 858 l 57 1022 l 21 1186 l 54 1186 q 130 1149 99 1186 q 171 1074 161 1113 l 563 1074 q 605 1149 574 1113 q 679 1186 636 1186 l 713 1186 l 676 1022 l 713 858 l 679 858 q 605 896 636 858 q 563 972 574 933 l 171 972 q 130 896 161 933 q 54 858 99 858 l 21 858 z "},"ኻ":{"ha":1138,"x_min":21,"x_max":1013,"o":"m 886 0 l 886 414 q 846 598 886 533 q 711 663 806 663 q 569 594 607 663 q 531 413 531 526 l 531 358 l 404 358 l 404 424 q 438 608 404 529 q 539 730 471 686 q 711 774 607 774 q 942 683 871 774 q 1013 421 1013 592 l 1013 0 l 886 0 m 458 607 q 347 683 386 632 q 307 838 307 733 l 307 978 l 433 978 l 433 842 q 456 749 433 785 q 518 700 479 713 l 458 607 m 21 858 l 57 1022 l 21 1186 l 54 1186 q 130 1149 99 1186 q 171 1074 161 1113 l 563 1074 q 605 1149 574 1113 q 679 1186 636 1186 l 713 1186 l 676 1022 l 713 858 l 679 858 q 605 896 636 858 q 563 972 574 933 l 171 972 q 130 896 161 933 q 54 858 99 858 l 21 858 z "},"ኼ":{"ha":1360,"x_min":21,"x_max":1335,"o":"m 892 0 l 892 367 l 1129 367 q 1283 320 1232 367 q 1335 183 1335 274 q 1278 53 1335 106 q 1092 0 1222 0 l 892 0 m 1018 92 l 1082 92 q 1183 116 1156 92 q 1211 183 1211 140 q 1187 250 1211 228 q 1107 272 1163 272 l 1018 272 l 1018 92 m 410 0 l 410 424 q 443 608 410 529 q 544 730 476 686 q 717 774 613 774 q 947 683 876 774 q 1018 421 1018 592 l 1018 0 l 892 0 l 892 414 q 851 598 892 533 q 717 663 811 663 q 574 594 613 663 q 536 413 536 526 l 536 0 l 410 0 m 464 607 q 352 683 392 632 q 313 838 313 733 l 313 1006 l 439 1006 l 439 842 q 462 749 439 785 q 524 700 485 713 l 464 607 m 21 858 l 57 1022 l 21 1186 l 54 1186 q 130 1149 99 1186 q 171 1074 161 1113 l 563 1074 q 605 1149 574 1113 q 679 1186 636 1186 l 713 1186 l 676 1022 l 713 858 l 679 858 q 605 896 636 858 q 563 972 574 933 l 171 972 q 130 896 161 933 q 54 858 99 858 l 21 858 z "},"ኽ":{"ha":1142,"x_min":21,"x_max":1017,"o":"m 890 0 l 890 408 q 850 592 890 528 q 715 657 810 657 q 573 589 611 657 q 535 407 535 521 l 535 388 l 408 388 l 408 418 q 442 602 408 524 q 543 724 475 681 q 715 768 611 768 q 946 677 875 768 q 1017 415 1017 586 l 1017 0 l 890 0 m 408 0 l 408 179 q 435 308 408 254 q 522 392 463 363 q 678 422 582 422 l 678 311 q 587 294 618 311 q 545 247 556 278 q 535 169 535 215 l 535 0 l 408 0 m 463 601 q 351 677 390 626 q 311 832 311 728 l 311 986 l 438 986 l 438 836 q 460 743 438 779 q 522 694 483 707 l 463 601 m 21 858 l 57 1022 l 21 1186 l 54 1186 q 130 1149 99 1186 q 171 1074 161 1113 l 563 1074 q 605 1149 574 1113 q 679 1186 636 1186 l 713 1186 l 676 1022 l 713 858 l 679 858 q 605 896 636 858 q 563 972 574 933 l 171 972 q 130 896 161 933 q 54 858 99 858 l 21 858 z "},"ኾ":{"ha":1138,"x_min":21,"x_max":1026,"o":"m 418 0 l 418 429 q 489 691 418 600 q 719 782 560 782 q 892 738 825 782 q 993 616 960 694 q 1026 432 1026 538 l 1026 264 l 900 264 l 900 421 q 862 603 900 535 q 719 671 824 671 q 585 606 625 671 q 544 422 544 542 l 544 0 l 418 0 m 458 615 q 347 691 386 640 q 307 846 307 742 l 307 1056 l 433 1056 l 433 850 q 456 757 433 793 q 518 708 479 721 l 458 615 m 21 858 l 57 1022 l 21 1186 l 54 1186 q 130 1149 99 1186 q 171 1074 161 1113 l 563 1074 q 605 1149 574 1113 q 679 1186 636 1186 l 713 1186 l 676 1022 l 713 858 l 679 858 q 605 896 636 858 q 563 972 574 933 l 171 972 q 130 896 161 933 q 54 858 99 858 l 21 858 z "},"ዀ":{"ha":1581,"x_min":21,"x_max":1546,"o":"m 1319 214 q 1145 266 1197 214 q 1093 394 1093 318 q 1094 415 1093 406 q 1097 433 1096 424 l 951 433 l 951 535 l 1160 535 q 1228 569 1188 557 q 1319 581 1268 581 q 1490 531 1435 581 q 1546 399 1546 481 q 1488 268 1546 322 q 1319 214 1431 214 m 1319 307 q 1397 331 1372 307 q 1422 397 1422 354 q 1397 463 1422 439 q 1319 486 1371 486 q 1242 463 1268 486 q 1217 397 1217 439 q 1242 331 1217 354 q 1319 307 1268 307 m 410 0 l 410 424 q 443 608 410 529 q 544 730 476 686 q 717 774 613 774 q 947 683 876 774 q 1018 421 1018 592 l 1018 0 l 892 0 l 892 414 q 851 598 892 533 q 717 663 811 663 q 574 594 613 663 q 536 413 536 526 l 536 0 l 410 0 m 464 607 q 352 683 392 632 q 313 838 313 733 l 313 1006 l 439 1006 l 439 842 q 462 749 439 785 q 524 700 485 713 l 464 607 m 21 858 l 57 1022 l 21 1186 l 54 1186 q 130 1149 99 1186 q 171 1074 161 1113 l 563 1074 q 605 1149 574 1113 q 679 1186 636 1186 l 713 1186 l 676 1022 l 713 858 l 679 858 q 605 896 636 858 q 563 972 574 933 l 171 972 q 130 896 161 933 q 54 858 99 858 l 21 858 z "},"ዂ":{"ha":1483,"x_min":21,"x_max":1463,"o":"m 1435 196 q 1360 227 1393 196 q 1313 310 1328 258 l 1132 310 l 1132 411 l 1415 411 l 1463 196 l 1435 196 m 933 419 l 933 521 l 1182 521 l 1182 419 l 933 419 m 1132 310 l 1132 642 l 1256 642 l 1256 310 l 1132 310 m 410 0 l 410 424 q 443 608 410 529 q 544 730 476 686 q 717 774 613 774 q 947 683 876 774 q 1018 421 1018 592 l 1018 0 l 892 0 l 892 414 q 851 598 892 533 q 717 663 811 663 q 574 594 613 663 q 536 413 536 526 l 536 0 l 410 0 m 464 607 q 352 683 392 632 q 313 838 313 733 l 313 1006 l 439 1006 l 439 842 q 462 749 439 785 q 524 700 485 713 l 464 607 m 21 858 l 57 1022 l 21 1186 l 54 1186 q 130 1149 99 1186 q 171 1074 161 1113 l 563 1074 q 605 1149 574 1113 q 679 1186 636 1186 l 713 1186 l 676 1022 l 713 858 l 679 858 q 605 896 636 858 q 563 972 574 933 l 171 972 q 130 896 161 933 q 54 858 99 858 l 21 858 z "},"ዃ":{"ha":1192,"x_min":21,"x_max":1171,"o":"m 868 0 l 868 414 q 828 598 868 533 q 693 663 788 663 q 551 594 589 663 q 513 413 513 526 l 513 358 l 386 358 l 386 424 q 419 608 386 529 q 521 730 453 686 q 693 774 589 774 q 924 683 853 774 q 994 421 994 592 l 994 0 l 868 0 m 440 607 q 328 683 368 632 q 289 838 289 733 l 289 978 l 415 978 l 415 842 q 438 749 415 785 q 500 700 461 713 l 440 607 m 482 -114 l 529 101 l 1124 101 l 1171 -114 l 1143 -114 q 1069 -83 1101 -114 q 1021 0 1036 -51 l 632 0 q 585 -83 618 -51 q 510 -114 551 -114 l 482 -114 m 675 1188 l 628 972 l 68 972 l 21 1188 l 49 1188 q 124 1157 90 1188 q 171 1074 157 1126 l 525 1074 q 573 1157 540 1126 q 647 1188 606 1188 l 675 1188 z "},"ዄ":{"ha":1354,"x_min":21,"x_max":1329,"o":"m 847 0 l 847 101 l 1003 101 l 1003 0 l 847 0 m 886 0 l 886 367 l 1124 367 q 1278 320 1226 367 q 1329 183 1329 274 q 1273 53 1329 106 q 1086 0 1217 0 l 886 0 m 1013 92 l 1076 92 q 1178 116 1150 92 q 1206 183 1206 140 q 1181 250 1206 228 q 1101 272 1157 272 l 1013 272 l 1013 92 m 529 -114 l 576 101 l 874 101 l 874 0 l 679 0 q 632 -83 665 -51 q 557 -114 599 -114 l 529 -114 m 886 0 l 886 414 q 846 598 886 533 q 711 663 806 663 q 569 594 607 663 q 531 413 531 526 l 531 358 l 404 358 l 404 424 q 438 608 404 529 q 539 730 471 686 q 711 774 607 774 q 942 683 871 774 q 1013 421 1013 592 l 1013 0 l 886 0 m 458 607 q 347 683 386 632 q 307 838 307 733 l 307 978 l 433 978 l 433 842 q 456 749 433 785 q 518 700 479 713 l 458 607 m 21 858 l 57 1022 l 21 1186 l 54 1186 q 130 1149 99 1186 q 171 1074 161 1113 l 563 1074 q 605 1149 574 1113 q 679 1186 636 1186 l 713 1186 l 676 1022 l 713 858 l 679 858 q 605 896 636 858 q 563 972 574 933 l 171 972 q 130 896 161 933 q 54 858 99 858 l 21 858 z "},"ዅ":{"ha":1424,"x_min":21,"x_max":1403,"o":"m 1097 475 l 1097 783 l 1214 783 l 1214 475 l 1097 475 m 919 475 l 919 576 l 1140 576 l 1140 475 l 919 475 m 1375 361 q 1301 392 1333 361 q 1253 475 1268 424 l 1058 475 l 1058 576 l 1356 576 l 1403 361 l 1375 361 m 410 0 l 410 424 q 443 608 410 529 q 544 730 476 686 q 717 774 613 774 q 947 683 876 774 q 1018 421 1018 592 l 1018 0 l 892 0 l 892 414 q 851 598 892 533 q 717 663 811 663 q 574 594 613 663 q 536 413 536 526 l 536 0 l 410 0 m 464 607 q 352 683 392 632 q 313 838 313 733 l 313 1006 l 439 1006 l 439 842 q 462 749 439 785 q 524 700 485 713 l 464 607 m 21 858 l 57 1022 l 21 1186 l 54 1186 q 130 1149 99 1186 q 171 1074 161 1113 l 563 1074 q 605 1149 574 1113 q 679 1186 636 1186 l 713 1186 l 676 1022 l 713 858 l 679 858 q 605 896 636 858 q 563 972 574 933 l 171 972 q 130 896 161 933 q 54 858 99 858 l 21 858 z "},"ወ":{"ha":1051,"x_min":97,"x_max":954,"o":"m 360 -14 q 209 38 267 -14 q 124 189 151 89 q 97 433 97 289 q 121 660 97 558 q 190 837 144 763 q 302 951 235 911 q 457 992 369 992 l 678 992 q 888 881 821 992 q 954 551 954 771 q 885 217 954 333 q 678 101 817 101 l 585 101 q 488 18 543 50 q 360 -14 433 -14 m 365 88 q 433 104 404 88 q 488 157 463 121 l 488 894 l 468 894 q 363 866 408 894 q 285 781 317 838 q 237 638 253 724 q 221 438 221 553 q 238 238 221 315 q 288 124 256 161 q 365 88 321 88 m 614 201 l 660 201 q 743 226 710 201 q 796 296 776 250 q 824 407 815 342 q 832 553 832 472 q 823 690 832 628 q 795 799 814 753 q 744 869 776 844 q 667 894 713 894 l 614 894 l 614 201 z "},"ዉ":{"ha":1182,"x_min":97,"x_max":1161,"o":"m 629 101 l 629 201 l 946 201 l 946 101 l 629 101 m 1128 -12 q 1053 25 1085 -12 q 1011 101 1022 63 l 817 101 l 817 203 l 1011 203 q 1053 278 1022 242 q 1128 315 1085 315 l 1161 315 l 1125 151 l 1161 -12 l 1128 -12 m 360 -14 q 209 38 267 -14 q 124 189 151 89 q 97 433 97 289 q 121 660 97 558 q 190 837 144 763 q 302 951 235 911 q 457 992 369 992 l 678 992 q 888 881 821 992 q 954 551 954 771 q 885 217 954 333 q 678 101 817 101 l 585 101 q 488 18 543 50 q 360 -14 433 -14 m 365 88 q 433 104 404 88 q 488 157 463 121 l 488 894 l 468 894 q 363 866 408 894 q 285 781 317 838 q 237 638 253 724 q 221 438 221 553 q 238 238 221 315 q 288 124 256 161 q 365 88 321 88 m 614 201 l 660 201 q 743 226 710 201 q 796 296 776 250 q 824 407 815 342 q 832 553 832 472 q 823 690 832 628 q 795 799 814 753 q 744 869 776 844 q 667 894 713 894 l 614 894 l 614 201 z "},"ዊ":{"ha":944,"x_min":53,"x_max":911,"o":"m 806 -114 q 731 -76 763 -114 q 689 0 700 -39 l 494 0 l 494 101 l 689 101 q 731 177 700 140 q 806 214 763 214 l 839 214 l 803 50 l 839 -114 l 806 -114 m 310 389 q 173 421 231 389 q 84 513 115 453 q 53 661 53 574 q 92 838 53 764 q 208 951 132 911 q 392 992 285 992 l 660 992 q 798 963 742 992 q 883 882 854 933 q 911 761 911 831 q 884 629 911 688 q 800 538 857 571 q 651 504 743 504 l 547 504 q 445 418 504 447 q 310 389 386 389 m 443 0 l 443 519 l 569 519 l 569 0 l 443 0 m 317 488 q 391 500 361 488 q 443 532 421 513 l 443 900 l 404 900 q 238 838 299 900 q 176 661 176 776 q 215 532 176 576 q 317 488 253 488 m 569 596 l 644 596 q 731 619 700 596 q 775 679 763 643 q 788 754 788 715 q 776 822 788 789 q 736 878 764 856 q 657 900 708 900 l 569 900 l 569 596 z "},"ዋ":{"ha":944,"x_min":53,"x_max":911,"o":"m 310 389 q 173 421 231 389 q 84 513 115 453 q 53 661 53 574 q 92 838 53 764 q 208 951 132 911 q 392 992 285 992 l 660 992 q 798 963 742 992 q 883 882 854 933 q 911 761 911 831 q 884 629 911 688 q 800 538 857 571 q 651 504 743 504 l 547 504 q 445 418 504 447 q 310 389 386 389 m 443 0 l 443 519 l 569 519 l 569 0 l 443 0 m 317 488 q 391 500 361 488 q 443 532 421 513 l 443 900 l 404 900 q 238 838 299 900 q 176 661 176 776 q 215 532 176 576 q 317 488 253 488 m 569 596 l 644 596 q 731 619 700 596 q 775 679 763 643 q 788 754 788 715 q 776 822 788 789 q 736 878 764 856 q 657 900 708 900 l 569 900 l 569 596 z "},"ዌ":{"ha":944,"x_min":53,"x_max":911,"o":"m 443 0 l 443 321 l 664 321 q 818 281 767 321 q 869 171 869 242 q 806 47 869 94 q 613 0 743 0 l 443 0 m 569 92 l 617 92 q 718 113 690 92 q 746 167 746 133 q 722 213 746 196 q 642 229 697 229 l 569 229 l 569 92 m 310 389 q 173 421 231 389 q 84 513 115 453 q 53 661 53 574 q 92 838 53 764 q 208 951 132 911 q 392 992 285 992 l 660 992 q 798 963 742 992 q 883 882 854 933 q 911 761 911 831 q 884 629 911 688 q 800 538 857 571 q 651 504 743 504 l 547 504 q 445 418 504 447 q 310 389 386 389 m 443 0 l 443 519 l 569 519 l 569 0 l 443 0 m 317 488 q 391 500 361 488 q 443 532 421 513 l 443 900 l 404 900 q 238 838 299 900 q 176 661 176 776 q 215 532 176 576 q 317 488 253 488 m 569 596 l 644 596 q 731 619 700 596 q 775 679 763 643 q 788 754 788 715 q 776 822 788 789 q 736 878 764 856 q 657 900 708 900 l 569 900 l 569 596 z "},"ው":{"ha":1210,"x_min":97,"x_max":1189,"o":"m 1156 367 q 1081 404 1113 367 q 1039 481 1050 442 l 844 481 l 844 582 l 1039 582 q 1081 658 1050 621 q 1156 694 1113 694 l 1189 694 l 1153 531 l 1189 367 l 1156 367 m 360 -14 q 209 38 267 -14 q 124 189 151 89 q 97 433 97 289 q 121 660 97 558 q 190 837 144 763 q 302 951 235 911 q 457 992 369 992 l 678 992 q 888 881 821 992 q 954 551 954 771 q 885 217 954 333 q 678 101 817 101 l 585 101 q 488 18 543 50 q 360 -14 433 -14 m 365 88 q 433 104 404 88 q 488 157 463 121 l 488 894 l 468 894 q 363 866 408 894 q 285 781 317 838 q 237 638 253 724 q 221 438 221 553 q 238 238 221 315 q 288 124 256 161 q 365 88 321 88 m 614 201 l 660 201 q 743 226 710 201 q 796 296 776 250 q 824 407 815 342 q 832 553 832 472 q 823 690 832 628 q 795 799 814 753 q 744 869 776 844 q 667 894 713 894 l 614 894 l 614 201 z "},"ዎ":{"ha":944,"x_min":53,"x_max":911,"o":"m 310 389 q 173 421 231 389 q 84 513 115 453 q 53 661 53 574 q 92 838 53 764 q 208 951 132 911 q 392 992 285 992 l 660 992 q 798 963 742 992 q 883 882 854 933 q 911 761 911 831 q 884 629 911 688 q 800 538 857 571 q 651 504 743 504 l 547 504 q 445 418 504 447 q 310 389 386 389 m 185 0 l 449 519 l 583 519 l 319 0 l 185 0 m 317 488 q 391 500 361 488 q 443 532 421 513 l 443 900 l 404 900 q 238 838 299 900 q 176 661 176 776 q 215 532 176 576 q 317 488 253 488 m 569 596 l 644 596 q 731 619 700 596 q 775 679 763 643 q 788 754 788 715 q 776 822 788 789 q 736 878 764 856 q 657 900 708 900 l 569 900 l 569 596 z "},"ዏ":{"ha":1197,"x_min":21,"x_max":1164,"o":"m 21 486 l 57 650 l 21 814 l 54 814 q 130 777 99 814 q 171 701 161 740 l 365 701 l 365 600 l 171 600 q 130 524 161 561 q 54 486 99 486 l 21 486 m 563 389 q 426 421 483 389 q 337 513 368 453 q 306 661 306 574 q 345 838 306 764 q 461 951 385 911 q 644 992 538 992 l 913 992 q 1051 963 994 992 q 1135 882 1107 933 q 1164 761 1164 831 q 1137 629 1164 688 q 1053 538 1110 571 q 904 504 996 504 l 800 504 q 698 418 757 447 q 563 389 639 389 m 438 0 l 701 519 l 836 519 l 572 0 l 438 0 m 569 488 q 644 500 614 488 q 696 532 674 513 l 696 900 l 657 900 q 490 838 551 900 q 429 661 429 776 q 467 532 429 576 q 569 488 506 488 m 822 596 l 897 596 q 984 619 953 596 q 1028 679 1015 643 q 1040 754 1040 715 q 1028 822 1040 789 q 989 878 1017 856 q 910 900 961 900 l 822 900 l 822 596 z "},"ዐ":{"ha":831,"x_min":97,"x_max":733,"o":"m 411 -14 q 233 32 303 -14 q 131 160 164 78 q 97 353 97 243 l 97 638 q 131 831 97 749 q 233 958 164 913 q 411 1004 303 1004 q 599 956 528 1004 q 701 826 669 908 q 733 640 733 743 l 733 350 q 701 165 733 247 q 599 34 669 82 q 411 -14 528 -14 m 418 97 q 533 129 492 97 q 590 217 574 161 q 607 347 607 274 l 607 643 q 590 773 607 717 q 533 861 574 829 q 418 893 492 893 q 267 828 310 893 q 224 644 224 764 l 224 346 q 267 163 224 228 q 418 97 310 97 z "},"ዑ":{"ha":1036,"x_min":97,"x_max":1015,"o":"m 988 335 q 913 366 946 335 q 865 449 881 397 l 671 449 l 671 550 l 968 550 l 1015 335 l 988 335 m 411 -14 q 233 32 303 -14 q 131 160 164 78 q 97 353 97 243 l 97 638 q 131 831 97 749 q 233 958 164 913 q 411 1004 303 1004 q 599 956 528 1004 q 701 826 669 908 q 733 640 733 743 l 733 350 q 701 165 733 247 q 599 34 669 82 q 411 -14 528 -14 m 418 97 q 533 129 492 97 q 590 217 574 161 q 607 347 607 274 l 607 643 q 590 773 607 717 q 533 861 574 829 q 418 893 492 893 q 267 828 310 893 q 224 644 224 764 l 224 346 q 267 163 224 228 q 418 97 310 97 z "},"ዒ":{"ha":901,"x_min":53,"x_max":881,"o":"m 428 0 l 428 89 l 561 413 l 442 413 q 381 396 414 401 q 308 390 347 390 q 119 450 186 390 q 53 619 53 510 l 53 778 q 117 945 53 885 q 307 1006 182 1006 q 497 945 431 1006 q 564 778 564 885 l 564 619 q 559 553 564 583 q 544 504 554 524 l 735 504 l 531 0 l 428 0 m 503 0 l 503 101 l 633 101 l 633 0 l 503 0 m 308 483 q 415 522 383 483 q 446 642 446 561 l 446 761 q 414 875 446 838 q 307 913 382 913 q 203 875 236 913 q 171 761 171 838 l 171 642 q 203 522 171 561 q 308 483 236 483 m 847 -114 q 773 -76 804 -114 q 731 0 742 -39 l 536 0 l 536 101 l 731 101 q 773 177 742 140 q 847 214 804 214 l 881 214 l 844 50 l 881 -114 l 847 -114 z "},"ዓ":{"ha":776,"x_min":53,"x_max":735,"o":"m 392 0 l 561 413 l 442 413 q 381 396 414 401 q 308 390 347 390 q 119 450 186 390 q 53 619 53 510 l 53 778 q 117 945 53 885 q 307 1006 182 1006 q 497 945 431 1006 q 564 778 564 885 l 564 619 q 559 553 564 583 q 544 504 554 524 l 735 504 l 531 0 l 392 0 m 308 483 q 415 522 383 483 q 446 642 446 561 l 446 761 q 414 875 446 838 q 307 913 382 913 q 203 875 236 913 q 171 761 171 838 l 171 642 q 203 522 171 561 q 308 483 236 483 z "},"ዔ":{"ha":958,"x_min":53,"x_max":933,"o":"m 428 0 l 428 89 l 561 413 l 442 413 q 381 396 414 401 q 308 390 347 390 q 119 450 186 390 q 53 619 53 510 l 53 778 q 117 945 53 885 q 307 1006 182 1006 q 497 945 431 1006 q 564 778 564 885 l 564 619 q 559 553 564 583 q 544 504 554 524 l 735 504 l 531 0 l 428 0 m 542 92 l 681 92 q 782 119 754 92 q 810 190 810 147 q 785 251 810 229 q 706 272 761 272 l 617 272 l 542 92 m 449 0 l 601 367 l 728 367 q 882 322 831 367 q 933 194 933 276 q 906 93 933 138 q 821 24 878 49 q 676 0 764 0 l 449 0 m 308 483 q 415 522 383 483 q 446 642 446 561 l 446 761 q 414 875 446 838 q 307 913 382 913 q 203 875 236 913 q 171 761 171 838 l 171 642 q 203 522 171 561 q 308 483 236 483 z "},"ዕ":{"ha":831,"x_min":97,"x_max":733,"o":"m 411 -14 q 233 32 303 -14 q 131 160 164 78 q 97 353 97 243 l 97 497 q 131 690 97 608 q 233 818 164 772 q 411 864 303 864 q 599 816 528 864 q 701 685 669 768 q 733 500 733 603 l 733 350 q 701 165 733 247 q 599 34 669 82 q 411 -14 528 -14 m 418 97 q 533 129 492 97 q 590 217 574 161 q 607 347 607 274 l 607 503 q 590 633 607 576 q 533 721 574 689 q 418 753 492 753 q 267 688 310 753 q 224 504 224 624 l 224 346 q 267 163 224 228 q 418 97 310 97 m 353 806 l 353 1056 l 479 1056 l 479 806 l 353 806 z "},"ዖ":{"ha":718,"x_min":56,"x_max":663,"o":"m 56 0 q 76 171 60 96 q 127 305 93 246 q 215 413 161 364 q 350 506 269 463 q 227 596 274 532 q 181 761 181 660 q 212 894 181 840 q 297 977 243 949 q 422 1006 351 1006 q 606 940 549 1006 q 663 771 663 874 q 633 627 663 686 q 553 526 603 568 q 447 450 504 485 q 319 359 368 401 q 243 268 271 317 q 202 156 215 219 q 182 0 189 92 l 56 0 m 446 572 q 516 651 493 603 q 539 761 539 699 q 508 874 539 838 q 425 911 478 911 q 333 869 364 911 q 303 758 303 828 q 344 631 303 678 q 446 572 385 583 z "},"ዘ":{"ha":763,"x_min":125,"x_max":638,"o":"m 125 0 l 125 992 l 251 992 l 251 572 l 511 572 l 511 992 l 638 992 l 638 0 l 511 0 l 511 463 l 251 463 l 251 0 l 125 0 z "},"ዙ":{"ha":939,"x_min":125,"x_max":918,"o":"m 885 351 q 810 389 842 351 q 768 465 779 426 l 574 465 l 574 567 l 768 567 q 810 642 779 606 q 885 679 842 679 l 918 679 l 882 515 l 918 351 l 885 351 m 125 0 l 125 992 l 251 992 l 251 572 l 511 572 l 511 992 l 638 992 l 638 0 l 511 0 l 511 463 l 251 463 l 251 0 l 125 0 z "},"ዚ":{"ha":940,"x_min":125,"x_max":919,"o":"m 886 -114 q 812 -76 843 -114 q 769 0 781 -39 l 575 0 l 575 101 l 769 101 q 812 177 781 140 q 886 214 843 214 l 919 214 l 883 50 l 919 -114 l 886 -114 m 125 0 l 125 992 l 251 992 l 251 572 l 511 572 l 511 992 l 638 992 l 638 0 l 511 0 l 511 463 l 251 463 l 251 0 l 125 0 z "},"ዛ":{"ha":763,"x_min":125,"x_max":638,"o":"m 511 0 l 511 463 l 251 463 l 251 246 l 125 246 l 125 992 l 251 992 l 251 572 l 511 572 l 511 992 l 638 992 l 638 0 l 511 0 z "},"ዜ":{"ha":979,"x_min":125,"x_max":954,"o":"m 511 0 l 511 367 l 749 367 q 903 320 851 367 q 954 183 954 274 q 898 53 954 106 q 711 0 842 0 l 511 0 m 638 92 l 701 92 q 803 116 775 92 q 831 183 831 140 q 806 250 831 228 q 726 272 782 272 l 638 272 l 638 92 m 125 0 l 125 992 l 251 992 l 251 572 l 511 572 l 511 992 l 638 992 l 638 0 l 511 0 l 511 463 l 251 463 l 251 0 l 125 0 z "},"ዝ":{"ha":939,"x_min":21,"x_max":814,"o":"m 301 0 l 301 722 q 282 834 301 799 q 234 880 263 869 q 175 890 206 890 l 171 890 q 126 810 157 843 q 47 776 94 776 l 21 776 l 68 992 l 188 992 q 322 965 268 992 q 401 883 375 939 q 428 738 428 828 l 428 572 l 688 572 l 688 992 l 814 992 l 814 0 l 688 0 l 688 463 l 428 463 l 428 0 l 301 0 z "},"ዞ":{"ha":763,"x_min":125,"x_max":638,"o":"m 251 0 l 125 0 l 125 992 l 251 992 l 251 572 l 511 572 l 511 992 l 638 992 l 638 246 l 511 246 l 511 463 l 251 463 l 251 0 z "},"ዟ":{"ha":860,"x_min":125,"x_max":839,"o":"m 150 -114 l 197 101 l 792 101 l 839 -114 l 811 -114 q 737 -83 769 -114 q 689 0 704 -51 l 300 0 q 253 -83 286 -51 q 178 -114 219 -114 l 150 -114 m 511 0 l 511 463 l 251 463 l 251 246 l 125 246 l 125 992 l 251 992 l 251 572 l 511 572 l 511 992 l 638 992 l 638 0 l 511 0 z "},"ዠ":{"ha":1115,"x_min":21,"x_max":1094,"o":"m 301 0 l 301 722 q 282 834 301 799 q 234 880 263 869 q 175 890 206 890 l 171 890 q 126 810 157 843 q 47 776 94 776 l 21 776 l 68 992 l 188 992 q 322 965 268 992 q 401 883 375 939 q 428 738 428 828 l 428 572 l 688 572 l 688 738 q 714 883 688 828 q 794 965 740 939 q 928 992 847 992 l 1047 992 l 1094 776 l 1068 776 q 990 810 1021 776 q 944 890 958 843 l 940 890 q 882 880 911 890 q 833 834 853 869 q 814 722 814 799 l 814 0 l 688 0 l 688 463 l 428 463 l 428 0 l 301 0 z "},"ዡ":{"ha":1115,"x_min":21,"x_max":1094,"o":"m 1067 349 q 992 380 1025 349 q 944 463 960 411 l 750 463 l 750 564 l 1047 564 l 1094 349 l 1067 349 m 301 0 l 301 722 q 282 834 301 799 q 234 880 263 869 q 175 890 206 890 l 171 890 q 126 810 157 843 q 47 776 94 776 l 21 776 l 68 992 l 188 992 q 322 965 268 992 q 401 883 375 939 q 428 738 428 828 l 428 572 l 688 572 l 688 738 q 714 883 688 828 q 794 965 740 939 q 928 992 847 992 l 1047 992 l 1094 776 l 1068 776 q 990 810 1021 776 q 944 890 958 843 l 940 890 q 882 880 911 890 q 833 834 853 869 q 814 722 814 799 l 814 0 l 688 0 l 688 463 l 428 463 l 428 0 l 301 0 z "},"ዢ":{"ha":1115,"x_min":21,"x_max":1094,"o":"m 1057 -114 q 983 -76 1014 -114 q 940 0 951 -39 l 746 0 l 746 101 l 940 101 q 983 177 951 140 q 1057 214 1014 214 l 1090 214 l 1054 50 l 1090 -114 l 1057 -114 m 301 0 l 301 722 q 282 834 301 799 q 234 880 263 869 q 175 890 206 890 l 171 890 q 126 810 157 843 q 47 776 94 776 l 21 776 l 68 992 l 188 992 q 322 965 268 992 q 401 883 375 939 q 428 738 428 828 l 428 572 l 688 572 l 688 738 q 714 883 688 828 q 794 965 740 939 q 928 992 847 992 l 1047 992 l 1094 776 l 1068 776 q 990 810 1021 776 q 944 890 958 843 l 940 890 q 882 880 911 890 q 833 834 853 869 q 814 722 814 799 l 814 0 l 688 0 l 688 463 l 428 463 l 428 0 l 301 0 z "},"ዣ":{"ha":1115,"x_min":21,"x_max":1094,"o":"m 688 0 l 688 463 l 428 463 l 428 246 l 301 246 l 301 722 q 282 834 301 799 q 234 880 263 869 q 175 890 206 890 l 171 890 q 126 810 157 843 q 47 776 94 776 l 21 776 l 68 992 l 188 992 q 322 965 268 992 q 401 883 375 939 q 428 738 428 828 l 428 572 l 688 572 l 688 738 q 714 883 688 828 q 794 965 740 939 q 928 992 847 992 l 1047 992 l 1094 776 l 1068 776 q 990 810 1021 776 q 944 890 958 843 l 940 890 q 882 880 911 890 q 833 834 853 869 q 814 722 814 799 l 814 0 l 688 0 z "},"ዤ":{"ha":1156,"x_min":21,"x_max":1131,"o":"m 688 0 l 688 367 l 925 367 q 1079 320 1028 367 q 1131 183 1131 274 q 1074 53 1131 106 q 888 0 1018 0 l 688 0 m 814 92 l 878 92 q 979 116 951 92 q 1007 183 1007 140 q 983 250 1007 228 q 903 272 958 272 l 814 272 l 814 92 m 301 0 l 301 722 q 282 834 301 799 q 234 880 263 869 q 175 890 206 890 l 171 890 q 126 810 157 843 q 47 776 94 776 l 21 776 l 68 992 l 188 992 q 322 965 268 992 q 401 883 375 939 q 428 738 428 828 l 428 572 l 688 572 l 688 738 q 714 883 688 828 q 794 965 740 939 q 928 992 847 992 l 1047 992 l 1094 776 l 1068 776 q 990 810 1021 776 q 944 890 958 843 l 940 890 q 882 880 911 890 q 833 834 853 869 q 814 722 814 799 l 814 0 l 688 0 l 688 463 l 428 463 l 428 0 l 301 0 z "},"ዥ":{"ha":1150,"x_min":21,"x_max":1129,"o":"m 336 0 l 336 492 q 317 603 336 568 q 269 649 297 639 q 210 660 240 660 l 206 660 q 160 579 192 613 q 82 546 129 546 l 56 546 l 103 761 l 222 761 q 356 735 303 761 q 436 653 410 708 q 463 507 463 597 l 463 454 l 722 454 l 722 507 q 749 653 722 597 q 828 735 775 708 q 963 761 882 761 l 1082 761 l 1129 546 l 1103 546 q 1024 579 1056 546 q 979 660 993 613 l 975 660 q 917 649 946 660 q 868 603 888 639 q 849 492 849 568 l 849 0 l 722 0 l 722 344 l 463 344 l 463 0 l 336 0 m 414 607 l 288 693 l 288 1008 l 414 1008 l 414 607 m 675 1188 l 628 972 l 68 972 l 21 1188 l 49 1188 q 124 1157 90 1188 q 171 1074 157 1126 l 525 1074 q 573 1157 540 1126 q 647 1188 606 1188 l 675 1188 z "},"ዦ":{"ha":1115,"x_min":21,"x_max":1094,"o":"m 428 0 l 301 0 l 301 722 q 282 834 301 799 q 234 880 263 869 q 175 890 206 890 l 171 890 q 126 810 157 843 q 47 776 94 776 l 21 776 l 68 992 l 188 992 q 322 965 268 992 q 401 883 375 939 q 428 738 428 828 l 428 572 l 688 572 l 688 738 q 714 883 688 828 q 794 965 740 939 q 928 992 847 992 l 1047 992 l 1094 776 l 1068 776 q 990 810 1021 776 q 944 890 958 843 l 940 890 q 882 880 911 890 q 833 834 853 869 q 814 722 814 799 l 814 246 l 688 246 l 688 463 l 428 463 l 428 0 z "},"ዧ":{"ha":1115,"x_min":21,"x_max":1094,"o":"m 346 -114 l 393 101 l 988 101 l 1035 -114 l 1007 -114 q 933 -83 965 -114 q 885 0 900 -51 l 496 0 q 449 -83 482 -51 q 374 -114 415 -114 l 346 -114 m 688 0 l 688 463 l 428 463 l 428 246 l 301 246 l 301 722 q 282 834 301 799 q 234 880 263 869 q 175 890 206 890 l 171 890 q 126 810 157 843 q 47 776 94 776 l 21 776 l 68 992 l 188 992 q 322 965 268 992 q 401 883 375 939 q 428 738 428 828 l 428 572 l 688 572 l 688 738 q 714 883 688 828 q 794 965 740 939 q 928 992 847 992 l 1047 992 l 1094 776 l 1068 776 q 990 810 1021 776 q 944 890 958 843 l 940 890 q 882 880 911 890 q 833 834 853 869 q 814 722 814 799 l 814 0 l 688 0 z "},"የ":{"ha":651,"x_min":69,"x_max":596,"o":"m 272 0 l 272 131 q 265 263 272 203 q 240 376 258 322 q 188 481 221 429 q 132 568 160 525 q 87 658 104 611 q 69 760 69 704 q 103 896 69 842 q 199 978 138 950 q 340 1006 260 1006 q 533 940 469 1006 q 596 767 596 874 q 562 635 596 692 q 467 540 528 578 q 328 482 407 501 q 371 378 356 426 q 392 278 386 331 q 399 153 399 226 l 399 0 l 272 0 m 279 567 q 421 635 369 586 q 472 767 472 685 q 437 874 472 836 q 335 911 401 911 q 232 874 269 911 q 194 768 194 838 q 219 661 194 711 q 279 567 243 611 z "},"ዩ":{"ha":710,"x_min":69,"x_max":689,"o":"m 661 132 q 587 163 619 132 q 539 246 554 194 l 344 246 l 344 347 l 642 347 l 689 132 l 661 132 m 272 0 l 272 131 q 265 263 272 203 q 240 376 258 322 q 188 481 221 429 q 132 568 160 525 q 87 658 104 611 q 69 760 69 704 q 103 896 69 842 q 199 978 138 950 q 340 1006 260 1006 q 533 940 469 1006 q 596 767 596 874 q 562 635 596 692 q 467 540 528 578 q 328 482 407 501 q 371 378 356 426 q 392 278 386 331 q 399 153 399 226 l 399 0 l 272 0 m 279 567 q 421 635 369 586 q 472 767 472 685 q 437 874 472 836 q 335 911 401 911 q 232 874 269 911 q 194 768 194 838 q 219 661 194 711 q 279 567 243 611 z "},"ዪ":{"ha":897,"x_min":69,"x_max":876,"o":"m 849 54 q 774 85 807 54 q 726 168 742 117 l 532 168 l 532 269 l 829 269 l 876 54 l 849 54 m 333 278 l 333 379 l 582 379 l 582 278 l 333 278 m 532 168 l 532 500 l 656 500 l 656 168 l 532 168 m 272 0 l 272 131 q 265 263 272 203 q 240 376 258 322 q 188 481 221 429 q 132 568 160 525 q 87 658 104 611 q 69 760 69 704 q 103 896 69 842 q 199 978 138 950 q 340 1006 260 1006 q 533 940 469 1006 q 596 767 596 874 q 562 635 596 692 q 467 540 528 578 q 328 482 407 501 q 371 378 356 426 q 392 278 386 331 q 399 153 399 226 l 399 0 l 272 0 m 279 567 q 421 635 369 586 q 472 767 472 685 q 437 874 472 836 q 335 911 401 911 q 232 874 269 911 q 194 768 194 838 q 219 661 194 711 q 279 567 243 611 z "},"ያ":{"ha":671,"x_min":21,"x_max":615,"o":"m 21 -114 l 57 50 l 21 214 l 54 214 q 130 177 99 214 q 171 101 161 140 l 365 101 l 365 0 l 171 0 q 130 -76 161 -39 q 54 -114 99 -114 l 21 -114 m 292 0 l 292 131 q 285 263 292 203 q 259 376 278 322 q 207 481 240 429 q 151 568 179 525 q 106 658 124 611 q 89 760 89 704 q 123 896 89 842 q 218 978 157 950 q 360 1006 279 1006 q 552 940 489 1006 q 615 767 615 874 q 581 635 615 692 q 487 540 547 578 q 347 482 426 501 q 390 378 375 426 q 412 278 406 331 q 418 153 418 226 l 418 0 l 292 0 m 299 567 q 440 635 389 586 q 492 767 492 685 q 456 874 492 836 q 354 911 421 911 q 251 874 289 911 q 214 768 214 838 q 238 661 214 711 q 299 567 263 611 z "},"ዬ":{"ha":893,"x_min":69,"x_max":858,"o":"m 658 79 q 543 101 588 79 q 478 159 499 122 q 458 242 458 196 q 459 258 458 250 q 461 272 460 265 l 344 272 l 344 388 l 550 388 q 601 403 574 399 q 658 408 628 408 q 809 364 760 408 q 858 246 858 319 q 835 163 858 200 q 768 102 813 125 q 658 79 724 79 m 658 171 q 722 192 701 171 q 743 246 743 213 q 722 299 743 278 q 658 319 701 319 q 595 299 617 319 q 574 246 574 278 q 594 192 574 213 q 658 171 615 171 m 272 0 l 272 131 q 265 263 272 203 q 240 376 258 322 q 188 481 221 429 q 132 568 160 525 q 87 658 104 611 q 69 760 69 704 q 103 896 69 842 q 199 978 138 950 q 340 1006 260 1006 q 533 940 469 1006 q 596 767 596 874 q 562 635 596 692 q 467 540 528 578 q 328 482 407 501 q 371 378 356 426 q 392 278 386 331 q 399 153 399 226 l 399 0 l 272 0 m 279 567 q 421 635 369 586 q 472 767 472 685 q 437 874 472 836 q 335 911 401 911 q 232 874 269 911 q 194 768 194 838 q 219 661 194 711 q 279 567 243 611 z "},"ይ":{"ha":982,"x_min":42,"x_max":906,"o":"m 607 0 q 415 47 499 0 q 274 175 331 93 q 189 367 218 257 q 160 604 160 478 q 197 840 160 751 q 301 967 233 928 q 458 1007 368 1007 q 592 978 543 1007 q 663 904 642 950 q 683 806 683 858 q 644 673 683 732 q 519 580 606 614 q 292 546 433 546 q 320 370 296 450 q 386 233 344 290 q 484 143 428 175 q 608 111 540 111 q 741 168 703 111 q 779 318 779 225 l 779 371 l 906 371 l 906 331 q 871 149 906 224 q 769 38 836 75 q 607 0 703 0 m 294 0 l 294 101 l 486 101 l 601 0 l 294 0 m 288 644 q 440 662 379 646 q 530 712 500 678 q 560 800 560 746 q 530 885 560 857 q 451 913 500 913 q 329 845 371 913 q 288 663 288 778 q 288 653 288 658 q 288 644 288 649 m 42 -114 l 89 101 l 386 101 l 386 0 l 192 0 q 144 -83 178 -51 q 69 -114 111 -114 l 42 -114 z "},"ዮ":{"ha":878,"x_min":69,"x_max":857,"o":"m 829 593 q 755 624 788 593 q 707 707 722 656 l 513 707 l 513 808 l 810 808 l 857 593 l 829 593 m 272 0 l 272 131 q 265 263 272 203 q 240 376 258 322 q 188 481 221 429 q 132 568 160 525 q 87 658 104 611 q 69 760 69 704 q 103 896 69 842 q 199 978 138 950 q 340 1006 260 1006 q 533 940 469 1006 q 596 767 596 874 q 562 635 596 692 q 467 540 528 578 q 328 482 407 501 q 371 378 356 426 q 392 278 386 331 q 399 153 399 226 l 399 0 l 272 0 m 279 567 q 421 635 369 586 q 472 767 472 685 q 437 874 472 836 q 335 911 401 911 q 232 874 269 911 q 194 768 194 838 q 219 661 194 711 q 279 567 243 611 z "},"ዯ":{"ha":1033,"x_min":21,"x_max":1013,"o":"m 21 357 l 57 521 l 21 685 l 54 685 q 130 648 99 685 q 171 572 161 611 l 365 572 l 365 471 l 171 471 q 130 394 161 432 q 54 357 99 357 l 21 357 m 428 0 l 428 131 q 421 263 428 203 q 395 376 414 322 q 343 481 376 429 q 288 568 315 525 q 242 658 260 611 q 225 760 225 704 q 259 896 225 842 q 354 978 293 950 q 496 1006 415 1006 q 688 940 625 1006 q 751 767 751 874 q 717 635 751 692 q 623 540 683 578 q 483 482 563 501 q 526 378 511 426 q 548 278 542 331 q 554 153 554 226 l 554 0 l 428 0 m 435 567 q 576 635 525 586 q 628 767 628 685 q 592 874 628 836 q 490 911 557 911 q 388 874 425 911 q 350 768 350 838 q 374 661 350 711 q 435 567 399 611 m 985 593 q 910 624 943 593 q 863 707 878 656 l 668 707 l 668 808 l 965 808 l 1013 593 l 985 593 z "},"ደ":{"ha":835,"x_min":21,"x_max":814,"o":"m 336 211 q 231 390 269 285 q 192 626 192 496 q 228 841 192 757 q 333 966 265 925 q 492 1007 400 1007 q 624 978 575 1007 q 694 904 674 950 q 715 806 715 858 q 676 673 715 732 q 551 580 638 614 q 324 546 465 546 q 385 348 333 432 q 503 211 438 264 l 336 211 m 319 644 q 472 661 411 646 q 562 711 532 676 q 592 803 592 746 q 563 884 592 856 q 485 913 533 913 q 360 845 401 913 q 319 663 319 778 q 319 653 319 658 q 319 644 319 649 m 21 0 l 68 215 l 767 215 l 814 0 l 786 0 q 712 31 744 0 q 664 114 679 63 l 171 114 q 124 31 157 63 q 49 0 90 0 l 21 0 z "},"ዱ":{"ha":1182,"x_min":21,"x_max":1161,"o":"m 1133 50 q 1059 81 1092 50 q 1011 164 1026 113 l 817 164 l 817 265 l 1114 265 l 1161 50 l 1133 50 m 572 339 q 439 381 499 350 q 337 463 379 413 q 272 579 294 514 q 250 721 250 644 q 318 930 250 853 q 519 1007 386 1007 q 657 976 608 1007 q 726 899 706 944 q 746 806 746 853 q 710 683 746 739 q 599 592 675 626 q 401 558 522 558 l 361 654 q 508 671 450 654 q 594 721 565 688 q 622 803 622 754 q 594 882 622 854 q 514 910 567 910 q 412 863 446 910 q 378 732 378 817 q 420 562 378 638 q 541 442 463 486 q 726 392 619 397 l 572 339 m 758 0 l 758 294 l 289 294 l 289 396 l 885 396 l 885 0 l 758 0 m 21 181 l 68 396 l 365 396 l 365 294 l 171 294 q 124 212 157 243 q 49 181 90 181 l 21 181 z "},"ዲ":{"ha":1185,"x_min":21,"x_max":1164,"o":"m 1131 -114 q 1056 -76 1088 -114 q 1014 0 1025 -39 l 819 0 l 819 101 l 1014 101 q 1056 177 1025 140 q 1131 214 1088 214 l 1164 214 l 1128 50 l 1164 -114 l 1131 -114 m 572 339 q 439 381 499 350 q 337 463 379 413 q 272 579 294 514 q 250 721 250 644 q 318 930 250 853 q 519 1007 386 1007 q 657 976 608 1007 q 726 899 706 944 q 746 806 746 853 q 710 683 746 739 q 599 592 675 626 q 401 558 522 558 l 361 654 q 508 671 450 654 q 594 721 565 688 q 622 803 622 754 q 594 882 622 854 q 514 910 567 910 q 412 863 446 910 q 378 732 378 817 q 420 562 378 638 q 541 442 463 486 q 726 392 619 397 l 572 339 m 758 0 l 758 294 l 289 294 l 289 396 l 885 396 l 885 0 l 758 0 m 21 181 l 68 396 l 365 396 l 365 294 l 171 294 q 124 212 157 243 q 49 181 90 181 l 21 181 z "},"ዳ":{"ha":996,"x_min":21,"x_max":885,"o":"m 572 339 q 439 381 499 350 q 337 463 379 413 q 272 579 294 514 q 250 721 250 644 q 318 930 250 853 q 519 1007 386 1007 q 657 976 608 1007 q 726 899 706 944 q 746 806 746 853 q 710 683 746 739 q 599 592 675 626 q 401 558 522 558 l 361 654 q 508 671 450 654 q 594 721 565 688 q 622 803 622 754 q 594 882 622 854 q 514 910 567 910 q 412 863 446 910 q 378 732 378 817 q 420 562 378 638 q 541 442 463 486 q 726 392 619 397 l 572 339 m 758 0 l 758 294 l 289 294 l 289 396 l 885 396 l 885 0 l 758 0 m 21 181 l 68 396 l 365 396 l 365 294 l 171 294 q 124 212 157 243 q 49 181 90 181 l 21 181 z "},"ዴ":{"ha":1007,"x_min":21,"x_max":972,"o":"m 244 197 l 244 297 l 379 297 q 295 387 333 335 q 235 509 257 439 q 213 669 213 579 q 292 925 213 843 q 513 1007 372 1007 q 644 978 596 1007 q 715 903 693 949 q 736 806 736 857 q 700 680 736 736 q 580 590 664 624 q 354 557 496 557 q 397 454 365 506 q 474 362 429 403 q 569 297 519 321 l 778 297 l 668 197 l 244 197 m 340 656 q 545 692 478 657 q 613 808 613 728 q 583 885 613 857 q 506 913 554 913 q 381 852 422 913 q 340 682 340 792 q 340 668 340 676 q 340 656 340 660 m 772 -32 q 619 15 665 -32 q 572 131 572 61 q 628 254 572 211 q 772 297 683 297 q 923 253 874 297 q 972 135 972 208 q 949 51 972 89 q 882 -10 926 13 q 772 -32 838 -32 m 772 60 q 836 81 815 60 q 857 135 857 101 q 836 188 857 167 q 772 208 815 208 q 709 188 731 208 q 688 135 688 167 q 708 81 688 101 q 772 60 729 60 m 21 83 l 68 299 l 365 299 l 365 197 l 171 197 q 124 115 157 146 q 49 83 90 83 l 21 83 z "},"ድ":{"ha":988,"x_min":21,"x_max":967,"o":"m 939 606 q 865 637 897 606 q 817 719 832 668 l 622 719 l 622 821 l 919 821 l 967 606 l 939 606 m 336 211 q 231 390 269 285 q 192 626 192 496 q 228 841 192 757 q 333 966 265 925 q 492 1007 400 1007 q 624 978 575 1007 q 694 904 674 950 q 715 806 715 858 q 676 673 715 732 q 551 580 638 614 q 324 546 465 546 q 385 348 333 432 q 503 211 438 264 l 336 211 m 319 644 q 472 661 411 646 q 562 711 532 676 q 592 803 592 746 q 563 884 592 856 q 485 913 533 913 q 360 845 401 913 q 319 663 319 778 q 319 653 319 658 q 319 644 319 649 m 21 0 l 68 215 l 767 215 l 814 0 l 786 0 q 712 31 744 0 q 664 114 679 63 l 171 114 q 124 31 157 63 q 49 0 90 0 l 21 0 z "},"ዶ":{"ha":956,"x_min":21,"x_max":935,"o":"m 524 339 q 390 381 450 350 q 288 463 331 413 q 224 579 246 514 q 201 721 201 644 q 269 930 201 853 q 471 1007 338 1007 q 608 976 560 1007 q 677 899 657 944 q 697 806 697 853 q 662 683 697 739 q 550 592 626 626 q 353 558 474 558 l 313 654 q 459 671 401 654 q 545 721 517 688 q 574 803 574 754 q 546 882 574 854 q 465 910 518 910 q 363 863 397 910 q 329 732 329 817 q 372 563 329 638 q 492 445 414 489 q 678 396 571 401 l 524 339 m 21 0 l 21 158 q 76 335 21 274 q 257 396 131 396 l 697 396 l 697 294 l 278 294 q 203 282 232 294 q 160 239 174 269 q 147 153 147 208 l 147 0 l 21 0 m 907 181 q 833 212 865 181 q 785 294 800 243 l 590 294 l 590 396 l 888 396 l 935 181 l 907 181 z "},"ዷ":{"ha":994,"x_min":21,"x_max":974,"o":"m 479 339 q 344 382 404 350 q 243 464 285 414 q 179 581 201 514 q 157 726 157 647 q 226 931 157 854 q 429 1007 294 1007 q 564 976 515 1007 q 633 898 613 944 q 653 803 653 851 q 617 682 653 738 q 506 592 582 626 q 308 558 429 558 l 268 654 q 415 671 357 654 q 501 721 472 688 q 529 803 529 754 q 501 882 529 854 q 422 910 472 910 q 319 864 354 910 q 285 728 285 818 q 328 560 285 635 q 451 440 372 485 q 633 392 529 396 l 479 339 m 610 0 l 610 294 l 224 294 l 224 396 l 736 396 l 736 0 l 610 0 m 21 181 l 68 396 l 365 396 l 365 294 l 171 294 q 124 212 157 243 q 49 181 90 181 l 21 181 m 285 -114 l 332 101 l 926 101 l 974 -114 l 946 -114 q 872 -83 904 -114 q 824 0 839 -51 l 435 0 q 388 -83 421 -51 q 313 -114 354 -114 l 285 -114 z "},"ዸ":{"ha":835,"x_min":21,"x_max":814,"o":"m 329 211 q 263 298 293 247 q 214 410 232 349 q 196 542 196 472 q 274 792 196 710 q 481 874 351 874 q 612 845 561 874 q 686 771 663 817 q 710 672 710 725 q 675 553 710 607 q 558 469 640 500 q 335 438 476 438 q 398 311 353 371 q 499 211 443 251 l 329 211 m 324 536 q 528 569 468 538 q 588 674 588 600 q 556 753 588 726 q 476 779 524 779 q 362 719 400 779 q 324 554 324 660 q 324 545 324 550 q 324 536 324 540 m 403 835 l 403 1056 l 529 1056 l 529 835 l 403 835 m 21 0 l 68 215 l 767 215 l 814 0 l 786 0 q 712 31 744 0 q 664 114 679 63 l 171 114 q 124 31 157 63 q 49 0 90 0 l 21 0 z "},"ዹ":{"ha":1163,"x_min":21,"x_max":1142,"o":"m 1114 42 q 1040 73 1072 42 q 992 156 1007 104 l 797 156 l 797 257 l 1094 257 l 1142 42 l 1114 42 m 569 306 q 435 342 494 317 q 333 407 375 367 q 269 503 292 447 q 247 629 247 558 q 316 819 247 744 q 519 893 385 893 q 653 863 606 893 q 721 789 701 833 q 740 701 740 744 q 706 588 740 640 q 595 502 671 535 q 399 469 519 469 l 358 565 q 554 599 492 565 q 617 701 617 633 q 590 770 617 744 q 513 796 563 796 q 410 752 444 796 q 375 631 375 708 q 419 489 375 549 q 541 396 463 429 q 724 358 619 363 l 569 306 m 756 0 l 756 261 l 286 261 l 286 363 l 882 363 l 882 0 l 756 0 m 446 838 l 446 1056 l 572 1056 l 572 838 l 446 838 m 21 147 l 68 363 l 365 363 l 365 261 l 171 261 q 124 178 157 210 q 49 147 90 147 l 21 147 z "},"ዺ":{"ha":1164,"x_min":21,"x_max":1143,"o":"m 1110 -114 q 1035 -76 1067 -114 q 993 0 1004 -39 l 799 0 l 799 101 l 993 101 q 1035 177 1004 140 q 1110 214 1067 214 l 1143 214 l 1107 50 l 1143 -114 l 1110 -114 m 569 306 q 435 342 494 317 q 333 407 375 367 q 269 503 292 447 q 247 629 247 558 q 316 819 247 744 q 519 893 385 893 q 653 863 606 893 q 721 789 701 833 q 740 701 740 744 q 706 588 740 640 q 595 502 671 535 q 399 469 519 469 l 358 565 q 554 599 492 565 q 617 701 617 633 q 590 770 617 744 q 513 796 563 796 q 410 752 444 796 q 375 631 375 708 q 419 489 375 549 q 541 396 463 429 q 724 358 619 363 l 569 306 m 756 0 l 756 261 l 286 261 l 286 363 l 882 363 l 882 0 l 756 0 m 446 838 l 446 1056 l 572 1056 l 572 838 l 446 838 m 21 147 l 68 363 l 365 363 l 365 261 l 171 261 q 124 178 157 210 q 49 147 90 147 l 21 147 z "},"ዻ":{"ha":993,"x_min":21,"x_max":882,"o":"m 569 306 q 435 342 494 317 q 333 407 375 367 q 269 503 292 447 q 247 629 247 558 q 316 819 247 744 q 519 893 385 893 q 653 863 606 893 q 721 789 701 833 q 740 701 740 744 q 706 588 740 640 q 595 502 671 535 q 399 469 519 469 l 358 565 q 554 599 492 565 q 617 701 617 633 q 590 770 617 744 q 513 796 563 796 q 410 752 444 796 q 375 631 375 708 q 419 489 375 549 q 541 396 463 429 q 724 358 619 363 l 569 306 m 756 0 l 756 261 l 286 261 l 286 363 l 882 363 l 882 0 l 756 0 m 446 838 l 446 1056 l 572 1056 l 572 838 l 446 838 m 21 147 l 68 363 l 365 363 l 365 261 l 171 261 q 124 178 157 210 q 49 147 90 147 l 21 147 z "},"ዼ":{"ha":965,"x_min":21,"x_max":931,"o":"m 346 293 q 278 365 311 322 q 224 464 244 407 q 203 592 203 521 q 279 813 203 733 q 499 892 356 892 q 634 863 585 892 q 705 792 683 835 q 726 704 726 749 q 692 583 726 635 q 578 503 658 532 q 356 475 497 475 q 430 373 374 424 q 560 293 486 322 l 346 293 m 288 196 l 288 297 l 719 297 l 639 196 l 288 196 m 333 568 q 478 579 418 568 q 571 619 539 590 q 603 701 603 647 q 574 771 603 744 q 496 797 544 797 q 371 741 411 797 q 331 599 331 685 q 331 582 331 589 q 333 568 332 575 m 418 858 l 418 1056 l 544 1056 l 544 858 l 418 858 m 731 -32 q 577 15 624 -32 q 531 131 531 61 q 586 254 531 211 q 731 297 642 297 q 881 253 832 297 q 931 135 931 208 q 908 51 931 89 q 840 -10 885 13 q 731 -32 796 -32 m 731 60 q 794 81 774 60 q 815 135 815 101 q 794 188 815 167 q 731 208 774 208 q 667 188 689 208 q 646 135 646 167 q 667 81 646 101 q 731 60 688 60 m 21 82 l 68 297 l 365 297 l 365 196 l 171 196 q 124 113 157 144 q 49 82 90 82 l 21 82 z "},"ዽ":{"ha":972,"x_min":21,"x_max":951,"o":"m 924 499 q 849 530 882 499 q 801 613 817 561 l 607 613 l 607 714 l 904 714 l 951 499 l 924 499 m 329 211 q 263 298 293 247 q 214 410 232 349 q 196 542 196 472 q 274 792 196 710 q 481 874 351 874 q 612 845 561 874 q 686 771 663 817 q 710 672 710 725 q 675 553 710 607 q 558 469 640 500 q 335 438 476 438 q 398 311 353 371 q 499 211 443 251 l 329 211 m 324 536 q 528 569 468 538 q 588 674 588 600 q 556 753 588 726 q 476 779 524 779 q 362 719 400 779 q 324 554 324 660 q 324 545 324 550 q 324 536 324 540 m 403 835 l 403 1056 l 529 1056 l 529 835 l 403 835 m 21 0 l 68 215 l 767 215 l 814 0 l 786 0 q 712 31 744 0 q 664 114 679 63 l 171 114 q 124 31 157 63 q 49 0 90 0 l 21 0 z "},"ዾ":{"ha":956,"x_min":21,"x_max":935,"o":"m 524 222 q 390 265 450 233 q 288 347 331 296 q 224 463 246 397 q 201 604 201 528 q 269 813 201 736 q 471 890 338 890 q 608 859 560 890 q 677 782 657 828 q 697 689 697 736 q 662 566 697 622 q 550 476 626 510 q 353 442 474 442 l 313 538 q 459 554 401 538 q 545 604 517 571 q 574 686 574 638 q 546 765 574 738 q 465 793 518 793 q 363 747 397 793 q 329 615 329 700 q 372 447 329 521 q 492 328 414 372 q 678 279 571 285 l 524 222 m 21 0 l 21 42 q 76 218 21 157 q 257 279 131 279 l 697 279 l 697 178 l 278 178 q 203 165 232 178 q 160 122 174 153 q 147 36 147 92 l 147 0 l 21 0 m 392 835 l 392 1056 l 518 1056 l 518 835 l 392 835 m 907 64 q 833 95 865 64 q 785 178 800 126 l 590 178 l 590 279 l 888 279 l 935 64 l 907 64 z "},"ዿ":{"ha":1035,"x_min":21,"x_max":1014,"o":"m 508 306 q 374 342 433 317 q 272 407 314 367 q 208 503 231 447 q 186 629 186 558 q 255 819 186 744 q 458 893 324 893 q 592 863 544 893 q 660 789 640 833 q 679 701 679 744 q 644 588 679 640 q 534 502 610 535 q 338 469 458 469 l 297 565 q 493 599 431 565 q 556 701 556 633 q 528 770 556 744 q 451 796 501 796 q 349 752 383 796 q 314 631 314 708 q 358 489 314 549 q 480 396 401 429 q 663 358 558 363 l 508 306 m 665 0 l 665 261 l 225 261 l 225 363 l 792 363 l 792 0 l 665 0 m 385 838 l 385 1056 l 511 1056 l 511 838 l 385 838 m 325 -114 l 372 101 l 967 101 l 1014 -114 l 986 -114 q 912 -83 944 -114 q 864 0 879 -51 l 475 0 q 428 -83 461 -51 q 353 -114 394 -114 l 325 -114 m 21 147 l 68 363 l 365 363 l 365 261 l 171 261 q 124 178 157 210 q 49 147 90 147 l 21 147 z "},"ጀ":{"ha":835,"x_min":21,"x_max":814,"o":"m 293 208 q 244 263 268 232 q 202 333 221 294 q 172 421 183 372 q 160 528 160 469 q 238 753 160 675 q 444 832 315 832 q 576 803 525 832 q 650 729 626 775 q 674 631 674 683 q 642 512 674 565 q 532 427 611 458 q 311 396 453 396 q 374 297 336 343 q 467 208 411 251 l 293 208 m 289 494 q 492 527 433 496 q 551 632 551 558 q 519 711 551 685 q 440 738 488 738 q 326 684 364 738 q 288 525 288 631 q 288 511 288 521 q 289 494 288 501 m 354 793 l 354 958 l 481 958 l 481 793 l 354 793 m 21 0 l 68 215 l 767 215 l 814 0 l 786 0 q 712 31 744 0 q 664 114 679 63 l 171 114 q 124 31 157 63 q 49 0 90 0 l 21 0 m 50 786 l 86 950 l 50 1114 l 83 1114 q 159 1077 128 1114 q 200 1001 190 1040 l 635 1001 q 677 1077 646 1040 q 751 1114 708 1114 l 785 1114 l 749 950 l 785 786 l 751 786 q 677 824 708 786 q 635 900 646 861 l 200 900 q 159 824 190 861 q 83 786 128 786 l 50 786 z "},"ጁ":{"ha":1178,"x_min":21,"x_max":1157,"o":"m 1129 24 q 1055 55 1088 24 q 1007 138 1022 86 l 813 138 l 813 239 l 1110 239 l 1157 24 l 1129 24 m 576 261 q 442 297 501 272 q 340 363 382 322 q 276 458 299 403 q 254 585 254 514 q 323 774 254 700 q 526 849 392 849 q 660 819 613 849 q 728 744 708 789 q 747 657 747 700 q 713 543 747 596 q 602 458 678 490 q 406 425 526 425 l 365 521 q 561 555 499 521 q 624 657 624 589 q 597 726 624 700 q 519 751 569 751 q 417 708 451 751 q 382 586 382 664 q 407 475 382 524 q 478 392 432 426 q 588 337 524 357 q 731 314 651 317 l 576 261 m 763 0 l 763 217 l 293 217 l 293 318 l 889 318 l 889 0 l 763 0 m 453 793 l 453 956 l 579 956 l 579 793 l 453 793 m 21 103 l 68 318 l 365 318 l 365 217 l 171 217 q 124 134 157 165 q 49 103 90 103 l 21 103 m 74 796 l 110 960 l 74 1124 l 107 1124 q 183 1087 151 1124 q 224 1011 214 1050 l 768 1011 q 810 1087 779 1050 q 885 1124 842 1124 l 918 1124 l 882 960 l 918 796 l 885 796 q 810 833 842 796 q 768 910 779 871 l 224 910 q 183 833 214 871 q 107 796 151 796 l 74 796 z "},"ጂ":{"ha":1169,"x_min":21,"x_max":1149,"o":"m 1115 -114 q 1041 -76 1072 -114 q 999 0 1010 -39 l 804 0 l 804 101 l 999 101 q 1041 177 1010 140 q 1115 214 1072 214 l 1149 214 l 1113 50 l 1149 -114 l 1115 -114 m 576 261 q 442 297 501 272 q 340 363 382 322 q 276 458 299 403 q 254 585 254 514 q 323 774 254 700 q 526 849 392 849 q 660 819 613 849 q 728 744 708 789 q 747 657 747 700 q 713 543 747 596 q 602 458 678 490 q 406 425 526 425 l 365 521 q 561 555 499 521 q 624 657 624 589 q 597 726 624 700 q 519 751 569 751 q 417 708 451 751 q 382 586 382 664 q 407 475 382 524 q 478 392 432 426 q 588 337 524 357 q 731 314 651 317 l 576 261 m 763 0 l 763 217 l 293 217 l 293 318 l 889 318 l 889 0 l 763 0 m 453 793 l 453 956 l 579 956 l 579 793 l 453 793 m 21 103 l 68 318 l 365 318 l 365 217 l 171 217 q 124 134 157 165 q 49 103 90 103 l 21 103 m 74 796 l 110 960 l 74 1124 l 107 1124 q 183 1087 151 1124 q 224 1011 214 1050 l 768 1011 q 810 1087 779 1050 q 885 1124 842 1124 l 918 1124 l 882 960 l 918 796 l 885 796 q 810 833 842 796 q 768 910 779 871 l 224 910 q 183 833 214 871 q 107 796 151 796 l 74 796 z "},"ጃ":{"ha":967,"x_min":21,"x_max":918,"o":"m 576 261 q 442 297 501 272 q 340 363 382 322 q 276 458 299 403 q 254 585 254 514 q 323 774 254 700 q 526 849 392 849 q 660 819 613 849 q 728 744 708 789 q 747 657 747 700 q 713 543 747 596 q 602 458 678 490 q 406 425 526 425 l 365 521 q 561 555 499 521 q 624 657 624 589 q 597 726 624 700 q 519 751 569 751 q 417 708 451 751 q 382 586 382 664 q 407 475 382 524 q 478 392 432 426 q 588 337 524 357 q 731 314 651 317 l 576 261 m 763 0 l 763 217 l 293 217 l 293 318 l 889 318 l 889 0 l 763 0 m 453 793 l 453 956 l 579 956 l 579 793 l 453 793 m 21 103 l 68 318 l 365 318 l 365 217 l 171 217 q 124 134 157 165 q 49 103 90 103 l 21 103 m 74 796 l 110 960 l 74 1124 l 107 1124 q 183 1087 151 1124 q 224 1011 214 1050 l 768 1011 q 810 1087 779 1050 q 885 1124 842 1124 l 918 1124 l 882 960 l 918 796 l 885 796 q 810 833 842 796 q 768 910 779 871 l 224 910 q 183 833 214 871 q 107 796 151 796 l 74 796 z "},"ጄ":{"ha":1074,"x_min":21,"x_max":1039,"o":"m 576 260 q 442 296 501 271 q 340 361 382 321 q 276 457 299 401 q 254 583 254 513 q 323 773 254 699 q 526 847 392 847 q 660 817 613 847 q 728 743 708 788 q 747 656 747 699 q 713 542 747 594 q 602 456 678 489 q 406 424 526 424 l 365 519 q 561 553 499 519 q 624 656 624 588 q 597 724 624 699 q 519 750 569 750 q 417 706 451 750 q 382 585 382 663 q 407 474 382 522 q 478 390 432 425 q 588 335 524 356 q 731 313 651 315 l 576 260 m 293 215 l 293 317 l 825 317 l 763 215 l 293 215 m 453 792 l 453 954 l 579 954 l 579 792 l 453 792 m 839 -12 q 685 34 732 -12 q 639 150 639 81 q 694 274 639 231 q 839 317 750 317 q 990 272 940 317 q 1039 154 1039 228 q 1016 71 1039 108 q 949 10 993 33 q 839 -12 904 -12 m 839 79 q 903 100 882 79 q 924 154 924 121 q 903 207 924 186 q 839 228 882 228 q 776 207 797 228 q 754 154 754 186 q 775 100 754 121 q 839 79 796 79 m 21 101 l 68 317 l 365 317 l 365 215 l 171 215 q 124 133 157 164 q 49 101 90 101 l 21 101 m 88 794 l 124 958 l 88 1122 l 121 1122 q 197 1085 165 1122 q 238 1010 228 1049 l 782 1010 q 824 1085 793 1049 q 899 1122 856 1122 l 932 1122 l 896 958 l 932 794 l 899 794 q 824 832 856 794 q 782 908 793 869 l 238 908 q 197 832 228 869 q 121 794 165 794 l 88 794 z "},"ጅ":{"ha":953,"x_min":21,"x_max":932,"o":"m 904 454 q 830 485 863 454 q 782 568 797 517 l 588 568 l 588 669 l 885 669 l 932 454 l 904 454 m 293 208 q 244 263 268 232 q 202 333 221 294 q 172 421 183 372 q 160 528 160 469 q 238 753 160 675 q 444 832 315 832 q 576 803 525 832 q 650 729 626 775 q 674 631 674 683 q 642 512 674 565 q 532 427 611 458 q 311 396 453 396 q 374 297 336 343 q 467 208 411 251 l 293 208 m 289 494 q 492 527 433 496 q 551 632 551 558 q 519 711 551 685 q 440 738 488 738 q 326 684 364 738 q 288 525 288 631 q 288 511 288 521 q 289 494 288 501 m 354 793 l 354 958 l 481 958 l 481 793 l 354 793 m 21 0 l 68 215 l 767 215 l 814 0 l 786 0 q 712 31 744 0 q 664 114 679 63 l 171 114 q 124 31 157 63 q 49 0 90 0 l 21 0 m 50 786 l 86 950 l 50 1114 l 83 1114 q 159 1077 128 1114 q 200 1001 190 1040 l 635 1001 q 677 1077 646 1040 q 751 1114 708 1114 l 785 1114 l 749 950 l 785 786 l 751 786 q 677 824 708 786 q 635 900 646 861 l 200 900 q 159 824 190 861 q 83 786 128 786 l 50 786 z "},"ጆ":{"ha":956,"x_min":21,"x_max":935,"o":"m 542 261 q 407 297 467 272 q 306 363 347 322 q 242 458 264 403 q 219 585 219 514 q 288 774 219 700 q 492 849 357 849 q 626 819 578 849 q 693 744 674 789 q 713 657 713 700 q 678 543 713 596 q 567 458 643 490 q 371 425 492 425 l 331 521 q 526 555 464 521 q 589 657 589 589 q 562 726 589 700 q 485 751 535 751 q 382 708 417 751 q 347 586 347 664 q 372 475 347 524 q 443 392 397 426 q 553 337 489 357 q 696 314 617 317 l 542 261 m 21 0 l 21 78 q 76 254 21 193 q 257 315 131 315 l 697 315 l 697 214 l 278 214 q 203 201 232 214 q 160 158 174 189 q 147 72 147 128 l 147 0 l 21 0 m 418 793 l 418 956 l 544 956 l 544 793 l 418 793 m 53 796 l 89 960 l 53 1124 l 86 1124 q 162 1087 131 1124 q 203 1011 193 1050 l 747 1011 q 790 1087 758 1050 q 864 1124 821 1124 l 897 1124 l 861 960 l 897 796 l 864 796 q 790 833 821 796 q 747 910 758 871 l 203 910 q 162 833 193 871 q 86 796 131 796 l 53 796 m 907 100 q 833 131 865 100 q 785 214 800 163 l 590 214 l 590 315 l 888 315 l 935 100 l 907 100 z "},"ጇ":{"ha":1136,"x_min":21,"x_max":1115,"o":"m 576 261 q 442 297 501 272 q 340 363 382 322 q 276 458 299 403 q 254 585 254 514 q 323 774 254 700 q 526 849 392 849 q 660 819 613 849 q 728 744 708 789 q 747 657 747 700 q 713 543 747 596 q 602 458 678 490 q 406 425 526 425 l 365 521 q 561 555 499 521 q 624 657 624 589 q 597 726 624 700 q 519 751 569 751 q 417 708 451 751 q 382 586 382 664 q 407 475 382 524 q 478 392 432 426 q 588 337 524 357 q 731 314 651 317 l 576 261 m 735 0 l 735 217 l 293 217 l 293 318 l 861 318 l 861 0 l 735 0 m 453 793 l 453 956 l 579 956 l 579 793 l 453 793 m 426 -114 l 474 101 l 1068 101 l 1115 -114 l 1088 -114 q 1013 -83 1046 -114 q 965 0 981 -51 l 576 0 q 529 -83 563 -51 q 454 -114 496 -114 l 426 -114 m 21 103 l 68 318 l 365 318 l 365 217 l 171 217 q 124 134 157 165 q 49 103 90 103 l 21 103 m 92 796 l 128 960 l 92 1124 l 125 1124 q 201 1087 169 1124 q 242 1011 232 1050 l 786 1011 q 828 1087 797 1050 q 903 1124 860 1124 l 936 1124 l 900 960 l 936 796 l 903 796 q 828 833 860 796 q 786 910 797 871 l 242 910 q 201 833 232 871 q 125 796 169 796 l 92 796 z "},"ገ":{"ha":793,"x_min":21,"x_max":668,"o":"m 542 0 l 542 524 q 523 706 542 635 q 463 818 504 778 q 356 874 422 858 q 197 890 290 890 l 171 890 q 119 803 153 831 q 47 776 86 776 l 21 776 l 68 992 l 200 992 q 399 974 313 992 q 547 909 486 956 q 638 778 607 863 q 668 561 668 694 l 668 0 l 542 0 z "},"ጉ":{"ha":971,"x_min":21,"x_max":950,"o":"m 922 429 q 848 460 881 429 q 800 543 815 492 l 606 543 l 606 644 l 903 644 l 950 429 l 922 429 m 542 0 l 542 524 q 523 706 542 635 q 463 818 504 778 q 356 874 422 858 q 197 890 290 890 l 171 890 q 119 803 153 831 q 47 776 86 776 l 21 776 l 68 992 l 200 992 q 399 974 313 992 q 547 909 486 956 q 638 778 607 863 q 668 561 668 694 l 668 0 l 542 0 z "},"ጊ":{"ha":971,"x_min":21,"x_max":950,"o":"m 917 -114 q 842 -76 874 -114 q 800 0 811 -39 l 606 0 l 606 101 l 800 101 q 842 177 811 140 q 917 214 874 214 l 950 214 l 914 50 l 950 -114 l 917 -114 m 542 0 l 542 524 q 523 706 542 635 q 463 818 504 778 q 356 874 422 858 q 197 890 290 890 l 171 890 q 119 803 153 831 q 47 776 86 776 l 21 776 l 68 992 l 200 992 q 399 974 313 992 q 547 909 486 956 q 638 778 607 863 q 668 561 668 694 l 668 0 l 542 0 z "},"ጋ":{"ha":813,"x_min":21,"x_max":688,"o":"m 21 -114 l 68 101 l 329 101 q 472 122 422 101 q 542 190 522 142 q 561 321 561 239 l 561 524 q 541 706 561 635 q 478 818 521 778 q 368 874 435 858 q 208 890 301 890 l 188 890 q 143 810 174 843 q 64 776 113 776 l 38 776 l 85 992 l 219 992 q 419 974 332 992 q 566 909 506 956 q 657 778 626 863 q 688 561 688 694 l 688 311 q 653 142 688 211 q 545 36 619 72 q 351 0 471 0 l 169 0 q 124 -83 156 -51 q 43 -114 92 -114 l 21 -114 z "},"ጌ":{"ha":1010,"x_min":21,"x_max":985,"o":"m 542 0 l 542 367 l 779 367 q 933 320 882 367 q 985 183 985 274 q 928 53 985 106 q 742 0 872 0 l 542 0 m 668 92 l 732 92 q 833 116 806 92 q 861 183 861 140 q 837 250 861 228 q 757 272 813 272 l 668 272 l 668 92 m 542 0 l 542 524 q 523 706 542 635 q 463 818 504 778 q 356 874 422 858 q 197 890 290 890 l 171 890 q 119 803 153 831 q 47 776 86 776 l 21 776 l 68 992 l 200 992 q 399 974 313 992 q 547 909 486 956 q 638 778 607 863 q 668 561 668 694 l 668 0 l 542 0 z "},"ግ":{"ha":1043,"x_min":35,"x_max":918,"o":"m 792 0 l 792 524 q 776 708 792 635 q 723 823 760 781 q 624 883 686 865 q 471 900 563 900 l 436 900 l 267 992 l 464 992 q 661 974 576 992 q 803 909 746 956 q 890 778 861 863 q 918 561 918 694 l 918 0 l 792 0 m 261 625 q 87 677 139 625 q 35 806 35 729 q 92 939 35 886 q 261 992 150 992 q 432 942 376 992 q 488 810 488 892 q 430 679 488 733 q 261 625 372 625 m 261 718 q 339 742 314 718 q 364 808 364 765 q 338 874 364 850 q 261 897 313 897 q 184 874 210 897 q 158 808 158 850 q 184 742 158 765 q 261 718 210 718 z "},"ጎ":{"ha":793,"x_min":21,"x_max":668,"o":"m 542 0 l 542 385 q 523 567 542 496 q 463 679 504 639 q 356 735 422 719 q 197 751 290 751 l 171 751 q 120 667 153 696 q 47 638 88 638 l 21 638 l 68 853 l 200 853 q 399 835 313 853 q 547 770 486 817 q 638 640 607 724 q 668 422 668 556 l 668 0 l 542 0 m 275 810 l 275 1056 l 401 1056 l 401 810 l 275 810 z "},"ጏ":{"ha":832,"x_min":60,"x_max":707,"o":"m 360 0 l 360 101 l 667 101 l 667 0 l 360 0 m 64 -114 l 100 50 l 64 214 l 97 214 q 173 177 142 214 q 214 101 204 140 l 408 101 l 408 0 l 214 0 q 173 -76 204 -39 q 97 -114 142 -114 l 64 -114 m 581 0 l 581 385 q 562 567 581 496 q 502 679 543 639 q 395 735 461 719 q 236 751 329 751 l 210 751 q 159 667 192 696 q 86 638 126 638 l 60 638 l 107 853 l 239 853 q 438 835 351 853 q 585 770 525 817 q 676 640 646 724 q 707 422 707 556 l 707 0 l 581 0 m 314 810 l 314 1056 l 440 1056 l 440 810 l 314 810 z "},"ጐ":{"ha":1165,"x_min":21,"x_max":1131,"o":"m 931 224 q 815 245 860 224 q 751 303 771 267 q 731 386 731 340 q 731 402 731 394 q 733 417 732 410 l 617 417 l 617 532 l 822 532 q 873 548 846 543 q 931 553 900 553 q 1081 508 1032 553 q 1131 390 1131 464 q 1108 307 1131 344 q 1040 247 1085 269 q 931 224 996 224 m 931 315 q 994 336 974 315 q 1015 390 1015 357 q 994 443 1015 422 q 931 464 974 464 q 867 443 889 464 q 846 390 846 422 q 867 336 846 357 q 931 315 888 315 m 542 0 l 542 385 q 523 567 542 496 q 463 679 504 639 q 356 735 422 719 q 197 751 290 751 l 171 751 q 120 667 153 696 q 47 638 88 638 l 21 638 l 68 853 l 200 853 q 399 835 313 853 q 547 770 486 817 q 638 640 607 724 q 668 422 668 556 l 668 0 l 542 0 m 275 810 l 275 1056 l 401 1056 l 401 810 l 275 810 z "},"ጒ":{"ha":1156,"x_min":21,"x_max":1135,"o":"m 1107 338 q 1033 369 1065 338 q 985 451 1000 400 l 804 451 l 804 553 l 1088 553 l 1135 338 l 1107 338 m 606 561 l 606 663 l 854 663 l 854 561 l 606 561 m 804 451 l 804 783 l 928 783 l 928 451 l 804 451 m 542 0 l 542 524 q 523 706 542 635 q 463 818 504 778 q 356 874 422 858 q 197 890 290 890 l 171 890 q 119 803 153 831 q 47 776 86 776 l 21 776 l 68 992 l 200 992 q 399 974 313 992 q 547 909 486 956 q 638 778 607 863 q 668 561 668 694 l 668 0 l 542 0 z "},"ጓ":{"ha":793,"x_min":21,"x_max":668,"o":"m 542 0 l 542 154 q 523 337 542 265 q 463 449 504 408 q 356 505 422 489 q 197 521 290 521 l 171 521 q 122 436 156 465 q 47 407 88 407 l 21 407 l 68 622 l 200 622 q 399 606 313 622 q 547 545 486 590 q 638 415 607 500 q 668 192 668 329 l 668 0 l 542 0 m 347 551 l 347 621 q 336 763 347 710 q 304 844 325 817 q 252 881 283 872 q 179 890 221 890 l 171 890 q 123 806 156 836 q 47 776 90 776 l 21 776 l 68 992 l 172 992 q 275 982 222 992 q 373 940 328 972 q 446 841 418 908 q 474 658 474 774 l 474 551 l 347 551 z "},"ጔ":{"ha":1010,"x_min":21,"x_max":985,"o":"m 321 0 l 321 101 l 628 101 l 628 0 l 321 0 m 21 -114 l 68 101 l 365 101 l 365 0 l 171 0 q 124 -83 157 -51 q 49 -114 90 -114 l 21 -114 m 542 0 l 542 367 l 779 367 q 933 320 882 367 q 985 183 985 274 q 928 53 985 106 q 742 0 872 0 l 542 0 m 668 92 l 732 92 q 833 116 806 92 q 861 183 861 140 q 837 250 861 228 q 757 272 813 272 l 668 272 l 668 92 m 542 0 l 542 524 q 523 706 542 635 q 463 818 504 778 q 356 874 422 858 q 197 890 290 890 l 171 890 q 119 803 153 831 q 47 776 86 776 l 21 776 l 68 992 l 200 992 q 399 974 313 992 q 547 909 486 956 q 638 778 607 863 q 668 561 668 694 l 668 0 l 542 0 z "},"ጕ":{"ha":1138,"x_min":21,"x_max":1117,"o":"m 794 503 l 794 825 l 911 825 l 911 503 l 794 503 m 589 503 l 589 604 l 838 604 l 838 503 l 589 503 m 1089 389 q 1015 420 1047 389 q 967 503 982 451 l 772 503 l 772 604 l 1069 604 l 1117 389 l 1089 389 m 542 0 l 542 524 q 523 706 542 635 q 463 818 504 778 q 356 874 422 858 q 197 890 290 890 l 171 890 q 119 803 153 831 q 47 776 86 776 l 21 776 l 68 992 l 200 992 q 399 974 313 992 q 547 909 486 956 q 638 778 607 863 q 668 561 668 694 l 668 0 l 542 0 z "},"ጘ":{"ha":838,"x_min":21,"x_max":713,"o":"m 563 0 l 563 242 q 544 424 563 353 q 484 536 525 496 q 377 592 443 576 q 218 608 311 608 l 192 608 q 140 522 174 549 q 68 494 107 494 l 42 494 l 89 710 l 221 710 q 420 692 333 710 q 567 627 507 674 q 658 497 628 581 q 689 279 689 413 l 689 0 l 563 0 m 308 657 l 308 917 l 435 917 l 435 657 l 308 657 m 21 776 l 57 940 l 21 1104 l 54 1104 q 130 1067 99 1104 q 171 992 161 1031 l 563 992 q 605 1067 574 1031 q 679 1104 636 1104 l 713 1104 l 676 940 l 713 776 l 679 776 q 605 814 636 776 q 563 890 574 851 l 171 890 q 130 814 161 851 q 54 776 99 776 l 21 776 z "},"ጙ":{"ha":988,"x_min":21,"x_max":967,"o":"m 939 239 q 865 270 897 239 q 817 353 832 301 l 622 353 l 622 454 l 919 454 l 967 239 l 939 239 m 563 0 l 563 242 q 544 424 563 353 q 484 536 525 496 q 377 592 443 576 q 218 608 311 608 l 192 608 q 140 522 174 549 q 68 494 107 494 l 42 494 l 89 710 l 221 710 q 420 692 333 710 q 567 627 507 674 q 658 497 628 581 q 689 279 689 413 l 689 0 l 563 0 m 308 657 l 308 917 l 435 917 l 435 657 l 308 657 m 21 776 l 57 940 l 21 1104 l 54 1104 q 130 1067 99 1104 q 171 992 161 1031 l 563 992 q 605 1067 574 1031 q 679 1104 636 1104 l 713 1104 l 676 940 l 713 776 l 679 776 q 605 814 636 776 q 563 890 574 851 l 171 890 q 130 814 161 851 q 54 776 99 776 l 21 776 z "},"ጚ":{"ha":982,"x_min":21,"x_max":961,"o":"m 928 -114 q 853 -76 885 -114 q 811 0 822 -39 l 617 0 l 617 101 l 811 101 q 853 177 822 140 q 928 214 885 214 l 961 214 l 925 50 l 961 -114 l 928 -114 m 563 0 l 563 242 q 544 424 563 353 q 484 536 525 496 q 377 592 443 576 q 218 608 311 608 l 192 608 q 140 522 174 549 q 68 494 107 494 l 42 494 l 89 710 l 221 710 q 420 692 333 710 q 567 627 507 674 q 658 497 628 581 q 689 279 689 413 l 689 0 l 563 0 m 308 657 l 308 917 l 435 917 l 435 657 l 308 657 m 21 776 l 57 940 l 21 1104 l 54 1104 q 130 1067 99 1104 q 171 992 161 1031 l 563 992 q 605 1067 574 1031 q 679 1104 636 1104 l 713 1104 l 676 940 l 713 776 l 679 776 q 605 814 636 776 q 563 890 574 851 l 171 890 q 130 814 161 851 q 54 776 99 776 l 21 776 z "},"ጛ":{"ha":840,"x_min":21,"x_max":715,"o":"m 49 -114 l 96 101 l 357 101 q 500 122 450 101 q 569 190 550 142 q 589 321 589 239 l 589 343 q 556 523 589 458 q 450 613 524 588 q 251 639 376 639 l 231 639 q 191 550 222 586 q 111 514 160 514 l 85 514 l 113 731 l 247 731 q 447 716 360 731 q 594 663 533 701 q 685 556 654 625 q 715 381 715 488 l 715 311 q 681 142 715 211 q 573 36 647 72 q 379 0 499 0 l 197 0 q 151 -83 183 -51 q 71 -114 119 -114 l 49 -114 m 318 657 l 318 917 l 444 917 l 444 657 l 318 657 m 21 776 l 57 940 l 21 1104 l 54 1104 q 130 1067 99 1104 q 171 992 161 1031 l 563 992 q 605 1067 574 1031 q 679 1104 636 1104 l 713 1104 l 676 940 l 713 776 l 679 776 q 605 814 636 776 q 563 890 574 851 l 171 890 q 130 814 161 851 q 54 776 99 776 l 21 776 z "},"ጜ":{"ha":1031,"x_min":21,"x_max":1006,"o":"m 563 0 l 563 367 l 800 367 q 954 320 903 367 q 1006 183 1006 274 q 949 53 1006 106 q 763 0 893 0 l 563 0 m 689 92 l 753 92 q 854 116 826 92 q 882 183 882 140 q 858 250 882 228 q 778 272 833 272 l 689 272 l 689 92 m 563 0 l 563 242 q 544 424 563 353 q 484 536 525 496 q 377 592 443 576 q 218 608 311 608 l 192 608 q 140 522 174 549 q 68 494 107 494 l 42 494 l 89 710 l 221 710 q 420 692 333 710 q 567 627 507 674 q 658 497 628 581 q 689 279 689 413 l 689 0 l 563 0 m 308 657 l 308 917 l 435 917 l 435 657 l 308 657 m 21 776 l 57 940 l 21 1104 l 54 1104 q 130 1067 99 1104 q 171 992 161 1031 l 563 992 q 605 1067 574 1031 q 679 1104 636 1104 l 713 1104 l 676 940 l 713 776 l 679 776 q 605 814 636 776 q 563 890 574 851 l 171 890 q 130 814 161 851 q 54 776 99 776 l 21 776 z "},"ጝ":{"ha":1058,"x_min":21,"x_max":933,"o":"m 807 0 l 807 257 q 791 441 807 368 q 738 556 775 514 q 640 616 701 599 q 486 633 578 633 l 451 633 l 282 725 l 479 725 q 676 707 592 725 q 819 642 761 689 q 905 512 876 596 q 933 294 933 428 l 933 0 l 807 0 m 328 678 l 328 917 l 454 917 l 454 678 l 328 678 m 21 776 l 57 940 l 21 1104 l 54 1104 q 130 1067 99 1104 q 171 992 161 1031 l 606 992 q 648 1067 617 1031 q 722 1104 679 1104 l 756 1104 l 719 940 l 756 776 l 722 776 q 648 814 679 776 q 606 890 617 851 l 171 890 q 130 814 161 851 q 54 776 99 776 l 21 776 m 283 358 q 109 410 161 358 q 57 539 57 463 q 115 672 57 619 q 283 725 172 725 q 454 675 399 725 q 510 543 510 625 q 452 413 510 467 q 283 358 394 358 m 283 451 q 361 475 336 451 q 386 542 386 499 q 360 607 386 583 q 283 631 335 631 q 206 607 232 631 q 181 542 181 583 q 206 475 181 499 q 283 451 232 451 z "},"ጞ":{"ha":886,"x_min":21,"x_max":865,"o":"m 651 0 l 651 200 q 633 383 651 311 q 573 494 614 454 q 466 551 532 535 q 307 567 400 567 l 281 567 q 230 482 263 511 q 157 453 197 453 l 131 453 l 178 668 l 310 668 q 509 650 422 668 q 656 585 596 632 q 747 455 717 539 q 778 238 778 371 l 778 0 l 651 0 m 385 583 l 385 638 q 391 680 385 660 q 410 718 397 700 q 338 746 374 725 q 279 803 303 767 q 256 893 256 840 q 310 1026 256 978 q 450 1074 364 1074 q 591 1028 540 1074 q 642 908 642 982 q 625 822 642 858 q 585 760 608 786 q 540 713 561 735 q 519 681 526 699 q 511 640 511 663 l 511 583 l 385 583 m 469 797 q 508 851 497 824 q 518 904 518 878 q 501 959 518 939 q 449 979 483 979 q 399 957 419 979 q 379 900 379 935 q 400 839 379 865 q 469 797 421 813 m 21 867 l 57 1031 l 21 1194 l 54 1194 q 130 1158 99 1194 q 171 1082 161 1121 l 715 1082 q 758 1158 726 1121 q 832 1194 789 1194 l 865 1194 l 829 1031 l 865 867 l 832 867 q 758 904 789 867 q 715 981 726 942 l 171 981 q 130 904 161 942 q 54 867 99 867 l 21 867 z "},"ጟ":{"ha":1003,"x_min":49,"x_max":982,"o":"m 189 -114 l 236 101 l 935 101 l 982 -114 l 954 -114 q 880 -83 913 -114 q 832 0 847 -51 l 339 0 q 292 -83 325 -51 q 217 -114 258 -114 l 189 -114 m 590 0 l 590 242 q 572 424 590 353 q 512 536 553 496 q 405 592 471 576 q 246 608 339 608 l 219 608 q 168 522 201 549 q 96 494 135 494 l 69 494 l 117 710 l 249 710 q 448 692 361 710 q 595 627 535 674 q 686 497 656 581 q 717 279 717 413 l 717 0 l 590 0 m 336 657 l 336 917 l 463 917 l 463 657 l 336 657 m 49 776 l 85 940 l 49 1104 l 82 1104 q 158 1067 126 1104 q 199 992 189 1031 l 590 992 q 633 1067 601 1031 q 707 1104 664 1104 l 740 1104 l 704 940 l 740 776 l 707 776 q 633 814 664 776 q 590 890 601 851 l 199 890 q 158 814 189 851 q 82 776 126 776 l 49 776 z "},"ጠ":{"ha":1354,"x_min":125,"x_max":1229,"o":"m 125 0 l 125 539 q 175 783 125 682 q 328 938 225 883 q 589 992 432 992 l 740 992 l 740 928 q 821 972 769 951 q 946 992 872 992 q 1072 968 1019 992 q 1160 899 1125 944 q 1213 788 1196 853 q 1229 640 1229 724 l 1229 0 l 1103 0 l 1103 601 q 1088 751 1103 689 q 1030 847 1072 814 q 906 881 988 881 q 810 865 854 881 q 740 826 765 849 l 740 0 l 614 0 l 614 881 q 600 881 607 881 q 586 881 593 881 q 392 839 465 881 q 285 718 318 797 q 251 525 251 639 l 251 0 l 125 0 z "},"ጡ":{"ha":1511,"x_min":125,"x_max":1490,"o":"m 1457 281 q 1383 318 1414 281 q 1340 394 1351 356 l 1146 394 l 1146 496 l 1340 496 q 1383 572 1351 535 q 1457 608 1414 608 l 1490 608 l 1454 444 l 1490 281 l 1457 281 m 125 0 l 125 539 q 175 783 125 682 q 328 938 225 883 q 589 992 432 992 l 740 992 l 740 928 q 821 972 769 951 q 946 992 872 992 q 1072 968 1019 992 q 1160 899 1125 944 q 1213 788 1196 853 q 1229 640 1229 724 l 1229 0 l 1103 0 l 1103 601 q 1088 751 1103 689 q 1030 847 1072 814 q 906 881 988 881 q 810 865 854 881 q 740 826 765 849 l 740 0 l 614 0 l 614 881 q 600 881 607 881 q 586 881 593 881 q 392 839 465 881 q 285 718 318 797 q 251 525 251 639 l 251 0 l 125 0 z "},"ጢ":{"ha":1507,"x_min":125,"x_max":1486,"o":"m 1453 -114 q 1378 -76 1410 -114 q 1336 0 1347 -39 l 1142 0 l 1142 101 l 1336 101 q 1378 177 1347 140 q 1453 214 1410 214 l 1486 214 l 1450 50 l 1486 -114 l 1453 -114 m 125 0 l 125 539 q 175 783 125 682 q 328 938 225 883 q 589 992 432 992 l 740 992 l 740 928 q 821 972 769 951 q 946 992 872 992 q 1072 968 1019 992 q 1160 899 1125 944 q 1213 788 1196 853 q 1229 640 1229 724 l 1229 0 l 1103 0 l 1103 601 q 1088 751 1103 689 q 1030 847 1072 814 q 906 881 988 881 q 810 865 854 881 q 740 826 765 849 l 740 0 l 614 0 l 614 881 q 600 881 607 881 q 586 881 593 881 q 392 839 465 881 q 285 718 318 797 q 251 525 251 639 l 251 0 l 125 0 z "},"ጣ":{"ha":1326,"x_min":125,"x_max":1201,"o":"m 1075 0 l 1075 601 q 1060 751 1075 689 q 1005 847 1046 814 q 885 881 964 881 q 824 873 854 881 q 769 853 794 865 q 726 826 743 842 l 726 329 l 600 329 l 600 881 q 586 881 593 881 q 572 881 579 881 q 388 839 458 881 q 284 718 317 797 q 251 525 251 639 l 251 329 l 125 329 l 125 539 q 175 783 125 682 q 325 938 225 883 q 575 992 425 992 l 726 992 l 726 928 q 806 972 756 951 q 925 992 857 992 q 1048 968 996 992 q 1134 899 1100 944 q 1185 788 1168 853 q 1201 640 1201 724 l 1201 0 l 1075 0 z "},"ጤ":{"ha":1571,"x_min":125,"x_max":1546,"o":"m 1103 0 l 1103 367 l 1340 367 q 1494 320 1443 367 q 1546 183 1546 274 q 1490 53 1546 106 q 1303 0 1433 0 l 1103 0 m 1229 92 l 1293 92 q 1394 116 1367 92 q 1422 183 1422 140 q 1398 250 1422 228 q 1318 272 1374 272 l 1229 272 l 1229 92 m 125 0 l 125 539 q 175 783 125 682 q 328 938 225 883 q 589 992 432 992 l 740 992 l 740 928 q 821 972 769 951 q 946 992 872 992 q 1072 968 1019 992 q 1160 899 1125 944 q 1213 788 1196 853 q 1229 640 1229 724 l 1229 0 l 1103 0 l 1103 601 q 1088 751 1103 689 q 1030 847 1072 814 q 906 881 988 881 q 810 865 854 881 q 740 826 765 849 l 740 0 l 614 0 l 614 881 q 600 881 607 881 q 586 881 593 881 q 392 839 465 881 q 285 718 318 797 q 251 525 251 639 l 251 0 l 125 0 z "},"ጥ":{"ha":1378,"x_min":125,"x_max":1253,"o":"m 685 0 l 685 513 l 561 513 l 561 881 q 547 881 554 881 q 533 881 540 881 q 315 799 378 881 q 251 549 251 718 l 251 325 l 125 325 l 125 563 q 169 801 125 706 q 306 944 214 896 q 536 992 397 992 l 688 992 l 688 908 q 740 944 707 925 q 823 978 772 964 q 946 992 874 992 q 1076 968 1019 992 q 1172 899 1133 944 q 1232 788 1211 853 q 1253 640 1253 724 l 1253 325 l 1126 325 l 1126 601 q 1078 806 1126 732 q 906 881 1029 881 q 806 868 849 881 q 733 839 763 856 q 688 807 704 822 l 688 610 l 811 610 l 811 0 l 685 0 z "},"ጦ":{"ha":1326,"x_min":125,"x_max":1201,"o":"m 125 0 l 125 539 q 175 783 125 682 q 325 938 225 883 q 575 992 425 992 l 726 992 l 726 928 q 806 972 756 951 q 925 992 857 992 q 1048 968 996 992 q 1134 899 1100 944 q 1185 788 1168 853 q 1201 640 1201 724 l 1201 329 l 1075 329 l 1075 601 q 1060 751 1075 689 q 1005 847 1046 814 q 885 881 964 881 q 795 865 839 881 q 726 826 751 849 l 726 329 l 600 329 l 600 881 q 586 881 593 881 q 572 881 579 881 q 388 839 458 881 q 284 718 317 797 q 251 525 251 639 l 251 0 l 125 0 z "},"ጧ":{"ha":1410,"x_min":125,"x_max":1389,"o":"m 700 -114 l 747 101 l 1342 101 l 1389 -114 l 1361 -114 q 1287 -83 1319 -114 q 1239 0 1254 -51 l 850 0 q 803 -83 836 -51 q 728 -114 769 -114 l 700 -114 m 1075 0 l 1075 601 q 1060 751 1075 689 q 1005 847 1046 814 q 885 881 964 881 q 824 873 854 881 q 769 853 794 865 q 726 826 743 842 l 726 329 l 600 329 l 600 881 q 586 881 593 881 q 572 881 579 881 q 388 839 458 881 q 284 718 317 797 q 251 525 251 639 l 251 329 l 125 329 l 125 539 q 175 783 125 682 q 325 938 225 883 q 575 992 425 992 l 726 992 l 726 928 q 806 972 756 951 q 925 992 857 992 q 1048 968 996 992 q 1134 899 1100 944 q 1185 788 1168 853 q 1201 640 1201 724 l 1201 0 l 1075 0 z "},"ጨ":{"ha":1524,"x_min":125,"x_max":1499,"o":"m 614 0 l 614 367 l 800 367 q 956 322 903 367 q 1010 194 1010 276 q 950 54 1010 108 q 753 0 890 0 l 614 0 m 740 92 l 757 92 q 856 119 826 92 q 886 190 886 147 q 865 251 886 229 q 778 272 843 272 l 740 272 l 740 92 m 1103 0 l 1103 367 l 1289 367 q 1445 322 1392 367 q 1499 194 1499 276 q 1439 54 1499 108 q 1242 0 1379 0 l 1103 0 m 1229 92 l 1246 92 q 1345 119 1315 92 q 1375 190 1375 147 q 1353 251 1375 229 q 1267 272 1332 272 l 1229 272 l 1229 92 m 125 0 l 125 367 l 311 367 q 467 322 414 367 q 521 194 521 276 q 461 54 521 108 q 264 0 401 0 l 125 0 m 251 92 l 268 92 q 367 119 338 92 q 397 190 397 147 q 376 251 397 229 q 289 272 354 272 l 251 272 l 251 92 m 125 0 l 125 539 q 175 783 125 682 q 328 938 225 883 q 589 992 432 992 l 740 992 l 740 928 q 821 972 769 951 q 946 992 872 992 q 1072 968 1019 992 q 1160 899 1125 944 q 1213 788 1196 853 q 1229 640 1229 724 l 1229 0 l 1103 0 l 1103 601 q 1088 751 1103 689 q 1030 847 1072 814 q 906 881 988 881 q 810 865 854 881 q 740 826 765 849 l 740 0 l 614 0 l 614 881 q 600 881 607 881 q 586 881 593 881 q 392 839 465 881 q 285 718 318 797 q 251 525 251 639 l 251 0 l 125 0 z "},"ጩ":{"ha":1519,"x_min":125,"x_max":1499,"o":"m 1440 542 q 1366 573 1399 542 q 1318 656 1333 604 l 1124 656 l 1124 757 l 1421 757 l 1468 542 l 1440 542 m 125 0 l 125 539 q 175 783 125 682 q 328 938 225 883 q 589 992 432 992 l 740 992 l 740 928 q 821 972 769 951 q 946 992 872 992 q 1072 968 1019 992 q 1160 899 1125 944 q 1213 788 1196 853 q 1229 640 1229 724 l 1229 0 l 1103 0 l 1103 601 q 1088 751 1103 689 q 1030 847 1072 814 q 906 881 988 881 q 810 865 854 881 q 740 826 765 849 l 740 0 l 614 0 l 614 881 q 600 881 607 881 q 586 881 593 881 q 392 839 465 881 q 285 718 318 797 q 251 525 251 639 l 251 0 l 125 0 m 614 0 l 614 367 l 800 367 q 956 322 903 367 q 1010 194 1010 276 q 950 54 1010 108 q 753 0 890 0 l 614 0 m 740 92 l 757 92 q 856 119 826 92 q 886 190 886 147 q 865 251 886 229 q 778 272 843 272 l 740 272 l 740 92 m 1103 0 l 1103 367 l 1289 367 q 1445 322 1392 367 q 1499 194 1499 276 q 1439 54 1499 108 q 1242 0 1379 0 l 1103 0 m 1229 92 l 1246 92 q 1345 119 1315 92 q 1375 190 1375 147 q 1353 251 1375 229 q 1267 272 1332 272 l 1229 272 l 1229 92 m 125 0 l 125 367 l 311 367 q 467 322 414 367 q 521 194 521 276 q 461 54 521 108 q 264 0 401 0 l 125 0 m 251 92 l 268 92 q 367 119 338 92 q 397 190 397 147 q 376 251 397 229 q 289 272 354 272 l 251 272 l 251 92 z "},"ጫ":{"ha":1524,"x_min":125,"x_max":1499,"o":"m 1103 0 l 1103 601 q 1088 751 1103 689 q 1030 847 1072 814 q 906 881 988 881 q 810 865 854 881 q 740 826 765 849 l 740 329 l 614 329 l 614 881 q 600 881 607 881 q 586 881 593 881 q 392 839 465 881 q 285 718 318 797 q 251 525 251 639 l 251 329 l 125 329 l 125 539 q 175 783 125 682 q 328 938 225 883 q 589 992 432 992 l 740 992 l 740 928 q 821 972 769 951 q 946 992 872 992 q 1072 968 1019 992 q 1160 899 1125 944 q 1213 788 1196 853 q 1229 640 1229 724 l 1229 0 l 1103 0 m 125 329 l 161 696 l 311 696 q 467 651 414 696 q 521 524 521 606 q 461 383 521 438 q 264 329 401 329 l 125 329 m 251 421 l 268 421 q 367 449 338 421 q 397 519 397 476 q 376 580 397 558 q 289 601 354 601 l 251 601 l 251 421 m 614 329 l 614 696 l 800 696 q 956 651 903 696 q 1010 524 1010 606 q 950 383 1010 438 q 753 329 890 329 l 614 329 m 740 421 l 757 421 q 856 449 826 421 q 886 519 886 476 q 865 580 886 558 q 778 601 843 601 l 740 601 l 740 421 m 1103 0 l 1103 367 l 1289 367 q 1445 322 1392 367 q 1499 194 1499 276 q 1439 54 1499 108 q 1242 0 1379 0 l 1103 0 m 1229 92 l 1246 92 q 1345 119 1315 92 q 1375 190 1375 147 q 1353 251 1375 229 q 1267 272 1332 272 l 1229 272 l 1229 92 z "},"ጬ":{"ha":1750,"x_min":125,"x_max":1715,"o":"m 1515 406 q 1400 427 1444 406 q 1335 485 1356 449 q 1315 568 1315 522 q 1316 584 1315 576 q 1318 599 1317 592 l 1201 599 l 1201 714 l 1407 714 q 1458 730 1431 725 q 1515 735 1485 735 q 1666 690 1617 735 q 1715 572 1715 646 q 1692 489 1715 526 q 1625 428 1669 451 q 1515 406 1581 406 m 1515 497 q 1579 518 1558 497 q 1600 572 1600 539 q 1579 625 1600 604 q 1515 646 1558 646 q 1452 625 1474 646 q 1431 572 1431 604 q 1451 518 1431 539 q 1515 497 1472 497 m 125 0 l 125 539 q 175 783 125 682 q 328 938 225 883 q 589 992 432 992 l 740 992 l 740 928 q 821 972 769 951 q 946 992 872 992 q 1072 968 1019 992 q 1160 899 1125 944 q 1213 788 1196 853 q 1229 640 1229 724 l 1229 0 l 1103 0 l 1103 601 q 1088 751 1103 689 q 1030 847 1072 814 q 906 881 988 881 q 810 865 854 881 q 740 826 765 849 l 740 0 l 614 0 l 614 881 q 600 881 607 881 q 586 881 593 881 q 392 839 465 881 q 285 718 318 797 q 251 525 251 639 l 251 0 l 125 0 m 614 0 l 614 367 l 800 367 q 956 322 903 367 q 1010 194 1010 276 q 950 54 1010 108 q 753 0 890 0 l 614 0 m 740 92 l 757 92 q 856 119 826 92 q 886 190 886 147 q 865 251 886 229 q 778 272 843 272 l 740 272 l 740 92 m 1103 0 l 1103 367 l 1289 367 q 1445 322 1392 367 q 1499 194 1499 276 q 1439 54 1499 108 q 1242 0 1379 0 l 1103 0 m 1229 92 l 1246 92 q 1345 119 1315 92 q 1375 190 1375 147 q 1353 251 1375 229 q 1267 272 1332 272 l 1229 272 l 1229 92 m 125 0 l 125 367 l 311 367 q 467 322 414 367 q 521 194 521 276 q 461 54 521 108 q 264 0 401 0 l 125 0 m 251 92 l 268 92 q 367 119 338 92 q 397 190 397 147 q 376 251 397 229 q 289 272 354 272 l 251 272 l 251 92 z "},"ጭ":{"ha":1579,"x_min":125,"x_max":1554,"o":"m 125 325 l 125 539 q 175 783 125 682 q 328 938 225 883 q 589 992 432 992 l 740 992 l 740 928 q 831 972 774 951 q 974 992 889 992 q 1113 968 1054 992 q 1209 899 1171 944 q 1266 788 1247 853 q 1285 640 1285 724 l 1285 332 l 1158 332 l 1158 601 q 1141 751 1158 689 q 1076 847 1124 814 q 933 881 1028 881 q 822 865 874 881 q 740 826 769 849 l 740 514 l 614 514 l 614 881 q 600 881 607 881 q 586 881 593 881 q 392 839 465 881 q 285 718 318 797 q 251 525 251 639 l 251 325 l 125 325 m 125 326 l 168 693 l 311 693 q 467 648 414 693 q 521 521 521 603 q 461 381 521 435 q 264 326 401 326 l 125 326 m 251 418 l 268 418 q 367 446 338 418 q 397 517 397 474 q 376 577 397 556 q 289 599 354 599 l 251 599 l 251 418 m 753 0 l 753 547 l 879 547 l 879 0 l 753 0 m 614 490 l 614 583 l 879 583 l 879 490 l 614 490 m 753 0 l 753 367 l 939 367 q 1095 322 1042 367 q 1149 194 1149 276 q 1089 54 1149 108 q 892 0 1029 0 l 753 0 m 879 92 l 896 92 q 995 119 965 92 q 1025 190 1025 147 q 1003 251 1025 229 q 917 272 982 272 l 879 272 l 879 92 m 1158 332 l 1158 699 l 1344 699 q 1501 653 1447 699 q 1554 526 1554 608 q 1494 386 1554 440 q 1297 332 1435 332 l 1158 332 m 1285 424 l 1301 424 q 1401 451 1371 424 q 1431 522 1431 479 q 1409 583 1431 561 q 1322 604 1388 604 l 1285 604 l 1285 424 z "},"ጮ":{"ha":1524,"x_min":125,"x_max":1499,"o":"m 125 0 l 125 539 q 175 783 125 682 q 328 938 225 883 q 589 992 432 992 l 740 992 l 740 928 q 821 972 769 951 q 946 992 872 992 q 1072 968 1019 992 q 1160 899 1125 944 q 1213 788 1196 853 q 1229 640 1229 724 l 1229 329 l 1103 329 l 1103 601 q 1088 751 1103 689 q 1030 847 1072 814 q 906 881 988 881 q 810 865 854 881 q 740 826 765 849 l 740 329 l 614 329 l 614 881 q 600 881 607 881 q 586 881 593 881 q 392 839 465 881 q 285 718 318 797 q 251 525 251 639 l 251 0 l 125 0 m 614 329 l 614 696 l 800 696 q 956 651 903 696 q 1010 524 1010 606 q 950 383 1010 438 q 753 329 890 329 l 614 329 m 740 421 l 757 421 q 856 449 826 421 q 886 519 886 476 q 865 580 886 558 q 778 601 843 601 l 740 601 l 740 421 m 1103 329 l 1103 696 l 1289 696 q 1445 651 1392 696 q 1499 524 1499 606 q 1439 383 1499 438 q 1242 329 1379 329 l 1103 329 m 1229 421 l 1246 421 q 1345 449 1315 421 q 1375 519 1375 476 q 1353 580 1375 558 q 1267 601 1332 601 l 1229 601 l 1229 421 m 125 0 l 125 367 l 311 367 q 467 322 414 367 q 521 194 521 276 q 461 54 521 108 q 264 0 401 0 l 125 0 m 251 92 l 268 92 q 367 119 338 92 q 397 190 397 147 q 376 251 397 229 q 289 272 354 272 l 251 272 l 251 92 z "},"ጯ":{"ha":1506,"x_min":125,"x_max":1485,"o":"m 1103 0 l 1103 601 q 1088 751 1103 689 q 1030 847 1072 814 q 906 881 988 881 q 810 865 854 881 q 740 826 765 849 l 740 329 l 614 329 l 614 881 q 600 881 607 881 q 586 881 593 881 q 392 839 465 881 q 285 718 318 797 q 251 525 251 639 l 251 329 l 125 329 l 125 539 q 175 783 125 682 q 328 938 225 883 q 589 992 432 992 l 740 992 l 740 928 q 821 972 769 951 q 946 992 872 992 q 1072 968 1019 992 q 1160 899 1125 944 q 1213 788 1196 853 q 1229 640 1229 724 l 1229 0 l 1103 0 m 125 329 l 161 696 l 311 696 q 467 651 414 696 q 521 524 521 606 q 461 383 521 438 q 264 329 401 329 l 125 329 m 251 421 l 268 421 q 367 449 338 421 q 397 519 397 476 q 376 580 397 558 q 289 601 354 601 l 251 601 l 251 421 m 692 -114 l 739 101 l 1438 101 l 1485 -114 l 1457 -114 q 1383 -83 1415 -114 q 1335 0 1350 -51 l 842 0 q 794 -83 828 -51 q 719 -114 761 -114 l 692 -114 m 615 329 l 615 696 l 801 696 q 958 651 904 696 q 1011 524 1011 606 q 951 383 1011 438 q 754 329 892 329 l 615 329 m 742 421 l 758 421 q 858 449 828 421 q 888 519 888 476 q 866 580 888 558 q 779 601 844 601 l 742 601 l 742 421 z "},"ጰ":{"ha":765,"x_min":49,"x_max":717,"o":"m 49 0 q 64 149 49 82 q 115 273 79 215 q 210 385 151 331 q 357 497 269 440 q 442 563 410 532 q 490 626 475 593 q 506 699 506 658 q 474 788 506 753 q 381 824 442 824 q 288 788 322 824 q 254 693 254 751 q 276 610 254 646 q 340 551 299 575 q 436 513 381 528 l 351 444 q 240 496 289 464 q 162 576 190 528 q 133 692 133 625 q 203 858 133 794 q 383 922 272 922 q 566 859 503 922 q 629 706 629 796 q 608 602 629 649 q 542 514 586 556 q 432 428 499 472 q 308 334 358 379 q 228 240 258 289 q 186 133 199 192 q 174 0 174 75 l 49 0 m 592 0 l 592 15 q 559 197 592 128 q 465 306 526 267 q 315 367 403 346 l 385 446 q 565 372 492 418 q 678 247 639 326 q 717 38 717 168 l 717 0 l 592 0 m 319 890 l 319 1056 l 446 1056 l 446 890 l 319 890 z "},"ጱ":{"ha":1015,"x_min":49,"x_max":994,"o":"m 569 207 l 569 308 l 743 308 l 743 207 l 569 207 m 967 93 q 892 124 925 93 q 844 207 860 156 l 650 207 l 650 308 l 947 308 l 994 93 l 967 93 m 49 0 q 64 149 49 82 q 115 273 79 215 q 210 385 151 331 q 357 497 269 440 q 442 563 410 532 q 490 626 475 593 q 506 699 506 658 q 474 788 506 753 q 381 824 442 824 q 288 788 322 824 q 254 693 254 751 q 276 610 254 646 q 340 551 299 575 q 436 513 381 528 l 351 444 q 240 496 289 464 q 162 576 190 528 q 133 692 133 625 q 203 858 133 794 q 383 922 272 922 q 566 859 503 922 q 629 706 629 796 q 608 602 629 649 q 542 514 586 556 q 432 428 499 472 q 308 334 358 379 q 228 240 258 289 q 186 133 199 192 q 174 0 174 75 l 49 0 m 592 0 l 592 15 q 559 197 592 128 q 465 306 526 267 q 315 367 403 346 l 385 446 q 565 372 492 418 q 678 247 639 326 q 717 38 717 168 l 717 0 l 592 0 m 319 890 l 319 1056 l 446 1056 l 446 890 l 319 890 z "},"ጳ":{"ha":749,"x_min":49,"x_max":700,"o":"m 49 154 q 101 277 65 221 q 195 388 136 333 q 340 497 254 442 q 426 563 393 532 q 474 626 458 593 q 489 699 489 658 q 457 788 489 753 q 364 824 425 824 q 272 788 306 824 q 238 693 238 751 q 260 610 238 646 q 323 551 282 575 q 419 513 364 528 l 335 444 q 223 496 272 464 q 145 576 174 528 q 117 692 117 625 q 186 858 117 794 q 367 922 256 922 q 549 859 486 922 q 613 706 613 796 q 591 602 613 649 q 526 514 569 556 q 415 428 482 472 q 298 340 346 382 q 220 253 250 297 q 175 154 190 208 l 49 154 m 575 0 l 575 15 q 542 197 575 128 q 448 306 510 267 q 299 367 386 346 l 368 446 q 549 372 475 418 q 661 247 622 326 q 700 38 700 168 l 700 0 l 575 0 m 303 890 l 303 1056 l 429 1056 l 429 890 l 303 890 z "},"ጴ":{"ha":1029,"x_min":49,"x_max":994,"o":"m 49 0 q 64 149 49 82 q 115 273 79 215 q 210 385 151 331 q 357 497 269 440 q 442 563 410 532 q 490 626 475 593 q 506 699 506 658 q 474 788 506 753 q 381 824 442 824 q 288 788 322 824 q 254 693 254 751 q 276 610 254 646 q 340 551 299 575 q 436 513 381 528 l 351 444 q 240 496 289 464 q 162 576 190 528 q 133 692 133 625 q 203 858 133 794 q 383 922 272 922 q 566 859 503 922 q 629 706 629 796 q 608 602 629 649 q 542 514 586 556 q 432 428 499 472 q 308 334 358 379 q 228 240 258 289 q 186 133 199 192 q 174 0 174 75 l 49 0 m 800 -25 q 694 1 733 -25 q 631 74 656 28 q 582 176 606 119 q 527 261 563 226 q 443 320 492 296 q 335 360 394 344 l 432 431 q 526 392 483 415 q 603 338 569 368 q 661 269 638 307 q 717 314 682 293 q 800 335 753 335 q 947 283 900 335 q 994 161 994 231 q 975 73 994 115 q 913 3 956 31 q 800 -25 871 -25 m 803 67 q 867 96 847 67 q 886 158 886 125 q 867 215 886 188 q 803 243 847 243 q 735 215 754 243 q 717 158 717 188 q 736 96 717 125 q 803 67 756 67 m 319 890 l 319 1056 l 446 1056 l 446 890 l 319 890 z "},"ጵ":{"ha":906,"x_min":49,"x_max":885,"o":"m 857 540 q 783 572 815 540 q 735 654 750 603 l 540 654 l 540 756 l 838 756 l 885 540 l 857 540 m 49 0 q 64 149 49 82 q 115 273 79 215 q 210 385 151 331 q 357 497 269 440 q 442 563 410 532 q 490 626 475 593 q 506 699 506 658 q 474 788 506 753 q 381 824 442 824 q 288 788 322 824 q 254 693 254 751 q 276 610 254 646 q 340 551 299 575 q 436 513 381 528 l 351 444 q 240 496 289 464 q 162 576 190 528 q 133 692 133 625 q 203 858 133 794 q 383 922 272 922 q 566 859 503 922 q 629 706 629 796 q 608 602 629 649 q 542 514 586 556 q 432 428 499 472 q 308 334 358 379 q 228 240 258 289 q 186 133 199 192 q 174 0 174 75 l 49 0 m 592 0 l 592 15 q 559 197 592 128 q 465 306 526 267 q 315 367 403 346 l 385 446 q 565 372 492 418 q 678 247 639 326 q 717 38 717 168 l 717 0 l 592 0 m 319 890 l 319 1056 l 446 1056 l 446 890 l 319 890 z "},"ጶ":{"ha":753,"x_min":49,"x_max":704,"o":"m 49 0 q 64 149 49 82 q 115 273 79 215 q 210 385 151 331 q 357 497 269 440 q 442 563 410 532 q 490 626 475 593 q 506 699 506 658 q 474 788 506 753 q 381 824 442 824 q 288 788 322 824 q 254 693 254 751 q 276 610 254 646 q 340 551 299 575 q 436 513 381 528 l 351 444 q 240 496 289 464 q 162 576 190 528 q 133 692 133 625 q 203 858 133 794 q 383 922 272 922 q 566 859 503 922 q 629 706 629 796 q 608 602 629 649 q 542 514 586 556 q 432 428 499 472 q 308 334 358 379 q 228 240 258 289 q 186 133 199 192 q 174 0 174 75 l 49 0 m 569 169 q 475 299 540 254 q 315 367 410 343 l 385 446 q 596 352 514 413 q 704 169 678 292 l 569 169 m 319 890 l 319 1056 l 446 1056 l 446 890 l 319 890 z "},"ጷ":{"ha":946,"x_min":49,"x_max":925,"o":"m 236 -114 l 283 101 l 878 101 l 925 -114 l 897 -114 q 823 -83 856 -114 q 775 0 790 -51 l 386 0 q 339 -83 372 -51 q 264 -114 306 -114 l 236 -114 m 49 154 q 101 277 65 221 q 195 388 136 333 q 340 497 254 442 q 426 563 393 532 q 474 626 458 593 q 489 699 489 658 q 457 788 489 753 q 364 824 425 824 q 272 788 306 824 q 238 693 238 751 q 260 610 238 646 q 323 551 282 575 q 419 513 364 528 l 335 444 q 223 496 272 464 q 145 576 174 528 q 117 692 117 625 q 186 858 117 794 q 367 922 256 922 q 549 859 486 922 q 613 706 613 796 q 591 602 613 649 q 526 514 569 556 q 415 428 482 472 q 298 340 346 382 q 220 253 250 297 q 175 154 190 208 l 49 154 m 575 0 l 575 15 q 542 197 575 128 q 448 306 510 267 q 299 367 386 346 l 368 446 q 549 372 475 418 q 661 247 622 326 q 700 38 700 168 l 700 0 l 575 0 m 303 890 l 303 1056 l 429 1056 l 429 890 l 303 890 z "},"ጸ":{"ha":765,"x_min":49,"x_max":717,"o":"m 49 0 q 64 191 49 108 q 115 340 79 274 q 210 465 151 407 q 357 581 269 524 q 442 646 410 615 q 490 709 475 676 q 506 782 506 742 q 474 872 506 836 q 381 907 442 907 q 288 871 322 907 q 254 776 254 835 q 276 694 254 729 q 340 635 299 658 q 436 596 381 611 l 351 528 q 240 579 289 547 q 162 660 190 611 q 133 775 133 708 q 203 942 133 878 q 383 1006 272 1006 q 566 942 503 1006 q 629 789 629 879 q 608 685 629 732 q 542 597 586 639 q 432 511 499 556 q 308 414 358 463 q 228 308 258 365 q 186 176 199 250 q 174 0 174 101 l 49 0 m 592 0 l 592 43 q 559 258 592 176 q 465 385 526 340 q 315 450 403 429 l 385 529 q 565 444 492 501 q 678 295 639 388 q 717 65 717 203 l 717 0 l 592 0 z "},"ጹ":{"ha":988,"x_min":49,"x_max":967,"o":"m 939 79 q 865 110 897 79 q 817 193 832 142 l 622 193 l 622 294 l 919 294 l 967 79 l 939 79 m 49 0 q 64 191 49 108 q 115 340 79 274 q 210 465 151 407 q 357 581 269 524 q 442 646 410 615 q 490 709 475 676 q 506 782 506 742 q 474 872 506 836 q 381 907 442 907 q 288 871 322 907 q 254 776 254 835 q 276 694 254 729 q 340 635 299 658 q 436 596 381 611 l 351 528 q 240 579 289 547 q 162 660 190 611 q 133 775 133 708 q 203 942 133 878 q 383 1006 272 1006 q 566 942 503 1006 q 629 789 629 879 q 608 685 629 732 q 542 597 586 639 q 432 511 499 556 q 308 414 358 463 q 228 308 258 365 q 186 176 199 250 q 174 0 174 101 l 49 0 m 592 0 l 592 43 q 559 258 592 176 q 465 385 526 340 q 315 450 403 429 l 385 529 q 565 444 492 501 q 678 295 639 388 q 717 65 717 203 l 717 0 l 592 0 z "},"ጺ":{"ha":1003,"x_min":49,"x_max":982,"o":"m 949 -114 q 874 -76 906 -114 q 832 0 843 -39 l 638 0 l 638 101 l 832 101 q 874 177 843 140 q 949 214 906 214 l 982 214 l 946 50 l 982 -114 l 949 -114 m 49 0 q 64 191 49 108 q 115 340 79 274 q 210 465 151 407 q 357 581 269 524 q 442 646 410 615 q 490 709 475 676 q 506 782 506 742 q 474 872 506 836 q 381 907 442 907 q 288 871 322 907 q 254 776 254 835 q 276 694 254 729 q 340 635 299 658 q 436 596 381 611 l 351 528 q 240 579 289 547 q 162 660 190 611 q 133 775 133 708 q 203 942 133 878 q 383 1006 272 1006 q 566 942 503 1006 q 629 789 629 879 q 608 685 629 732 q 542 597 586 639 q 432 511 499 556 q 308 414 358 463 q 228 308 258 365 q 186 176 199 250 q 174 0 174 101 l 49 0 m 592 0 l 592 43 q 559 258 592 176 q 465 385 526 340 q 315 450 403 429 l 385 529 q 565 444 492 501 q 678 295 639 388 q 717 65 717 203 l 717 0 l 592 0 z "},"ጻ":{"ha":751,"x_min":49,"x_max":703,"o":"m 49 181 q 99 336 64 268 q 194 463 133 404 q 343 581 254 522 q 428 646 396 615 q 476 709 461 676 q 492 782 492 742 q 460 872 492 836 q 367 907 428 907 q 274 871 308 907 q 240 776 240 835 q 263 694 240 729 q 326 635 285 658 q 422 596 367 611 l 338 528 q 226 579 275 547 q 148 660 176 611 q 119 775 119 708 q 189 942 119 878 q 369 1006 258 1006 q 552 942 489 1006 q 615 789 615 879 q 594 685 615 732 q 528 597 572 639 q 418 511 485 556 q 296 415 346 463 q 217 310 246 367 q 174 181 188 254 l 49 181 m 578 0 l 578 43 q 545 258 578 176 q 451 385 513 340 q 301 450 389 429 l 371 529 q 551 444 478 501 q 664 295 625 388 q 703 65 703 203 l 703 0 l 578 0 z "},"ጼ":{"ha":1029,"x_min":49,"x_max":994,"o":"m 49 0 q 64 191 49 108 q 115 340 79 274 q 210 465 151 407 q 357 581 269 524 q 442 646 410 615 q 490 709 475 676 q 506 782 506 742 q 474 872 506 836 q 381 907 442 907 q 288 871 322 907 q 254 776 254 835 q 276 694 254 729 q 340 635 299 658 q 436 596 381 611 l 351 528 q 240 579 289 547 q 162 660 190 611 q 133 775 133 708 q 203 942 133 878 q 383 1006 272 1006 q 566 942 503 1006 q 629 789 629 879 q 608 685 629 732 q 542 597 586 639 q 432 511 499 556 q 308 414 358 463 q 228 308 258 365 q 186 176 199 250 q 174 0 174 101 l 49 0 m 800 -25 q 686 1 729 -25 q 617 72 643 26 q 575 179 592 118 q 519 321 551 268 q 437 404 486 374 q 313 456 388 435 l 410 526 q 523 476 474 511 q 608 392 572 442 q 661 279 643 342 q 717 319 682 303 q 800 335 753 335 q 947 283 900 335 q 994 161 994 231 q 975 73 994 115 q 913 3 956 31 q 800 -25 871 -25 m 803 67 q 867 96 847 67 q 886 158 886 125 q 867 215 886 188 q 803 243 847 243 q 735 215 754 243 q 717 158 717 188 q 736 96 717 125 q 803 67 756 67 z "}}}
